<?xml version="1.0" standalone="no"?>
<svg width="64" height="64" viewBox="0 0 384 384" version="1.1" xmlns="http://www.w3.org/2000/svg">
  <path d="M22 -32c-12 0 -22 10 -22 22v212c0 12 10 22 22 22h3h19v31c0 42 17 87 43 115s64 46 105 46v0v0c41 0 79 -18 105 -46s43 -73 43 -115v-31h22c12 0 22 -10 22 -22v-212c0 -12 -10 -22 -22 -22h-340zM97 255v-31h17h155h18v31c0 27 -10 61 -28 80v0v1 c-18 19 -42 29 -67 29v0v0c-25 0 -49 -10 -67 -29v-1v0c-18 -19 -28 -53 -28 -80z" transform="matrix(1,0,0,-1,0,384)"/>
</svg>