<?xml version="1.0" encoding="utf-8"?>
<svg viewBox="0 0 735 390" width="735" height="390" hape-rendering="geometricPrecision" xmlns:a="http://www.adobe.com/svg10-extensions" xmlns="http://www.w3.org/2000/svg" xmlns:xlink="http://www.w3.org/1999/xlink">

<style type="text/css">
	.stjjj0{fill:#C06000;stroke:#000000;}
	.stjjj1{fill:#C0C0C0;stroke:#000000;}
	.stjjj2{fill:#A0A0A0;stroke:#000000;}
	.stjjj3{fill:#FF8000;stroke:#000000;}
	.stjjj4{fill:#4E4B49;}
	.stjjj5{fill:#605D5C;stroke:#24211D;}
	.stjjj6{fill:#A9A8A7;}
	.stjjj7{fill:#24211D;}
	.stjjj8{fill:#FFFF00;stroke:#000000;}
	.stjjj9{fill:#3B3734;}
	.stjjj10{fill:#605D5C;}
	.stjjj11{fill:none;stroke:#24211D;}
	.stjjj12{fill:#C0C0C0;stroke:#24211D;}
	.stjjj13{fill:#808080;stroke:#000000;}
	.stjjj14{fill:#FFFF00;stroke:#24211D;}
	.stjjj15{fill:#A9A8A7;stroke:#4E4B49;}
	.stjjj16{fill:#FFFFFF;stroke:#000000;}
	.stjjj17{fill:#804040;stroke:#000000;}
	.stjjj18{stroke:#24211D;}
	.stjjj19{fill:#A00000;stroke:#000000;}
	.stjjj20{fill:#EB3D00;stroke:#000000;}
	.stjjj21{fill:#F48000;stroke:#000000;}
	.stjjj22{fill:#FDFA00;stroke:#000000;}
	.trjjj{transform-origin: 671px 64px}
</style>
<g id="掘进机1" transform="translate(245,2052)">
	<g id="element1_101_" transform="translate(92,1970.850193)">
		<path id="lined3_115_" class="stjjj0" d="M50.1-3795.8h77.3l19.6,46.6L44-3743L50.1-3795.8"/>
		<path id="lined2_131_" class="stjjj1" d="M279.5-3680.4l-79.7,40.5l-33.1,7.4l-35.6-25.8c0,0-38-17.2-56.4-30.7
			c-17.2-12.3-27-17.2-25.8-27c0-9.8,12.3-29.5,12.3-29.5l34.3-4.9c0,0,20.9-2.5,30.7-3.7c9.8,0,14.7,0,14.7,0s34.3-1.2,50.3,4.9
			c16,6.1,60.1,25.8,60.1,25.8l-3.7,14.7l9.8,4.9c0,0,12.3,7.4,17.2,14.7C279.5-3680.4,279.5-3680.4,279.5-3680.4L279.5-3680.4"/>
		<path id="lined1_131_" class="stjjj2" d="M46.4-3671.9c0,0,49.1,20.9,57.6,23.3c8.6,3.7,22.1,2.5,28.2,3.7
			c4.9,2.5,34.3,12.3,34.3,12.3l-49.1-33.1l-68.7-44.2L46.4-3671.9"/>
		<path id="lined4_114_" class="stjjj3" d="M225.5-3929.6l-38-3.7l28.2,65l36.8,3.7L225.5-3929.6"/>
		<path id="lined6_10_" class="stjjj3" d="M-79.9-3745.5v-65l11,45.4l18.4,1.2l82.2-1.2l19.6,13.5l2.5,3.7l-4.9,3.7l-7.4,14.7
			l-112.8-4.9L-79.9-3745.5"/>
		<path id="lined7_9_" class="stjjj4" d="M-6.3-3658.4l39.3-4.9l13.5-9.8c0,0,7.4-8.6,6.1-18.4c0-8.6-1.2-20.9-8.6-24.5
			c-6.1-4.9-6.1-8.6-29.4-12.3c-22.1-3.7-84.6-1.2-84.6-1.2L-6.3-3658.4"/>
		<path id="lined8_9_" class="stjjj5" d="M-6.3-3658.4l39.3-4.9l13.5-9.8c0,0,7.4-8.6,6.1-18.4c0-8.6-1.2-20.9-8.6-24.5
			c-6.1-4.9-6.1-8.6-29.4-12.3c-22.1-3.7-84.6-1.2-84.6-1.2L-6.3-3658.4"/>
		<path id="lined9_10_" class="stjjj6" d="M-219.7-3733.2c-20.9,2.5-18.4,28.2-18.4,29.5c0,0,0,19.6,18.4,29.4c19.6,8.6,184,16,184,16
			s12.3,1.2,34.3-2.5c22.1-2.5,29.4-11,30.7-20.9c1.2-9.8,0-19.6-4.9-25.8c-6.1-6.1-39.2-18.4-49.1-18.4
			C-34.5-3725.9-219.7-3733.2-219.7-3733.2L-219.7-3733.2"/>
		<path id="lined10_10_" class="stjjj7" d="M-218.5-3732c-19.6,2.5-18.4,24.5-17.2,27h-3.7c0-2.5-2.5-27,19.6-30.7L-218.5-3732"/>
		<path id="lined11_10_" class="stjjj7" d="M-235.7-3705c0,0,0,0,0,1.2h-3.7c0-1.2,0,0,0-1.2H-235.7"/>
		<path id="lined12_9_" class="stjjj7" d="M-235.7-3703.8L-235.7-3703.8h-3.7l0,0H-235.7"/>
		<path id="lined13_6_" class="stjjj7" d="M-235.7-3703.8c0,1.2-1.2,19.6,17.2,27l-1.2,3.7c-19.6-9.8-19.6-29.4-19.6-30.7H-235.7"/>
		<path id="lined14_6_" class="stjjj7" d="M-218.5-3676.8c18.4,9.8,181.5,16,182.8,16v3.7c-1.2,0-165.6-7.4-184-16L-218.5-3676.8"/>
		<path id="lined15_4_" class="stjjj7" d="M-35.7-3660.8L-35.7-3660.8L-35.7-3660.8v2.5V-3660.8"/>
		<path id="lined16_4_" class="stjjj7" d="M-35.7-3660.8c0,0,12.3,2.5,34.3-1.2v3.7c-22.1,3.7-35.6,1.2-35.6,1.2L-35.7-3660.8"/>
		<path id="lined17_4_" class="stjjj7" d="M-1.4-3662L-1.4-3662v3.7l0,0V-3662"/>
		<path id="lined18_4_" class="stjjj7" d="M-1.4-3662c2.5,0,6.1-1.2,8.6-1.2v2.5c-2.5,1.2-4.9,1.2-8.6,2.5V-3662"/>
		<path id="lined19_4_" class="stjjj7" d="M7.2-3663.3c2.5-1.2,3.7-1.2,6.1-2.5l1.2,2.5c-2.5,1.2-4.9,2.5-7.4,2.5L7.2-3663.3"/>
		<path id="lined5_109_" class="stjjj8" d="M52.6-3857.2l134.9-74.9l28.2,65l-142.3,77.3l-19.6,2.5L52.6-3857.2"/>
		<path id="lined20_4_" class="stjjj7" d="M13.3-3665.7c9.8-3.7,13.5-9.8,14.7-16h2.5c0,7.4-4.9,14.7-15.9,18.4L13.3-3665.7"/>
		<path id="lined21_4_" class="stjjj7" d="M30.5-3681.7L30.5-3681.7L30.5-3681.7h-1.2H30.5"/>
		<path id="lined22_5_" class="stjjj7" d="M28-3681.7L28-3681.7h2.5l0,0H28"/>
		<path id="lined23_4_" class="stjjj7" d="M30.5-3681.7L30.5-3681.7L30.5-3681.7h-1.2H30.5"/>
		<path id="lined24_4_" class="stjjj7" d="M28-3681.7c0-1.2,0-2.5,0-3.7h3.7c0,1.2,0,2.5-1.2,3.7H28"/>
		<path id="lined25_5_" class="stjjj7" d="M28-3685.4c0-1.2,0-2.5,0-3.7l3.7-1.2c0,2.5,0,3.7,0,4.9H28"/>
		<path id="lined26_4_" class="stjjj7" d="M28-3689c0-7.4-1.2-13.5-4.9-17.2l2.5-2.5c3.7,4.9,6.1,12.3,6.1,18.4L28-3689"/>
		<path id="lined27_5_" class="stjjj7" d="M25.6-3708.7L25.6-3708.7L25.6-3708.7l-1.2,1.2L25.6-3708.7"/>
		<path id="lined28_4_" class="stjjj7" d="M23.1-3706.2L23.1-3706.2l2.5-2.5l0,0L23.1-3706.2"/>
		<path id="lined29_5_" class="stjjj7" d="M23.1-3706.2L23.1-3706.2L23.1-3706.2l1.2-1.2L23.1-3706.2"/>
		<path id="lined30_4_" class="stjjj7" d="M23.1-3706.2c-1.2-1.2-2.5-2.5-3.7-2.5l1.2-3.7c2.5,1.2,3.7,2.5,4.9,3.7L23.1-3706.2"/>
		<path id="lined31_4_" class="stjjj7" d="M19.5-3708.7c-1.2-1.2-3.7-2.5-6.1-3.7l1.2-2.5c2.5,1.2,4.9,2.5,6.1,2.5L19.5-3708.7"/>
		<path id="lined32_4_" class="stjjj7" d="M13.3-3712.4c-12.3-4.9-30.7-11-38-11v-3.7c7.4,0,27,6.1,39.2,12.3L13.3-3712.4"/>
		<path id="lined33_5_" class="stjjj7" d="M-24.7-3723.4c-9.8,0-193.8-8.6-195-8.6l1.2-3.7c0,0,184,8.6,193.8,8.6L-24.7-3723.4"/>
		<path id="lined34_4_" class="stjjj7" d="M-219.7-3735.7L-219.7-3735.7h1.2l-1.2,2.5V-3735.7"/>
		<path id="lined35_6_" class="stjjj8" d="M-305.6-3746.7h225.7v-63.8h-225.7V-3746.7"/>
		<path id="lined36_7_" class="stjjj9" d="M-211.1-3692.7L6-3679.2c0,0-2.5,12.3-12.3,14.7c-8.6,1.2-20.9,0-20.9,0l-174.2-12.3
			c0,0-4.9-1.2-7.4-2.5C-211.1-3681.7-211.1-3692.7-211.1-3692.7L-211.1-3692.7"/>
		<path id="lined37_21_" class="stjjj10" d="M-211.1-3693.9L6-3680.4v2.5l-217.1-13.5V-3693.9"/>
		<path id="lined38_7_" class="stjjj10" d="M6-3680.4h1.2v1.2H6V-3680.4"/>
		<path id="lined39_5_" class="stjjj10" d="M7.2-3679.2c0,0-2.5,13.5-12.3,16l-1.2-3.7c8.6-1.2,9.8-12.3,9.8-12.3L7.2-3679.2"/>
		<path id="lined40_5_" class="stjjj10" d="M-5.1-3663.3c-9.8,1.2-23.3,0-23.3,0l1.2-2.5c0,0,12.3,0,20.9-1.2L-5.1-3663.3"/>
		<path id="lined41_5_" class="stjjj10" d="M-27.1-3665.7L-27.1-3665.7L-27.1-3665.7v1.2V-3665.7"/>
		<path id="lined42_2_" class="stjjj10" d="M-28.4-3663.3l-172.9-12.3v-2.5l174.2,12.3L-28.4-3663.3"/>
		<path id="lined43_2_" class="stjjj10" d="M-201.3-3675.5L-201.3-3675.5L-201.3-3675.5v-1.2V-3675.5"/>
		<path id="lined44_2_" class="stjjj10" d="M-201.3-3675.5c0,0-6.1,0-8.6-3.7l2.5-1.2c1.2,1.2,6.1,2.5,6.1,2.5L-201.3-3675.5"/>
		<path id="lined45_2_" class="stjjj10" d="M-209.9-3679.2c-2.5-2.5-3.7-13.5-3.7-13.5h3.7c0,0,0,9.8,2.5,12.3L-209.9-3679.2"/>
		<path id="lined46_2_" class="stjjj10" d="M-213.6-3692.7v-1.2h2.5v1.2H-213.6"/>
		<path id="lined47_2_" class="stjjj10" d="M-28.4-3679.2l-4.9,16l-2.5-1.2l3.7-16L-28.4-3679.2"/>
		<path id="lined48_2_" class="stjjj10" d="M-63.9-3682.9l-3.7,16l-3.7-1.2l3.7-16L-63.9-3682.9"/>
		<path id="lined49_2_" class="stjjj10" d="M-97.1-3685.4l-2.5,15.9h-3.7l2.5-15.9H-97.1"/>
		<path id="lined50_2_" class="stjjj10" d="M-131.4-3687.8l-1.2,16h-2.5l1.2-16H-131.4"/>
		<path id="lined51_2_" class="stjjj10" d="M-169.4-3690.3v16h-3.7v-14.7L-169.4-3690.3"/>
		<line id="lined52_2_" class="stjjj11" x1="-19.8" y1="-3724.6" x2="10.9" y2="-3728.3"/>
		<line id="lined53_2_" class="stjjj11" x1="-3.8" y1="-3719.7" x2="30.5" y2="-3723.4"/>
		<line id="lined54_2_" class="stjjj11" x1="14.6" y1="-3712.4" x2="42.8" y2="-3717.3"/>
		<line id="lined55_2_" class="stjjj11" x1="26.8" y1="-3702.5" x2="50.1" y2="-3706.2"/>
		<line id="lined56_2_" class="stjjj11" x1="30.5" y1="-3691.5" x2="52.6" y2="-3696.4"/>
		<line id="lined57_2_" class="stjjj11" x1="29.3" y1="-3680.4" x2="52.6" y2="-3686.6"/>
		<line id="lined58_2_" class="stjjj11" x1="24.4" y1="-3670.6" x2="48.9" y2="-3676.8"/>
		<line id="lined59_2_" class="stjjj11" x1="15.8" y1="-3663.3" x2="42.8" y2="-3670.6"/>
		<path id="lined60_2_" class="stjjj12" d="M64.8-3727.1l29.4-6.1l40.5-6.1c0,0,8.6-1.2,23.3-1.2c15.9,0,27,3.7,30.7,6.1
			c3.7,1.2,58.9,25.8,58.9,25.8"/>
		<path id="lined62_2_" class="stjjj13" d="M255-3701.3l-2.5,3.7l-22.1-2.5l1.2,6.1l13.5,9.8l-1.2,3.7l-42.9-25.8l-45.4,1.2l1.2-3.7
			l18.4-9.8l-33.1-17.2v-3.7L255-3701.3"/>
		<path id="lined63_2_" class="stjjj3" d="M155.6-3708.7l47.8-1.2l41.7,25.8l-19.6-19.6l29.4,2.5l-41.7-15.9l-19.6-17.2l-4.9,6.1
			l-46.6-12.3l36.8,19.6L155.6-3708.7"/>
		<path id="lined64_2_" class="stjjj1" d="M199.8-3722.2c8.6,2.5,14.7,6.1,13.5,8.6c-1.2,2.5-9.8,2.5-17.2,0c-8.6-2.5-14.7-7.4-14.7-9.8
			C182.6-3725.9,191.2-3725.9,199.8-3722.2L199.8-3722.2"/>
		<path id="lined65_2_" class="stjjj13" d="M207.1-3664.5l-2.5,3.7l-55.2-22.1l-14.7,19.6l-17.2-31.9l-41.7-14.7l28.2,1.2l-12.3-16
			l1.2-4.9L207.1-3664.5"/>
		<path id="lined66_2_" class="stjjj3" d="M137.2-3666.9l15.9-19.6l54,20.9l-41.7-24.5l14.7-12.3l-31.9-2.5l-55.2-24.5l14.7,16H77.1
			l42.9,13.5L137.2-3666.9"/>
		<path id="lined67_4_" class="stjjj1" d="M144.6-3703.8c9.8,3.7,15.9,9.8,14.7,12.3c-1.2,3.7-9.8,3.7-19.6,0
			c-9.8-3.7-17.2-9.8-15.9-12.3C124.9-3707.4,133.5-3707.4,144.6-3703.8L144.6-3703.8"/>
		<path id="lined68_4_" class="stjjj8" d="M-214.8-3810.5h7.4v-17.2h-7.4V-3810.5"/>
		<path id="lined69_4_" class="stjjj8" d="M-117.9-3811.8h12.3v-22.1h-12.3V-3811.8"/>
		<path id="lined70_4_" class="stjjj1" d="M166.6-3873.1l-6.1-4.9l-20.9,29.5l6.1,4.9L166.6-3873.1"/>
		<path id="lined71_2_" class="stjjj8" d="M202.2-3837.5l-15.9-12.3l-50.3,71.2l14.7,11L202.2-3837.5"/>
		<path id="lined81_1_" class="stjjj14" d="M149.5-3880.5l-54,34.4l-9.8,49.1l9.8-49.1"/>
		<path id="lined75_4_" class="stjjj8" d="M51.3-3855.9v-12.3l-11-2.5l-33.1-1.2l-11,4.9l-3.7,13.5l6.1,15.9l8.6,2.5l-2.5,14.7H28
			l7.4-4.9L51.3-3855.9"/>
		<path id="lined76_2_" class="stjjj8" d="M-105.6-3819.1l41.7,1.2l57.7,1.2l17.2-11l159.5-89.6l13.5,29.5c0,0-20.9,12.3-23.3,12.3
			c-3.7,0-20.8-12.3-20.8-12.3l-56.4,35.6l-8.6,51.5l-20.9,12.3l4.9,9.8l19.6,3.7l15.9,11l-2.5,8.6l-41.7,2.5l-19.6-12.3l-79.7,1.2
			l-19.6-2.5l-11-44.2l-25.8-1.2v-6.1L-105.6-3819.1"/>
		<path id="lined78_1_" class="stjjj3" d="M215.7-3867l39.2,3.7l-130,72.4H72.2L215.7-3867"/>
		<path id="lined79_1_" class="stjjj3" d="M170.3-3917.3l19.6,1.2l13.5,29.5h-19.6L170.3-3917.3"/>
		<path id="lined80_1_" class="stjjj3" d="M172.8-3870.7l30.7-16h-19.6l-24.5,12.3L172.8-3870.7"/>
		<path id="lined82_1_" class="stjjj8" d="M150.7-3765.1l-18.4,11L98-3766.4l9.8-13.5l29.4-2.5L150.7-3765.1"/>
		<path id="lined83_1_" class="stjjj8" d="M-16.1-3751.6l50.3-1.2l8.6,18.4h-60.1L-16.1-3751.6"/>
		<path id="lined84_1_" class="stjjj8" d="M-268.8-3745.5l-33.1,19.6H-324l-12.3,6.1l12.3,17.2l17.2,6.1l14.7-2.5l36.8-7.4h4.9h6.1
			l6.1-35.6l-3.7-3.7L-268.8-3745.5"/>
		<line id="lined85_1_" class="stjjj11" x1="-270" y1="-3744.3" x2="-250.4" y2="-3706.2"/>
		<path id="lined86_1_" class="stjjj8" d="M149.5-3840l-15.9-12.3l-55.2,76.1l15.9,12.3L149.5-3840"/>
		<path id="lined88_1_" class="stjjj15" d="M-21-3713.6l23.3,2.5l9.8,2.5l7.4,6.1l3.7,8.6l-1.2,9.8l-1.2,7.4H8.4l-27-2.5l-4.9-4.9
			L-21-3713.6"/>
		<path id="lined89_1_" class="stjjj4" d="M-216-3722.2l195,7.4v3.7l-195-8.6L-216-3722.2"/>
		<path id="lined90_1_" class="stjjj16" d="M-11.2-3751.6h6.1v-13.5h-6.1V-3751.6"/>
		<path id="lined91_1_" class="stjjj6" d="M-217.3-3690.3c6.1,0,9.8-7.4,9.8-15.9c0-8.6-3.7-16-9.8-16c-4.9,0-8.6,7.4-8.6,16
			C-225.8-3697.6-222.2-3690.3-217.3-3690.3L-217.3-3690.3"/>
		<path id="lined92" class="stjjj4" d="M-217.3-3691.5L-217.3-3691.5v3.7l0,0V-3691.5"/>
		<path id="lined93" class="stjjj4" d="M-217.3-3691.5c2.5,0,3.7-1.2,6.1-3.7l2.5,1.2c-2.5,3.7-4.9,6.1-8.6,6.1L-217.3-3691.5"/>
		<path id="lined94" class="stjjj4" d="M-211.1-3695.2c1.2-2.5,2.5-7.4,2.5-11h2.5c0,4.9-1.2,8.6-2.5,12.3L-211.1-3695.2"/>
		<path id="lined95" class="stjjj4" d="M-208.7-3706.2L-208.7-3706.2h2.5l0,0H-208.7"/>
		<path id="lined96" class="stjjj4" d="M-208.7-3706.2L-208.7-3706.2h2.5l0,0H-208.7"/>
		<path id="lined97" class="stjjj4" d="M-208.7-3706.2c0-3.7-1.2-7.4-2.5-11l2.5-1.2c1.2,3.7,2.5,7.4,2.5,12.3H-208.7"/>
		<path id="lined98" class="stjjj4" d="M-211.1-3717.3c-2.5-2.5-3.7-3.7-6.1-3.7v-2.5c3.7,0,6.1,1.2,8.6,4.9L-211.1-3717.3"/>
		<path id="lined99" class="stjjj4" d="M-217.3-3721L-217.3-3721v-2.5l0,0V-3721"/>
		<path id="lined100" class="stjjj4" d="M-217.3-3721L-217.3-3721v-2.5l0,0V-3721"/>
		<path id="lined101" class="stjjj4" d="M-217.3-3721c-1.2,0-3.7,1.2-4.9,3.7l-2.5-1.2c2.5-3.7,4.9-4.9,7.4-4.9V-3721"/>
		<path id="lined102" class="stjjj4" d="M-222.2-3717.3c-1.2,3.7-2.5,7.4-2.5,11h-2.5c0-4.9,0-8.6,2.5-12.3L-222.2-3717.3"/>
		<path id="lined103" class="stjjj4" d="M-224.6-3706.2L-224.6-3706.2h-2.5l0,0H-224.6"/>
		<path id="lined104" class="stjjj4" d="M-224.6-3706.2L-224.6-3706.2h-2.5l0,0H-224.6"/>
		<path id="lined105" class="stjjj4" d="M-224.6-3706.2c0,3.7,1.2,8.6,2.5,11l-2.5,1.2c-2.5-3.7-2.5-7.4-2.5-12.3H-224.6"/>
		<path id="lined106" class="stjjj4" d="M-222.2-3695.2c1.2,2.5,3.7,3.7,4.9,3.7v3.7c-2.5,0-4.9-2.5-7.4-6.1L-222.2-3695.2"/>
		<path id="lined107" class="stjjj4" d="M-217.3-3691.5L-217.3-3691.5v3.7l0,0V-3691.5"/>
		<path id="lined108" class="stjjj8" d="M-218.5-3841.2l239.2-12.3v13.5l-238,12.3L-218.5-3841.2"/>
		<path id="lined109" class="stjjj8" d="M-218.5-3744.3l1.2,11l34.3,15.9v19.6h11v-30.7l4.9-6.1h67.5l6.1,6.1v34.4h11v-17.2l2.5-3.7h8.6
			v-30.7h-147.2L-218.5-3744.3"/>
		<path id="lined113" class="stjjj17" d="M207.1-3921c0,0-2.5,7.4,3.7,22.1c7.4,14.7,13.5,22.1,20.9,24.5c6.1,3.7,11,4.9,11,4.9l45.4-27
			c0,0-4.9-3.7-13.5-12.3c-8.6-8.6-14.7-18.4-15.9-24.5c-1.2-6.1-1.2-14.7-1.2-14.7L207.1-3921"/>
		<path id="lined111" class="stjjj18" d="M257.4-3948l-14.7,8.6c0,0,0,4.9,2.5,13.5c2.5,7.4,12.3,23.3,17.2,27c2.5,2.5,8.6,7.4,11,8.6
			c1.2,1.2,1.2,1.2,1.2,1.2l13.5-7.4"/>
		<path id="lined120" class="stjjj13" d="M62.4-3744.3c-2.5,17.2,2.5,17.2,2.5,17.2l55.2,34.4l-2.5,27L91.8-3678l-14.7-8.6l-18.4-12.3
			l-4.9-4.9c0,0-3.7-2.5-3.7-3.7c-1.2-2.5-1.2-7.4-1.2-7.4l1.2-9.8l4.9-8.6l3.7-8.6l2.5-2.5L62.4-3744.3"/>
		<path id="lined77_2_" class="stjjj19" d="M295.4-3961.5c0,0,2.5,9.8,8.6,20.9c7.4,11,14.7,17.2,14.7,17.2l-6.1,3.7l-12.3,4.9
			l-13.5,18.4l-6.1-4.9l-12.3-13.5l-8.6-14.7l-3.7-13.5l1.2-4.9l20.9-3.7L295.4-3961.5"/>
		<g id="jjjXZ"  class="trjjj">
			<path id="lined114" class="stjjj20 trjjj" d="M334.7-4022.9l-15.9,24.5l-8.6-20.9l-6.1,29.4l-15.9-16l6.1,28.2l-20.9-7.4l15.9,24.5h-20.9
				l23.3,16l-19.6,8.6l28.2,6.1l-14.7,15.9l28.2-6.1l-8.6,20.9l24.5-17.2v22.1l17.2-23.3l8.6,19.6l4.9-28.2l15.9,14.7l-4.9-28.2
				l19.6,8.6l-15.9-24.5h22.1l-24.5-17.2l20.9-8.6l-29.4-6.1l15.9-14.7l-29.4,4.9l8.6-19.6l-24.5,16L334.7-4022.9"/>
			<path id="lined116" class="stjjj21" d="M332.2-3908.7c27,0,49.1-22.1,49.1-49.1c0-27-22.1-50.3-49.1-50.3s-49.1,23.3-49.1,50.3
				S305.3-3908.7,332.2-3908.7L332.2-3908.7"/>
			<path id="lined118" class="stjjj22" d="M332.2-3928.4c15.9,0,29.4-13.5,29.4-29.4c0-17.2-13.5-29.5-29.4-29.5
				c-15.9,0-29.4,12.3-29.4,29.5C302.8-3941.9,316.3-3928.4,332.2-3928.4L332.2-3928.4"/>
		</g>
	</g>
</g>
</svg>
