<?xml version="1.0" encoding="utf-8"?>
<svg viewBox="0 0 256 243" width="256" height="243" hape-rendering="geometricPrecision" xmlns:a="http://www.adobe.com/svg10-extensions" xmlns="http://www.w3.org/2000/svg" xmlns:xlink="http://www.w3.org/1999/xlink">

<style type="text/css">
	.sta0{fill:#163A6F;}
	.sta1{fill:#2B7ACA;}
	.sta2{fill:#0D4A90;}
	.sta3{fill:url(#XMLID7_748_);}
	.sta4{fill:none;}
	.sta5{fill:url(#lineb8_1_);}
	.sta6{fill:url(#lineb9_1_);}
	.sta7{fill:#000080;}
	.sta8{fill:url(#lineb41_1_);}
	.sta9a{fill:url(#lineb69_1_);}
	.sta10{fill:url(#lineb87_1_);}
	.sta11{fill:url(#XMLID7_749_);}
	.sta12{fill:url(#XMLID7_750_);}
	.sta13{fill:url(#XMLID7_751_);}
	.sta14{fill:#036EB8;}
	.sta15{fill:#046FB9;}
	.sta16{fill:#0570B9;}
	.sta17{fill:#0571BA;}
	.sta18{fill:#0672BB;}
	.sta19{fill:#0773BC;}
	.sta20{fill:#0874BC;}
	.sta21{fill:#0875BD;}
	.sta22{fill:#0976BE;}
	.sta23{fill:#0A77BE;}
	.sta24{fill:#0B78BF;}
	.sta25{fill:#0B79C0;}
	.sta26{fill:#0C7AC1;}
	.sta27{fill:#0D7BC1;}
	.sta28{fill:#0E7CC2;}
	.sta29{fill:#0F7DC3;}
	.sta30{fill:#0F7EC3;}
	.sta31{fill:#107FC4;}
	.sta32{fill:#1180C5;}
	.sta33{fill:#1281C6;}
	.sta34{fill:#1282C6;}
	.sta35{fill:#1383C7;}
	.sta36{fill:#1484C8;}
	.sta37{fill:#1585C8;}
	.sta38{fill:#1586C9;}
	.sta39{fill:#1687CA;}
	.sta40{fill:#1788CB;}
	.sta41{fill:#1889CB;}
	.sta42{fill:#198BCC;}
	.sta43{fill:#198CCD;}
	.sta44{fill:#1A8DCD;}
	.sta45{fill:#1B8ECE;}
	.sta46{fill:#1C8FCF;}
	.sta47{fill:#1C90D0;}
	.sta48{fill:#1D91D0;}
	.sta49{fill:#1E92D1;}
	.sta50{fill:#1F93D2;}
	.sta51{fill:#1F94D2;}
	.sta52{fill:#2095D3;}
	.sta53{fill:#2196D4;}
	.sta54{fill:#2297D5;}
	.sta55{fill:#2298D5;}
	.sta56{fill:#2399D6;}
	.sta57{fill:#249AD7;}
	.sta58{fill:#259BD7;}
	.sta59{fill:#269CD8;}
	.sta60{fill:#269DD9;}
	.sta61{fill:#279EDA;}
	.sta62{fill:#289FDA;}
	.sta63{fill:#29A0DB;}
	.sta64{fill:#29A1DC;}
	.sta65{fill:#2AA2DC;}
	.sta66{fill:#2BA3DD;}
	.sta67{fill:#2CA4DE;}
	.sta68{fill:#2CA5DF;}
	.sta69{fill:#2DA6DF;}
	.sta70{fill:#2EA7E0;}
	.sta71{fill:#FFFFFF;}
	.tr7{transform-origin: 95px 128px}
</style>
<g id="XMLID7_460_">
	<path id="lineb1_2_" class="sta0" d="M92.2,211.8l-49.5,31.6H24l-0.4-4.7c0,0,15.4,0.9,18.8,0c3.4-0.9,49.5-30.7,49.5-30.7
		L92.2,211.8"/>
	<path id="lineb2_2_" class="sta1" d="M24,239.1L74.8,208h17.1l-49.5,31.1H24"/>
	<path id="lineb3_2_" class="sta2" d="M64.1,182l-12.4,51.6H32.9l19.6-79.8L64.1,182"/>
	
		<linearGradient id="XMLID7_748_" gradientUnits="userSpaceOnUse" x1="193.2486" y1="387.4211" x2="139.3676" y2="239.3842" gradientTransform="matrix(1 0 0 1 0 -200)">
		<stop  offset="0" style="stop-color:#0D4A90"/>
		<stop  offset="0.4182" style="stop-color:#2B7ACA"/>
		<stop  offset="1" style="stop-color:#0D4A90"/>
	</linearGradient>
	<path id="XMLID7_747_" class="sta3" d="M255.2,117.5c0-32.1-26.5-59.4-61.8-65.6l-66.7-8l17,13.6c-25.7,11-43.4,33.9-43.4,60
		c0,32.1,26.2,59.2,61,65.8l-48.6,33.4l91.4-35.8c6.4-2,12.4-4.8,17.9-8.1l0,0h0C242.1,160.6,255.2,140.4,255.2,117.5z"/>
	<line id="lineb7_2_" class="sta4" x1="41.9" y1="239.1" x2="42.3" y2="243.8"/>
	
		<linearGradient id="lineb8_1_" gradientUnits="userSpaceOnUse" x1="112.7565" y1="208.9595" x2="143.4754" y2="208.9595" gradientTransform="matrix(1 0 0 1 0 -200)">
		<stop  offset="0" style="stop-color:#0D4A90"/>
		<stop  offset="0.4182" style="stop-color:#2B7ACA"/>
		<stop  offset="1" style="stop-color:#0D4A90"/>
	</linearGradient>
	<path id="lineb8_2_" class="sta5" d="M112.8,18.1h30.7V-0.2h-30.7V18.1"/>
	
		<linearGradient id="lineb9_1_" gradientUnits="userSpaceOnUse" x1="117.4485" y1="223.893" x2="138.7835" y2="223.893" gradientTransform="matrix(1 0 0 1 0 -200)">
		<stop  offset="0" style="stop-color:#0D4A90"/>
		<stop  offset="0.4182" style="stop-color:#2B7ACA"/>
		<stop  offset="1" style="stop-color:#0D4A90"/>
	</linearGradient>
	<path id="lineb9_2_" class="sta6" d="M117.4,29.7h21.3V18.1h-21.3V29.7"/>
	<path id="lineb10_2_" class="sta7" d="M122.5,45.4h11.9V30.1h-11.9V45.4"/>
	<path id="lineb11_2_" class="sta7" d="M122.5,45.4V30.1h0.4v15.4H122.5"/>
	<path id="lineb12_2_" class="sta7" d="M122.5,45.4V30.1h0.9v15.4H122.5"/>
	<path id="lineb13_2_" class="sta7" d="M123,45.4V30.1h0.9v15.4H123"/>
	<path id="lineb14_2_" class="sta7" d="M123.4,45.4V30.1h0.9v15.4H123.4"/>
	<path id="lineb15_2_" class="sta7" d="M123.8,45.4V30.1h0.9v15.4H123.8"/>
	<path id="lineb16_2_" class="sta7" d="M124.2,45.4V30.1h0.9v15.4H124.2"/>
	<path id="lineb17_2_" class="sta7" d="M124.7,45.4V30.1h0.9v15.4H124.7"/>
	<path id="lineb18_2_" class="sta7" d="M125.1,45.4V30.1h0.9v15.4H125.1"/>
	<path id="lineb19_2_" class="sta7" d="M125.5,45.4V30.1h0.9v15.4H125.5"/>
	<path id="lineb20_2_" class="sta7" d="M126,45.4V30.1h0.9v15.4H126"/>
	<path id="lineb21_2_" class="sta7" d="M126.4,45.4V30.1h0.9v15.4H126.4"/>
	<path id="lineb22_2_" class="sta7" d="M126.8,45.4V30.1h0.9v15.4H126.8"/>
	<path id="lineb23_2_" class="sta7" d="M127.2,45.4V30.1h0.9v15.4H127.2"/>
	<path id="lineb24_2_" class="sta7" d="M127.7,45.4V30.1h0.9v15.4H127.7"/>
	<path id="lineb25_2_" class="sta7" d="M128.1,45.4V30.1h0.9v15.4H128.1"/>
	<path id="lineb26_2_" class="sta7" d="M128.5,45.4V30.1h0.9v15.4H128.5"/>
	<path id="lineb27_2_" class="sta7" d="M128.9,45.4V30.1h0.9v15.4H128.9"/>
	<path id="lineb28_2_" class="sta7" d="M129.4,45.4V30.1h0.9v15.4H129.4"/>
	<path id="lineb29_2_" class="sta7" d="M129.8,45.4V30.1h0.9v15.4H129.8"/>
	<path id="lineb30_2_" class="sta7" d="M130.2,45.4V30.1h0.9v15.4H130.2"/>
	<path id="lineb31_2_" class="sta7" d="M130.6,45.4V30.1h0.9v15.4H130.6"/>
	<path id="lineb32_2_" class="sta7" d="M131.1,45.4V30.1h0.9v15.4H131.1"/>
	<path id="lineb33_2_" class="sta7" d="M131.5,45.4V30.1h0.9v15.4H131.5"/>
	<path id="lineb34_2_" class="sta7" d="M131.9,45.4V30.1h0.9v15.4H131.9"/>
	<path id="lineb35_2_" class="sta7" d="M132.4,45.4V30.1h0.9v15.4H132.4"/>
	<path id="lineb36_2_" class="sta7" d="M132.8,45.4V30.1h0.9v15.4H132.8"/>
	<path id="lineb37_2_" class="sta7" d="M133.2,45.4V30.1h0.9v15.4H133.2"/>
	<path id="lineb38_2_" class="sta7" d="M133.6,45.4V30.1h0.9v15.4H133.6"/>
	<path id="lineb39_2_" class="sta7" d="M134.1,45.4V30.1h0.9v15.4H134.1"/>
	<path id="lineb40_2_" class="sta7" d="M134.5,45.4V30.1l0,0V45.4L134.5,45.4"/>
	
		<linearGradient id="lineb41_1_" gradientUnits="userSpaceOnUse" x1="122.9944" y1="237.761" x2="134.9434" y2="237.761" gradientTransform="matrix(1 0 0 1 0 -200)">
		<stop  offset="0" style="stop-color:#0D4A90"/>
		<stop  offset="0.4182" style="stop-color:#2B7ACA"/>
		<stop  offset="1" style="stop-color:#0D4A90"/>
	</linearGradient>
	<path id="lineb41_2_" class="sta8" d="M123,45.4h11.9V30.1H123V45.4"/>
	<path id="lineb67_2_" class="sta1" d="M256.1,209.7l-49.5,31.6h-18.8v-4.7c0,0,15.4,0.9,18.3,0c3.4-0.9,49.9-30.7,49.9-30.7
		L256.1,209.7"/>
	<path id="lineb68_2_" class="sta2" d="M187.8,237l50.3-31.1h17.5L206.2,237H187.8"/>
	
		<linearGradient id="lineb69_1_" gradientUnits="userSpaceOnUse" x1="8.543396e-02" y1="326.72" x2="189.9515" y2="326.72" gradientTransform="matrix(1 0 0 1 0 -200)">
		<stop  offset="0" style="stop-color:#0D4A90"/>
		<stop  offset="0.4182" style="stop-color:#2B7ACA"/>
		<stop  offset="1" style="stop-color:#0D4A90"/>
	</linearGradient>
	<path id="lineb69_2_" class="sta9a" d="M95.2,221.7c52.1,0,94.7-42.7,94.7-95.1c0-52.1-42.7-94.7-94.7-94.7
		c-52.5,0-95.1,42.7-95.1,94.7C0.1,179,42.8,221.7,95.2,221.7L95.2,221.7"/>
	<line id="lineb70_2_" class="sta4" x1="206.2" y1="237" x2="206.6" y2="241.7"/>
	<path id="lineb73_2_" class="sta2" d="M227.1,166.6l9,41h15.4l-13.2-52.5L227.1,166.6"/>
	<path id="lineb75_2_" class="sta1" d="M180,183.9l15.1,47.6h18.3l-19.7-61l-11.4,9.3"/>
	
		<radialGradient id="lineb87_1_" cx="95.0204" cy="326.719" r="78.2007" gradientTransform="matrix(1 0 0 1 0 -200)" gradientUnits="userSpaceOnUse">
		<stop  offset="0" style="stop-color:#2EA7E0"/>
		<stop  offset="0.3132" style="stop-color:#2DA4DE"/>
		<stop  offset="0.5016" style="stop-color:#2A9CD7"/>
		<stop  offset="0.657" style="stop-color:#258ECA"/>
		<stop  offset="0.7943" style="stop-color:#1E7AB9"/>
		<stop  offset="0.9186" style="stop-color:#1560A3"/>
		<stop  offset="1" style="stop-color:#0D4A90"/>
	</radialGradient>
	<path id="lineb87_2_" class="sta10" d="M95.2,204.9c43,0,78-35.4,78-78.4c0-43-35-78-78-78c-43,0-78.4,35-78.4,78
		C16.8,169.5,52.2,204.9,95.2,204.9L95.2,204.9"/>
	<g id="XMLID7_461_7" class="tr7">
		<g id="XMLID7_745_">
			
				<linearGradient id="XMLID7_749_" gradientUnits="userSpaceOnUse" x1="118.8603" y1="278.1671" x2="90.8607" y2="291.1669" gradientTransform="matrix(1 0 0 1 0 -200)">
				<stop  offset="0" style="stop-color:#C9CACA"/>
				<stop  offset="1" style="stop-color:#FFFFFF"/>
			</linearGradient>
			<path id="XMLID7_746_" class="sta11" d="M112.1,64.3c21.1,20.1-7.9,57.1-17.1,63.6c0,0,8.4-40.7-19.2-39.8
				c-9.1,0.3-18.3-9-13.6-18.7C67.6,58.3,98.4,51.2,112.1,64.3z"/>
		</g>
		<g id="XMLID7_743_">
			
				<linearGradient id="XMLID7_750_" gradientUnits="userSpaceOnUse" x1="46.9798" y1="350.6058" x2="67.9803" y2="354.6059" gradientTransform="matrix(1 0 0 1 0 -200)">
				<stop  offset="0" style="stop-color:#C9CACA"/>
				<stop  offset="1" style="stop-color:#FFFFFF"/>
			</linearGradient>
			<path id="XMLID7_744_" class="sta12" d="M31.3,144.9c6.9-28.3,53.4-21.7,63.6-17c0,0-39.4,13.1-24.9,36.5
				c4.8,7.8,1.4,20.3-9.4,21.1C48.4,186.5,26.9,163.3,31.3,144.9z"/>
		</g>
		<g id="XMLID7_741_">
			
				<linearGradient id="XMLID7_751_" gradientUnits="userSpaceOnUse" x1="122.235" y1="369.561" x2="128.2348" y2="341.5616" gradientTransform="matrix(1 0 0 1 0 -200)">
				<stop  offset="0" style="stop-color:#C9CACA"/>
				<stop  offset="1" style="stop-color:#FFFFFF"/>
			</linearGradient>
			<path id="XMLID7_742_" class="sta13" d="M141.5,174.5c-27.9,8.2-45.5-35.3-46.6-46.6c0,0,31,27.6,44.1,3.2
				c4.3-8.1,16.9-11.3,23-2.4C169,138.9,159.7,169.1,141.5,174.5z"/>
		</g>
		<g id="XMLID7_500_">
			<g id="XMLID7_504_">
				<path id="XMLID7_740_" class="sta14" d="M80.2,115.8c0.1-0.1,0.2-0.2,0.3-0.3C80.4,115.6,80.3,115.7,80.2,115.8z"/>
				<path id="XMLID7_739_" class="sta14" d="M75.8,128.1L75.8,128.1c0-4.5,1.6-8.7,4.2-12C77.4,119.4,75.8,123.6,75.8,128.1z"/>
				<path id="XMLID7_738_" class="sta14" d="M95,108.8L95,108.8c10.6,0,19.2,8.6,19.2,19.2v0C114.3,117.5,105.7,108.8,95,108.8z"/>
				<path id="XMLID7_737_" class="sta14" d="M95,147.3L95,147.3c5.7,0,10.9-2.5,14.4-6.5C105.9,144.8,100.8,147.3,95,147.3z"/>
				<path id="XMLID7_734_" class="sta14" d="M95,108.8c-5.8,0-11,2.6-14.6,6.7c-0.1,0.1-0.2,0.2-0.3,0.3c-0.1,0.1-0.1,0.2-0.2,0.3
					c-2.6,3.3-4.2,7.4-4.2,12c0,10.6,8.6,19.2,19.2,19.2c5.7,0,10.9-2.5,14.4-6.5c3-3.4,4.9-7.9,4.9-12.8
					C114.3,117.5,105.7,108.8,95,108.8z M95,147c-10.4,0-18.9-8.5-18.9-18.9c0-10.4,8.5-18.9,18.9-18.9c10.4,0,18.9,8.5,18.9,18.9
					C113.9,138.5,105.5,147,95,147z"/>
				<path id="XMLID7_731_" class="sta15" d="M95,109.2c-10.4,0-18.9,8.5-18.9,18.9c0,10.4,8.5,18.9,18.9,18.9
					c10.4,0,18.9-8.5,18.9-18.9C113.9,117.6,105.5,109.2,95,109.2z M95,146.7c-10.3,0-18.6-8.3-18.6-18.6c0-10.3,8.3-18.6,18.6-18.6
					c10.3,0,18.6,8.3,18.6,18.6C113.6,138.3,105.3,146.7,95,146.7z"/>
				<path id="XMLID7_728_" class="sta16" d="M95,109.5c-10.3,0-18.6,8.3-18.6,18.6c0,10.3,8.3,18.6,18.6,18.6
					c10.3,0,18.6-8.3,18.6-18.6C113.6,117.8,105.3,109.5,95,109.5z M95,146.3c-10.1,0-18.2-8.2-18.2-18.2S85,109.9,95,109.9
					c10.1,0,18.2,8.2,18.2,18.2S105.1,146.3,95,146.3z"/>
				<path id="XMLID7_725_" class="sta17" d="M95,109.9c-10.1,0-18.2,8.2-18.2,18.2S85,146.3,95,146.3c10.1,0,18.2-8.2,18.2-18.2
					S105.1,109.9,95,109.9z M95,146c-9.9,0-17.9-8-17.9-17.9c0-9.9,8-17.9,17.9-17.9c9.9,0,17.9,8,17.9,17.9
					C112.9,138,104.9,146,95,146z"/>
				<path id="XMLID7_659_" class="sta18" d="M95,110.2c-9.9,0-17.9,8-17.9,17.9c0,9.9,8,17.9,17.9,17.9c9.9,0,17.9-8,17.9-17.9
					C112.9,118.2,104.9,110.2,95,110.2z M95,145.6c-9.7,0-17.6-7.9-17.6-17.6c0-9.7,7.9-17.6,17.6-17.6c9.7,0,17.6,7.9,17.6,17.6
					C112.6,137.8,104.7,145.6,95,145.6z"/>
				<path id="XMLID7_656_" class="sta19" d="M95,110.5c-9.7,0-17.6,7.9-17.6,17.6c0,9.7,7.9,17.6,17.6,17.6c9.7,0,17.6-7.9,17.6-17.6
					C112.6,118.4,104.7,110.5,95,110.5z M95,145.3c-9.5,0-17.2-7.7-17.2-17.2c0-9.5,7.7-17.2,17.2-17.2c9.5,0,17.2,7.7,17.2,17.2
					C112.3,137.6,104.5,145.3,95,145.3z"/>
				<path id="XMLID7_653_" class="sta20" d="M95,110.9c-9.5,0-17.2,7.7-17.2,17.2c0,9.5,7.7,17.2,17.2,17.2c9.5,0,17.2-7.7,17.2-17.2
					C112.3,118.6,104.5,110.9,95,110.9z M95,145c-9.3,0-16.9-7.6-16.9-16.9s7.6-16.9,16.9-16.9c9.3,0,16.9,7.6,16.9,16.9
					S104.4,145,95,145z"/>
				<path id="XMLID7_650_" class="sta21" d="M95,111.2c-9.3,0-16.9,7.6-16.9,16.9S85.7,145,95,145c9.3,0,16.9-7.6,16.9-16.9
					S104.4,111.2,95,111.2z M95,144.6c-9.1,0-16.5-7.4-16.5-16.5c0-9.1,7.4-16.5,16.5-16.5c9.1,0,16.5,7.4,16.5,16.5
					C111.6,137.2,104.2,144.6,95,144.6z"/>
				<path id="XMLID7_647_" class="sta22" d="M95,111.5c-9.1,0-16.5,7.4-16.5,16.5c0,9.1,7.4,16.5,16.5,16.5c9.1,0,16.5-7.4,16.5-16.5
					C111.6,119,104.2,111.5,95,111.5z M95,144.3c-9,0-16.2-7.3-16.2-16.2c0-9,7.3-16.2,16.2-16.2c9,0,16.2,7.3,16.2,16.2
					C111.2,137,104,144.3,95,144.3z"/>
				<path id="XMLID7_644_" class="sta23" d="M95,111.9c-9,0-16.2,7.3-16.2,16.2c0,9,7.3,16.2,16.2,16.2c9,0,16.2-7.3,16.2-16.2
					C111.2,119.1,104,111.9,95,111.9z M95,144c-8.8,0-15.9-7.1-15.9-15.9c0-8.8,7.1-15.9,15.9-15.9c8.8,0,15.9,7.1,15.9,15.9
					C110.9,136.9,103.8,144,95,144z"/>
				<path id="XMLID7_641_" class="sta24" d="M95,112.2c-8.8,0-15.9,7.1-15.9,15.9c0,8.8,7.1,15.9,15.9,15.9c8.8,0,15.9-7.1,15.9-15.9
					C110.9,119.3,103.8,112.2,95,112.2z M95,143.6c-8.6,0-15.5-7-15.5-15.5s7-15.5,15.5-15.5c8.6,0,15.5,7,15.5,15.5
					S103.6,143.6,95,143.6z"/>
				<path id="XMLID7_638_" class="sta25" d="M95,112.6c-8.6,0-15.5,7-15.5,15.5s7,15.5,15.5,15.5c8.6,0,15.5-7,15.5-15.5
					S103.6,112.6,95,112.6z M95,143.3c-8.4,0-15.2-6.8-15.2-15.2c0-8.4,6.8-15.2,15.2-15.2c8.4,0,15.2,6.8,15.2,15.2
					S103.4,143.3,95,143.3z"/>
				<path id="XMLID7_635_" class="sta26" d="M95,112.9c-8.4,0-15.2,6.8-15.2,15.2s6.8,15.2,15.2,15.2c8.4,0,15.2-6.8,15.2-15.2
					C110.2,119.7,103.4,112.9,95,112.9z M95,142.9c-8.2,0-14.9-6.7-14.9-14.9c0-8.2,6.7-14.9,14.9-14.9c8.2,0,14.9,6.7,14.9,14.9
					C109.9,136.3,103.2,142.9,95,142.9z"/>
				<path id="XMLID7_632_" class="sta27" d="M95,113.2c-8.2,0-14.9,6.7-14.9,14.9c0,8.2,6.7,14.9,14.9,14.9c8.2,0,14.9-6.7,14.9-14.9
					C109.9,119.9,103.2,113.2,95,113.2z M95,142.6c-8,0-14.5-6.5-14.5-14.5S87,113.6,95,113.6c8,0,14.5,6.5,14.5,14.5
					S103.1,142.6,95,142.6z"/>
				<path id="XMLID7_629_" class="sta28" d="M95,113.6c-8,0-14.5,6.5-14.5,14.5S87,142.6,95,142.6c8,0,14.5-6.5,14.5-14.5
					S103.1,113.6,95,113.6z M95,142.3c-7.8,0-14.2-6.4-14.2-14.2s6.3-14.2,14.2-14.2c7.8,0,14.2,6.4,14.2,14.2S102.9,142.3,95,142.3
					z"/>
				<path id="XMLID7_626_" class="sta29" d="M95,113.9c-7.8,0-14.2,6.4-14.2,14.2s6.3,14.2,14.2,14.2c7.8,0,14.2-6.4,14.2-14.2
					S102.9,113.9,95,113.9z M95,141.9c-7.6,0-13.8-6.2-13.8-13.8c0-7.6,6.2-13.8,13.8-13.8c7.6,0,13.8,6.2,13.8,13.8
					C108.9,135.7,102.7,141.9,95,141.9z"/>
				<path id="XMLID7_623_" class="sta30" d="M95,114.2c-7.6,0-13.8,6.2-13.8,13.8c0,7.6,6.2,13.8,13.8,13.8c7.6,0,13.8-6.2,13.8-13.8
					C108.9,120.4,102.7,114.2,95,114.2z M95,141.6c-7.5,0-13.5-6-13.5-13.5c0-7.5,6-13.5,13.5-13.5c7.5,0,13.5,6,13.5,13.5
					C108.5,135.5,102.5,141.6,95,141.6z"/>
				<path id="XMLID7_620_" class="sta31" d="M95,114.6c-7.5,0-13.5,6-13.5,13.5c0,7.5,6,13.5,13.5,13.5c7.5,0,13.5-6,13.5-13.5
					C108.5,120.6,102.5,114.6,95,114.6z M95,141.3c-7.3,0-13.2-5.9-13.2-13.2c0-7.3,5.9-13.2,13.2-13.2c7.3,0,13.2,5.9,13.2,13.2
					C108.2,135.4,102.3,141.3,95,141.3z"/>
				<path id="XMLID7_617_" class="sta32" d="M95,114.9c-7.3,0-13.2,5.9-13.2,13.2c0,7.3,5.9,13.2,13.2,13.2c7.3,0,13.2-5.9,13.2-13.2
					C108.2,120.8,102.3,114.9,95,114.9z M95,140.9c-7.1,0-12.8-5.7-12.8-12.8c0-7.1,5.7-12.8,12.8-12.8c7.1,0,12.8,5.7,12.8,12.8
					C107.9,135.2,102.1,140.9,95,140.9z"/>
				<path id="XMLID7_614_" class="sta33" d="M95,115.3c-7.1,0-12.8,5.7-12.8,12.8c0,7.1,5.7,12.8,12.8,12.8c7.1,0,12.8-5.7,12.8-12.8
					C107.9,121,102.1,115.3,95,115.3z M95,140.6c-6.9,0-12.5-5.6-12.5-12.5c0-6.9,5.6-12.5,12.5-12.5c6.9,0,12.5,5.6,12.5,12.5
					C107.5,135,101.9,140.6,95,140.6z"/>
				<path id="XMLID7_611_" class="sta34" d="M95,115.6c-6.9,0-12.5,5.6-12.5,12.5c0,6.9,5.6,12.5,12.5,12.5c6.9,0,12.5-5.6,12.5-12.5
					C107.5,121.2,101.9,115.6,95,115.6z M95,140.2c-6.7,0-12.2-5.4-12.2-12.2c0-6.7,5.4-12.2,12.2-12.2c6.7,0,12.2,5.4,12.2,12.2
					C107.2,134.8,101.8,140.2,95,140.2z"/>
				<path id="XMLID7_608_" class="sta35" d="M95,115.9c-6.7,0-12.2,5.4-12.2,12.2c0,6.7,5.4,12.2,12.2,12.2c6.7,0,12.2-5.4,12.2-12.2
					C107.2,121.4,101.8,115.9,95,115.9z M95,139.9c-6.5,0-11.8-5.3-11.8-11.8c0-6.5,5.3-11.8,11.8-11.8c6.5,0,11.8,5.3,11.8,11.8
					C106.9,134.6,101.6,139.9,95,139.9z"/>
				<path id="XMLID7_605_" class="sta36" d="M95,116.3c-6.5,0-11.8,5.3-11.8,11.8c0,6.5,5.3,11.8,11.8,11.8c6.5,0,11.8-5.3,11.8-11.8
					C106.9,121.6,101.6,116.3,95,116.3z M95,139.6c-6.3,0-11.5-5.1-11.5-11.5c0-6.3,5.1-11.5,11.5-11.5c6.3,0,11.5,5.1,11.5,11.5
					C106.5,134.4,101.4,139.6,95,139.6z"/>
				<path id="XMLID7_602_" class="sta37" d="M95,116.6c-6.3,0-11.5,5.1-11.5,11.5c0,6.3,5.1,11.5,11.5,11.5c6.3,0,11.5-5.1,11.5-11.5
					C106.5,121.8,101.4,116.6,95,116.6z M95,139.2c-6.2,0-11.1-5-11.1-11.1c0-6.2,5-11.1,11.1-11.1c6.2,0,11.1,5,11.1,11.1
					C106.2,134.2,101.2,139.2,95,139.2z"/>
				<path id="XMLID7_599_" class="sta38" d="M95,116.9c-6.2,0-11.1,5-11.1,11.1c0,6.2,5,11.1,11.1,11.1c6.2,0,11.1-5,11.1-11.1
					C106.2,121.9,101.2,116.9,95,116.9z M95,138.9c-6,0-10.8-4.8-10.8-10.8c0-6,4.8-10.8,10.8-10.8c6,0,10.8,4.8,10.8,10.8
					C105.8,134.1,101,138.9,95,138.9z"/>
				<path id="XMLID7_596_" class="sta39" d="M95,117.3c-6,0-10.8,4.8-10.8,10.8c0,6,4.8,10.8,10.8,10.8c6,0,10.8-4.8,10.8-10.8
					C105.8,122.1,101,117.3,95,117.3z M95,138.6c-5.8,0-10.5-4.7-10.5-10.5c0-5.8,4.7-10.5,10.5-10.5c5.8,0,10.5,4.7,10.5,10.5
					C105.5,133.9,100.8,138.6,95,138.6z"/>
				<path id="XMLID7_593_" class="sta40" d="M95,117.6c-5.8,0-10.5,4.7-10.5,10.5c0,5.8,4.7,10.5,10.5,10.5c5.8,0,10.5-4.7,10.5-10.5
					C105.5,122.3,100.8,117.6,95,117.6z M95,138.2c-5.6,0-10.1-4.5-10.1-10.1c0-5.6,4.5-10.1,10.1-10.1c5.6,0,10.1,4.5,10.1,10.1
					C105.2,133.7,100.6,138.2,95,138.2z"/>
				<path id="XMLID7_590_" class="sta41" d="M95,118c-5.6,0-10.1,4.5-10.1,10.1c0,5.6,4.5,10.1,10.1,10.1c5.6,0,10.1-4.5,10.1-10.1
					C105.2,122.5,100.6,118,95,118z M95,137.9c-5.4,0-9.8-4.4-9.8-9.8c0-5.4,4.4-9.8,9.8-9.8c5.4,0,9.8,4.4,9.8,9.8
					C104.8,133.5,100.4,137.9,95,137.9z"/>
				<path id="XMLID7_587_" class="sta42" d="M95,118.3c-5.4,0-9.8,4.4-9.8,9.8c0,5.4,4.4,9.8,9.8,9.8c5.4,0,9.8-4.4,9.8-9.8
					C104.8,122.7,100.4,118.3,95,118.3z M95,137.5c-5.2,0-9.5-4.2-9.5-9.5c0-5.2,4.2-9.5,9.5-9.5c5.2,0,9.5,4.2,9.5,9.5
					C104.5,133.3,100.3,137.5,95,137.5z"/>
				<path id="XMLID7_584_" class="sta43" d="M95,118.6c-5.2,0-9.5,4.2-9.5,9.5c0,5.2,4.2,9.5,9.5,9.5c5.2,0,9.5-4.2,9.5-9.5
					C104.5,122.9,100.3,118.6,95,118.6z M95,137.2c-5,0-9.1-4.1-9.1-9.1c0-5,4.1-9.1,9.1-9.1c5,0,9.1,4.1,9.1,9.1
					C104.2,133.1,100.1,137.2,95,137.2z"/>
				<path id="XMLID7_581_" class="sta44" d="M95,119c-5,0-9.1,4.1-9.1,9.1c0,5,4.1,9.1,9.1,9.1c5,0,9.1-4.1,9.1-9.1
					C104.2,123.1,100.1,119,95,119z M95,136.9c-4.8,0-8.8-3.9-8.8-8.8c0-4.8,3.9-8.8,8.8-8.8c4.8,0,8.8,3.9,8.8,8.8
					C103.8,132.9,99.9,136.9,95,136.9z"/>
				<path id="XMLID7_578_" class="sta45" d="M95,119.3c-4.8,0-8.8,3.9-8.8,8.8c0,4.8,3.9,8.8,8.8,8.8c4.8,0,8.8-3.9,8.8-8.8
					C103.8,123.2,99.9,119.3,95,119.3z M95,136.5c-4.7,0-8.4-3.8-8.4-8.4c0-4.7,3.8-8.4,8.4-8.4c4.7,0,8.4,3.8,8.4,8.4
					C103.5,132.8,99.7,136.5,95,136.5z"/>
				<path id="XMLID7_575_" class="sta46" d="M95,119.6c-4.7,0-8.4,3.8-8.4,8.4c0,4.7,3.8,8.4,8.4,8.4c4.7,0,8.4-3.8,8.4-8.4
					C103.5,123.4,99.7,119.6,95,119.6z M95,136.2c-4.5,0-8.1-3.6-8.1-8.1c0-4.5,3.6-8.1,8.1-8.1c4.5,0,8.1,3.6,8.1,8.1
					C103.1,132.6,99.5,136.2,95,136.2z"/>
				<path id="XMLID7_572_" class="sta47" d="M95,120c-4.5,0-8.1,3.6-8.1,8.1c0,4.5,3.6,8.1,8.1,8.1c4.5,0,8.1-3.6,8.1-8.1
					C103.1,123.6,99.5,120,95,120z M95,135.9c-4.3,0-7.8-3.5-7.8-7.8c0-4.3,3.5-7.8,7.8-7.8c4.3,0,7.8,3.5,7.8,7.8
					C102.8,132.4,99.3,135.9,95,135.9z"/>
				<path id="XMLID7_569_" class="sta48" d="M95,120.3c-4.3,0-7.8,3.5-7.8,7.8c0,4.3,3.5,7.8,7.8,7.8c4.3,0,7.8-3.5,7.8-7.8
					C102.8,123.8,99.3,120.3,95,120.3z M95,135.5c-4.1,0-7.4-3.3-7.4-7.4c0-4.1,3.3-7.4,7.4-7.4c4.1,0,7.4,3.3,7.4,7.4
					C102.5,132.2,99.1,135.5,95,135.5z"/>
				<path id="XMLID7_566_" class="sta49" d="M95,120.7c-4.1,0-7.4,3.3-7.4,7.4c0,4.1,3.3,7.4,7.4,7.4c4.1,0,7.4-3.3,7.4-7.4
					C102.5,124,99.1,120.7,95,120.7z M95,135.2c-3.9,0-7.1-3.2-7.1-7.1c0-3.9,3.2-7.1,7.1-7.1c3.9,0,7.1,3.2,7.1,7.1
					C102.1,132,99,135.2,95,135.2z"/>
				<path id="XMLID7_563_" class="sta50" d="M95,121c-3.9,0-7.1,3.2-7.1,7.1c0,3.9,3.2,7.1,7.1,7.1c3.9,0,7.1-3.2,7.1-7.1
					C102.1,124.2,99,121,95,121z M95,134.8c-3.7,0-6.8-3-6.8-6.8c0-3.7,3-6.8,6.8-6.8c3.7,0,6.8,3,6.8,6.8
					C101.8,131.8,98.8,134.8,95,134.8z"/>
				<path id="XMLID7_560_" class="sta51" d="M95,121.3c-3.7,0-6.8,3-6.8,6.8c0,3.7,3,6.8,6.8,6.8c3.7,0,6.8-3,6.8-6.8
					C101.8,124.4,98.8,121.3,95,121.3z M95,134.5c-3.5,0-6.4-2.9-6.4-6.4c0-3.5,2.9-6.4,6.4-6.4c3.5,0,6.4,2.9,6.4,6.4
					C101.5,131.6,98.6,134.5,95,134.5z"/>
				<path id="XMLID7_557_" class="sta52" d="M95,121.7c-3.5,0-6.4,2.9-6.4,6.4c0,3.5,2.9,6.4,6.4,6.4c3.5,0,6.4-2.9,6.4-6.4
					C101.5,124.5,98.6,121.7,95,121.7z M95,134.2c-3.4,0-6.1-2.7-6.1-6.1c0-3.4,2.7-6.1,6.1-6.1c3.4,0,6.1,2.7,6.1,6.1
					C101.1,131.4,98.4,134.2,95,134.2z"/>
				<path id="XMLID7_554_" class="sta53" d="M95,122c-3.4,0-6.1,2.7-6.1,6.1c0,3.4,2.7,6.1,6.1,6.1c3.4,0,6.1-2.7,6.1-6.1
					C101.1,124.7,98.4,122,95,122z M95,133.8c-3.2,0-5.7-2.6-5.7-5.7c0-3.2,2.6-5.7,5.7-5.7c3.2,0,5.7,2.6,5.7,5.7
					C100.8,131.3,98.2,133.8,95,133.8z"/>
				<path id="XMLID7_551_" class="sta54" d="M95,122.3c-3.2,0-5.7,2.6-5.7,5.7c0,3.2,2.6,5.7,5.7,5.7c3.2,0,5.7-2.6,5.7-5.7
					C100.8,124.9,98.2,122.3,95,122.3z M95,133.5c-3,0-5.4-2.4-5.4-5.4c0-3,2.4-5.4,5.4-5.4c3,0,5.4,2.4,5.4,5.4
					C100.4,131.1,98,133.5,95,133.5z"/>
				<path id="XMLID7_548_" class="sta55" d="M95,122.7c-3,0-5.4,2.4-5.4,5.4c0,3,2.4,5.4,5.4,5.4c3,0,5.4-2.4,5.4-5.4
					C100.4,125.1,98,122.7,95,122.7z M95,133.2c-2.8,0-5.1-2.3-5.1-5.1c0-2.8,2.3-5.1,5.1-5.1c2.8,0,5.1,2.3,5.1,5.1
					C100.1,130.9,97.8,133.2,95,133.2z"/>
				<path id="XMLID7_545_" class="sta56" d="M95,123c-2.8,0-5.1,2.3-5.1,5.1c0,2.8,2.3,5.1,5.1,5.1c2.8,0,5.1-2.3,5.1-5.1
					C100.1,125.3,97.8,123,95,123z M95,132.8c-2.6,0-4.7-2.1-4.7-4.7c0-2.6,2.1-4.7,4.7-4.7c2.6,0,4.7,2.1,4.7,4.7
					C99.8,130.7,97.6,132.8,95,132.8z"/>
				<path id="XMLID7_542_" class="sta57" d="M95,123.4c-2.6,0-4.7,2.1-4.7,4.7c0,2.6,2.1,4.7,4.7,4.7c2.6,0,4.7-2.1,4.7-4.7
					C99.8,125.5,97.6,123.4,95,123.4z M95,132.5c-2.4,0-4.4-2-4.4-4.4c0-2.4,2-4.4,4.4-4.4c2.4,0,4.4,2,4.4,4.4
					C99.4,130.5,97.5,132.5,95,132.5z"/>
				<path id="XMLID7_539_" class="sta58" d="M95,123.7c-2.4,0-4.4,2-4.4,4.4c0,2.4,2,4.4,4.4,4.4c2.4,0,4.4-2,4.4-4.4
					C99.4,125.7,97.5,123.7,95,123.7z M95,132.1c-2.2,0-4.1-1.8-4.1-4.1c0-2.2,1.8-4.1,4.1-4.1c2.2,0,4.1,1.8,4.1,4.1
					C99.1,130.3,97.3,132.1,95,132.1z"/>
				<path id="XMLID7_536_" class="sta59" d="M95,124c-2.2,0-4.1,1.8-4.1,4.1c0,2.2,1.8,4.1,4.1,4.1c2.2,0,4.1-1.8,4.1-4.1
					C99.1,125.9,97.3,124,95,124z M95,131.8c-2,0-3.7-1.7-3.7-3.7c0-2.1,1.7-3.7,3.7-3.7c2.1,0,3.7,1.7,3.7,3.7
					C98.8,130.1,97.1,131.8,95,131.8z"/>
				<path id="XMLID7_533_" class="sta60" d="M95,124.4c-2,0-3.7,1.7-3.7,3.7c0,2.1,1.7,3.7,3.7,3.7c2.1,0,3.7-1.7,3.7-3.7
					C98.8,126,97.1,124.4,95,124.4z M95,131.5c-1.9,0-3.4-1.5-3.4-3.4c0-1.9,1.5-3.4,3.4-3.4c1.9,0,3.4,1.5,3.4,3.4
					C98.4,130,96.9,131.5,95,131.5z"/>
				<path id="XMLID7_530_" class="sta61" d="M95,124.7c-1.9,0-3.4,1.5-3.4,3.4c0,1.9,1.5,3.4,3.4,3.4c1.9,0,3.4-1.5,3.4-3.4
					C98.4,126.2,96.9,124.7,95,124.7z M95,131.1c-1.7,0-3-1.4-3-3c0-1.7,1.4-3,3-3c1.7,0,3,1.4,3,3C98.1,129.8,96.7,131.1,95,131.1z
					"/>
				<path id="XMLID7_527_" class="sta62" d="M95,125c-1.7,0-3,1.4-3,3c0,1.7,1.4,3,3,3c1.7,0,3-1.4,3-3C98.1,126.4,96.7,125,95,125z
					 M95,130.8c-1.5,0-2.7-1.2-2.7-2.7c0-1.5,1.2-2.7,2.7-2.7c1.5,0,2.7,1.2,2.7,2.7C97.7,129.6,96.5,130.8,95,130.8z"/>
				<path id="XMLID7_524_" class="sta63" d="M95,125.4c-1.5,0-2.7,1.2-2.7,2.7c0,1.5,1.2,2.7,2.7,2.7c1.5,0,2.7-1.2,2.7-2.7
					C97.7,126.6,96.5,125.4,95,125.4z M95,130.5c-1.3,0-2.4-1.1-2.4-2.4c0-1.3,1.1-2.4,2.4-2.4c1.3,0,2.4,1.1,2.4,2.4
					C97.4,129.4,96.3,130.5,95,130.5z"/>
				<path id="XMLID7_521_" class="sta64" d="M95,125.7c-1.3,0-2.4,1.1-2.4,2.4c0,1.3,1.1,2.4,2.4,2.4c1.3,0,2.4-1.1,2.4-2.4
					C97.4,126.8,96.3,125.7,95,125.7z M95,130.1c-1.1,0-2-0.9-2-2c0-1.1,0.9-2,2-2c1.1,0,2,0.9,2,2C97.1,129.2,96.2,130.1,95,130.1z
					"/>
				<path id="XMLID7_518_" class="sta65" d="M95,126.1c-1.1,0-2,0.9-2,2c0,1.1,0.9,2,2,2c1.1,0,2-0.9,2-2
					C97.1,127,96.2,126.1,95,126.1z M95,129.8c-0.9,0-1.7-0.8-1.7-1.7c0-0.9,0.8-1.7,1.7-1.7c0.9,0,1.7,0.8,1.7,1.7
					C96.7,129,96,129.8,95,129.8z"/>
				<path id="XMLID7_515_" class="sta66" d="M95,126.4c-0.9,0-1.7,0.8-1.7,1.7c0,0.9,0.8,1.7,1.7,1.7c0.9,0,1.7-0.8,1.7-1.7
					C96.7,127.2,96,126.4,95,126.4z M95,129.4c-0.7,0-1.3-0.6-1.3-1.4c0-0.7,0.6-1.4,1.3-1.4c0.7,0,1.4,0.6,1.4,1.4
					C96.4,128.8,95.8,129.4,95,129.4z"/>
				<path id="XMLID7_512_" class="sta67" d="M95,126.7c-0.7,0-1.3,0.6-1.3,1.4c0,0.7,0.6,1.4,1.3,1.4c0.7,0,1.4-0.6,1.4-1.4
					C96.4,127.3,95.8,126.7,95,126.7z M95,129.1c-0.6,0-1-0.5-1-1c0-0.6,0.5-1,1-1c0.6,0,1,0.5,1,1C96.1,128.6,95.6,129.1,95,129.1z
					"/>
				<path id="XMLID7_509_" class="sta68" d="M95,127.1c-0.6,0-1,0.5-1,1c0,0.6,0.5,1,1,1c0.6,0,1-0.5,1-1
					C96.1,127.5,95.6,127.1,95,127.1z M95,128.8c-0.4,0-0.7-0.3-0.7-0.7c0-0.4,0.3-0.7,0.7-0.7c0.4,0,0.7,0.3,0.7,0.7
					C95.7,128.5,95.4,128.8,95,128.8z"/>
				<path id="XMLID7_506_" class="sta69" d="M95,127.4c-0.4,0-0.7,0.3-0.7,0.7c0,0.4,0.3,0.7,0.7,0.7c0.4,0,0.7-0.3,0.7-0.7
					C95.7,127.7,95.4,127.4,95,127.4z M95,128.4c-0.2,0-0.3-0.2-0.3-0.3c0-0.2,0.2-0.3,0.3-0.3c0.2,0,0.3,0.2,0.3,0.3
					C95.4,128.3,95.2,128.4,95,128.4z"/>
				<circle id="XMLID7_505_" class="sta70" cx="95" cy="128.1" r="0.3"/>
			</g>
			<path id="XMLID7_501_" class="sta71" d="M95,148.7c-11.4,0-20.6-9.2-20.6-20.6c0-11.4,9.2-20.6,20.6-20.6
				c11.4,0,20.6,9.2,20.6,20.6C115.7,139.5,106.4,148.7,95,148.7z M95,110.2c-9.9,0-17.9,8-17.9,17.9c0,9.9,8,17.9,17.9,17.9
				c9.9,0,17.9-8,17.9-17.9C112.9,118.2,104.9,110.2,95,110.2z"/>
		</g>
	</g>
</g>
</svg>
