<?xml version="1.0" encoding="utf-8"?>
<svg viewBox="0 0 148 148" width="148" height="148" hape-rendering="geometricPrecision" xmlns:a="http://www.adobe.com/svg10-extensions" xmlns="http://www.w3.org/2000/svg" xmlns:xlink="http://www.w3.org/1999/xlink">
<style type="text/css">
	.st330{fill:#036EB8;}
	.st331{fill:#FFFFFF;}
	.st332{fill:#046FB9;}
	.st33{fill:#0570B9;}
	.st34{fill:#0571BA;}
	.st35{fill:#0672BB;}
	.st36{fill:#0773BC;}
	.st37{fill:#0874BC;}
	.st38{fill:#0875BD;}
	.st39{fill:#0976BE;}
	.st3310{fill:#0A77BE;}
	.st3311{fill:#0B78BF;}
	.st3312{fill:#0B79C0;}
	.st3313{fill:#0C7AC1;}
	.st3314{fill:#0D7BC1;}
	.st3315{fill:#0E7CC2;}
	.st3316{fill:#0F7DC3;}
	.st3317{fill:#0F7EC3;}
	.st3318{fill:#107FC4;}
	.st3319{fill:#1180C5;}
	.st3320{fill:#1281C6;}
	.st3321{fill:#1282C6;}
	.st3322{fill:#1383C7;}
	.st3323{fill:#1484C8;}
	.st3324{fill:#1585C8;}
	.st3325{fill:#1586C9;}
	.st3326{fill:#1687CA;}
	.st3327{fill:#1788CB;}
	.st3328{fill:#1889CB;}
	.st3329{fill:#198BCC;}
	.st330{fill:#198CCD;}
	.st331{fill:#1A8DCD;}
	.st332{fill:#1B8ECE;}
	.st333{fill:#1C8FCF;}
	.st334{fill:#1C90D0;}
	.st335{fill:#1D91D0;}
	.st336{fill:#1E92D1;}
	.st337{fill:#1F93D2;}
	.st338{fill:#1F94D2;}
	.st339{fill:#2095D3;}
	.st340{fill:#2196D4;}
	.st341{fill:#2297D5;}
	.st342{fill:#2298D5;}
	.st343{fill:#2399D6;}
	.st344{fill:#249AD7;}
	.st345{fill:#259BD7;}
	.st346{fill:#269CD8;}
	.st347{fill:#269DD9;}
	.st348{fill:#279EDA;}
	.st349{fill:#289FDA;}
	.st350{fill:#29A0DB;}
	.st351{fill:#29A1DC;}
	.st352{fill:#2AA2DC;}
	.st353{fill:#2BA3DD;}
	.st354{fill:#2CA4DE;}
	.st355{fill:#2CA5DF;}
	.st356{fill:#2DA6DF;}
	.st357{fill:#2EA7E0;}
	.rg {
		transform-origin:50% 50%;
	}
</style>
<g>
	<g id="XMLID_657_">
		<path id="XMLID_658_" class="st330" d="M74.3,148.6c-41,0-74.3-33.3-74.3-74.3S33.3-0.1,74.3-0.1s74.3,33.3,74.3,74.3
			S115.3,148.6,74.3,148.6z M74.3,8.8C38.2,8.8,8.7,38.2,8.7,74.2s29.4,65.6,65.6,65.6s65.6-29.4,65.6-65.6S110.5,8.8,74.3,8.8z"/>
	</g>
	<g id="xz" class="rg">
		<path id="XMLID_4_" class="st330" d="M74.3,73.9L74.3,73.9C70.7,70.3,94.2,30,97.9,26.3l0,0c3.7-3.7,9.7-3.8,13.3-0.2L122.2,37
			c3.6,3.6,3.5,9.6-0.2,13.3l0,0C118.2,54.1,77.9,77.5,74.3,73.9z"/>
		<path id="XMLID_3_" class="st330" d="M74.3,73.9L74.3,73.9C70.7,77.5,30.4,54,26.6,50.3l0,0c-3.7-3.7-3.8-9.7-0.2-13.3L37.3,26
			c3.6-3.6,9.6-3.5,13.3,0.2l0,0C54.4,30,77.9,70.3,74.3,73.9z"/>
		<path id="XMLID_2_" class="st330" d="M74.3,73.9L74.3,73.9c3.6,3.6-19.9,43.9-23.6,47.7l0,0c-3.7,3.7-9.7,3.8-13.3,0.2l-10.9-10.9
			c-3.6-3.6-3.5-9.6,0.2-13.3l0,0C30.4,93.8,70.7,70.3,74.3,73.9z"/>
		<path id="XMLID_1_" class="st330" d="M74.3,73.9L74.3,73.9c3.6-3.6,43.9,19.9,47.7,23.6l0,0c3.7,3.7,3.8,9.7,0.2,13.3l-10.9,10.9
			c-3.6,3.6-9.6,3.5-13.3-0.2l0,0C94.2,117.8,70.7,77.5,74.3,73.9z"/>
	</g>
	<g id="XMLID_66_">
		<path id="XMLID_75_" class="st331" d="M74.2,90.8c-8.9,0-16.3-7.3-16.3-16.3s7.4-16.4,16.4-16.4s16.4,7.4,16.4,16.4
			C90.6,83.5,83.3,90.8,74.2,90.8z"/>
		<g id="XMLID_437_">
			<path id="XMLID_74_" class="st330" d="M63.5,63.7c0.1-0.1,0.2-0.2,0.3-0.2C63.6,63.5,63.5,63.6,63.5,63.7z"/>
			<path id="XMLID_73_" class="st330" d="M59,74.5L59,74.5c0-4.1,1.6-7.8,4.3-10.5C60.6,66.7,59,70.4,59,74.5z"/>
			<path id="XMLID_72_" class="st330" d="M74.2,59.3L74.2,59.3c8.4,0,15.3,6.8,15.3,15.3l0,0C89.5,66.1,82.7,59.3,74.2,59.3z"/>
			<path id="XMLID_71_" class="st330" d="M87,83L87,83L87,83z"/>
			<path id="XMLID_70_" class="st330" d="M74.2,89.7L74.2,89.7c5.2,0,9.6-2.5,12.4-6.4C84,87.2,79.4,89.7,74.2,89.7z"/>
			<path id="XMLID_645_" class="st330" d="M89.5,75.6c0,0.1,0,0.3,0,0.4C89.4,75.9,89.4,75.8,89.5,75.6z"/>
			<path id="XMLID_642_" class="st330" d="M74.2,59.3c-4.1,0-7.8,1.6-10.5,4.3c-0.1,0.1-0.2,0.2-0.3,0.2c-0.1,0.1-0.2,0.2-0.2,0.3
				c-2.6,2.8-4.3,6.4-4.3,10.5c0,8.4,6.9,15.3,15.3,15.3c5.2,0,9.6-2.5,12.4-6.4c0.1-0.1,0.2-0.2,0.2-0.3c0,0,0,0,0-0.1
				c1.4-2,2.2-4.4,2.5-6.9c0-0.1,0-0.3,0-0.4c0-0.4,0.1-0.8,0.1-1.2C89.5,66.1,82.7,59.3,74.2,59.3z M74.2,89.5c-8.2,0-15-6.7-15-15
				s6.8-15,15-15s15,6.6,15,15C89.2,82.8,82.6,89.5,74.2,89.5z"/>
			<path id="XMLID_639_" class="st332" d="M74.2,59.6c-8.2,0-15,6.7-15,15s6.8,15,15,15s15-6.7,15-15C89.2,66.2,82.6,59.6,74.2,59.6z
				 M74.2,89.2c-8.1,0-14.7-6.5-14.7-14.7s6.6-14.7,14.7-14.7s14.7,6.6,14.7,14.7C89,82.7,82.4,89.2,74.2,89.2z"/>
			<path id="XMLID_636_" class="st33" d="M74.2,59.8c-8.1,0-14.7,6.5-14.7,14.7s6.6,14.7,14.7,14.7s14.7-6.5,14.7-14.7
				C89,66.4,82.4,59.8,74.2,59.8z M74.2,88.9c-7.9,0-14.5-6.4-14.5-14.5s6.5-14.5,14.5-14.5s14.5,6.6,14.5,14.6S82.3,88.9,74.2,88.9
				z"/>
			<path id="XMLID_633_" class="st34" d="M74.2,60.1c-7.9,0-14.5,6.4-14.5,14.4c0,7.9,6.5,14.5,14.5,14.5s14.5-6.5,14.5-14.5
				S82.3,60.1,74.2,60.1z M74.2,88.7c-7.8,0-14.2-6.4-14.2-14.2s6.4-14.2,14.2-14.2s14.2,6.4,14.2,14.2S82.1,88.7,74.2,88.7z"/>
			<path id="XMLID_630_" class="st35" d="M74.2,60.4c-7.8,0-14.2,6.4-14.2,14.2s6.4,14.2,14.2,14.2s14.2-6.4,14.2-14.3
				S82.1,60.4,74.2,60.4z M74.2,88.4c-7.6,0-13.9-6.2-13.9-13.9s6.3-13.9,13.9-13.9s13.9,6.3,13.9,13.9C88.2,82.2,82,88.4,74.2,88.4
				z"/>
			<path id="XMLID_627_" class="st36" d="M74.2,60.6c-7.6,0-13.9,6.3-13.9,13.9s6.3,13.9,13.9,13.9s13.9-6.3,13.9-13.9
				C88.2,66.8,82,60.6,74.2,60.6z M74.2,88.1c-7.5,0-13.7-6.2-13.7-13.7s6.2-13.7,13.7-13.7s13.7,6.2,13.7,13.7
				C87.9,82.1,81.8,88.1,74.2,88.1z"/>
			<path id="XMLID_624_" class="st37" d="M74.2,60.9c-7.5,0-13.7,6.2-13.7,13.7s6.2,13.7,13.7,13.7s13.7-6.2,13.7-13.8
				C87.9,67,81.8,60.9,74.2,60.9z M74.2,87.9c-7.4,0-13.3-6.1-13.3-13.4s6-13.4,13.4-13.4c7.5,0,13.4,6,13.4,13.4
				S81.7,87.9,74.2,87.9z"/>
			<path id="XMLID_621_" class="st38" d="M74.2,61.2c-7.4,0-13.3,6-13.3,13.4S66.9,88,74.3,88c7.5,0,13.4-6,13.4-13.4
				S81.7,61.2,74.2,61.2z M74.2,87.6c-7.3,0-13.1-5.9-13.1-13.1S67,61.4,74.2,61.4s13.3,5.9,13.3,13.1
				C87.5,81.8,81.5,87.6,74.2,87.6z"/>
			<path id="XMLID_618_" class="st39" d="M74.2,61.4c-7.3,0-13.1,5.9-13.1,13.1S67,87.6,74.2,87.6s13.3-5.8,13.3-13.1
				C87.5,67.3,81.5,61.4,74.2,61.4z M74.2,87.3c-7.2,0-12.8-5.8-12.8-12.8s5.8-12.9,12.8-12.9s13,5.8,13,12.9S81.4,87.3,74.2,87.3z"
				/>
			<path id="XMLID_615_" class="st3310" d="M74.2,61.6c-7.2,0-12.8,5.8-12.8,12.8c0,7.1,5.8,12.8,12.8,12.8s13-5.6,13-12.7
				S81.4,61.6,74.2,61.6z M74.2,87c-7,0-12.6-5.7-12.6-12.6s5.7-12.6,12.6-12.6s12.7,5.7,12.7,12.6S81.2,87,74.2,87z"/>
			<path id="XMLID_612_" class="st3311" d="M74.2,61.9c-7,0-12.6,5.7-12.6,12.6s5.7,12.6,12.6,12.6s12.7-5.6,12.7-12.6
				C86.9,67.6,81.2,61.9,74.2,61.9z M74.2,86.9c-6.8,0-12.3-5.6-12.3-12.3c0-6.8,5.6-12.3,12.3-12.3c6.9,0,12.3,5.6,12.3,12.3
				C86.6,81.3,81.1,86.9,74.2,86.9z"/>
			<path id="XMLID_609_" class="st3312" d="M74.2,62.2c-6.8,0-12.3,5.5-12.3,12.3s5.6,12.3,12.3,12.3c6.9,0,12.3-5.6,12.3-12.3
				C86.6,67.7,81.1,62.2,74.2,62.2z M74.2,86.6c-6.7,0-12-5.4-12-12s5.4-12,12-12s12,5.4,12,12C86.4,81.2,80.9,86.6,74.2,86.6z"/>
			<path id="XMLID_606_" class="st3313" d="M74.2,62.4c-6.7,0-12,5.4-12,12s5.4,12,12,12s12-5.4,12-12S80.9,62.4,74.2,62.4z
				 M74.2,86.3c-6.6,0-11.8-5.3-11.8-11.8s5.3-11.8,11.8-11.8S86,68,86,74.5S80.8,86.3,74.2,86.3z"/>
			<path id="XMLID_603_" class="st3314" d="M74.2,62.7c-6.6,0-11.8,5.3-11.8,11.8s5.3,11.8,11.8,11.8s11.9-5.2,11.9-11.8
				C86.1,68,80.8,62.7,74.2,62.7z M74.2,86.1c-6.4,0-11.5-5.2-11.5-11.5c0-6.4,5.2-11.5,11.5-11.5c6.4,0,11.5,5.2,11.5,11.5
				C85.8,80.9,80.6,86.1,74.2,86.1z"/>
			<path id="XMLID_600_" class="st3315" d="M74.2,63c-6.4,0-11.5,5.2-11.5,11.5c0,6.4,5.2,11.5,11.5,11.5c6.4,0,11.5-5.2,11.5-11.5
				C85.8,68.2,80.6,63,74.2,63z M74.2,85.8c-6.3,0-11.2-5.1-11.2-11.2c0-6.3,5.1-11.2,11.2-11.2s11.3,5,11.3,11.2
				S80.5,85.8,74.2,85.8z"/>
			<path id="XMLID_597_" class="st3316" d="M74.2,63.2c-6.3,0-11.2,5.1-11.2,11.2s5.1,11.2,11.2,11.2s11.3-5,11.3-11.1
				C85.6,68.3,80.5,63.2,74.2,63.2z M74.2,85.5c-6.1,0-11-5-11-11s5-11,11-11s11,5,11,11C85.3,80.6,80.3,85.5,74.2,85.5z"/>
			<path id="XMLID_594_" class="st3317" d="M74.2,63.5c-6.1,0-11,5-11,11c0,6.1,5,11,11,11s11-5,11-11C85.3,68.5,80.3,63.5,74.2,63.5z
				 M74.2,85.3c-6,0-10.7-4.8-10.7-10.7c0-6,4.8-10.7,10.7-10.7S85,68.6,85,74.5S80.2,85.3,74.2,85.3z"/>
			<path id="XMLID_591_" class="st3318" d="M74.2,63.8c-6,0-10.7,4.8-10.7,10.7c0,6,4.8,10.7,10.7,10.7S85,80.4,85,74.5
				S80.2,63.8,74.2,63.8z M74.2,85c-5.8,0-10.4-4.7-10.4-10.4s4.7-10.4,10.4-10.4c5.8,0,10.5,4.7,10.5,10.4S80,85,74.2,85z"/>
			<path id="XMLID_588_" class="st3319" d="M74.2,64c-5.8,0-10.4,4.7-10.4,10.4s4.7,10.4,10.4,10.4c5.8,0,10.5-4.6,10.5-10.3
				S80,64,74.2,64z M74.2,84.7c-5.7,0-10.2-4.6-10.2-10.1c0-5.7,4.6-10.2,10.2-10.2s10.3,4.5,10.3,10.1S79.9,84.7,74.2,84.7z"/>
			<path id="XMLID_585_" class="st3320" d="M74.2,64.3c-5.7,0-10.2,4.6-10.2,10.2c0,5.7,4.6,10.1,10.2,10.1s10.3-4.5,10.3-10.1
				S79.9,64.3,74.2,64.3z M74.2,84.5c-5.4,0-9.9-4.5-9.9-10s4.5-9.9,9.9-9.9s9.9,4.5,9.9,9.9C84.2,80,79.8,84.5,74.2,84.5z"/>
			<path id="XMLID_582_" class="st3321" d="M74.2,64.6c-5.5,0-9.9,4.5-9.9,9.9c0,5.5,4.5,9.9,9.9,9.9s9.9-4.5,9.9-9.9
				C84.2,69.1,79.8,64.6,74.2,64.6z M74.2,84.2c-5.4,0-9.6-4.3-9.6-9.6c0-5.4,4.3-9.6,9.6-9.6c5.4,0,9.6,4.3,9.6,9.6
				C84,79.8,79.6,84.2,74.2,84.2z"/>
			<path id="XMLID_579_" class="st3322" d="M74.2,64.9c-5.4,0-9.6,4.3-9.6,9.6s4.3,9.6,9.6,9.6c5.4,0,9.6-4.3,9.6-9.6
				C84,69.2,79.6,64.9,74.2,64.9z M74.2,83.9c-5.2,0-9.3-4.2-9.3-9.3s4.2-9.3,9.3-9.3s9.3,4.2,9.3,9.3
				C83.7,79.7,79.5,83.9,74.2,83.9z"/>
			<path id="XMLID_576_" class="st3323" d="M74.2,65.1c-5.2,0-9.3,4.2-9.3,9.3c0,5.2,4.2,9.3,9.3,9.3s9.3-4.2,9.3-9.3
				C83.7,69.4,79.5,65.1,74.2,65.1z M74.2,83.6c-5.1,0-9.1-4.1-9.1-9.1s4.1-9.1,9.1-9.1s9.1,4.1,9.1,9.1S79.3,83.6,74.2,83.6z"/>
			<path id="XMLID_573_" class="st3324" d="M74.2,65.4c-5.1,0-9.1,4.1-9.1,9.1c0,5.1,4.1,9.1,9.1,9.1s9.1-4.1,9.1-9.1
				C83.4,69.5,79.3,65.4,74.2,65.4z M74.2,83.4c-4.9,0-8.8-4-8.8-8.8c0-4.9,4-8.8,8.8-8.8s8.8,4,8.8,8.8
				C83.1,79.4,79.2,83.4,74.2,83.4z"/>
			<path id="XMLID_570_" class="st3325" d="M74.2,65.7c-4.9,0-8.8,4-8.8,8.8c0,4.9,4,8.8,8.8,8.8s8.8-4,8.8-8.8
				C83.1,69.7,79.2,65.7,74.2,65.7z M74.2,83.1c-4.8,0-8.5-3.9-8.5-8.5c0-4.8,3.9-8.5,8.5-8.5c4.8,0,8.5,3.9,8.5,8.5
				C82.9,79.2,79,83.1,74.2,83.1z"/>
			<path id="XMLID_567_" class="st3326" d="M74.2,65.9c-4.8,0-8.5,3.9-8.5,8.5c0,4.8,3.9,8.5,8.5,8.5c4.8,0,8.5-3.9,8.5-8.5
				C82.9,69.8,79,65.9,74.2,65.9z M74.2,82.8c-4.6,0-8.3-3.7-8.3-8.3c0-4.6,3.7-8.3,8.3-8.3c4.6,0,8.3,3.7,8.3,8.3
				C82.6,79.1,78.9,82.8,74.2,82.8z"/>
			<path id="XMLID_564_" class="st3327" d="M74.2,66.2c-4.6,0-8.3,3.7-8.3,8.3c0,4.6,3.7,8.3,8.3,8.3c4.6,0,8.3-3.7,8.3-8.3
				C82.6,70,78.9,66.2,74.2,66.2z M74.2,82.6c-4.5,0-8-3.6-8-8c0-4.5,3.6-8,8-8s8,3.6,8,8C82.3,79,78.7,82.6,74.2,82.6z"/>
			<path id="XMLID_561_" class="st3328" d="M74.2,66.5c-4.5,0-8,3.6-8,8c0,4.5,3.6,8,8,8s8-3.6,8-8C82.3,70.1,78.7,66.5,74.2,66.5z
				 M74.2,82.3c-4.3,0-7.7-3.5-7.7-7.7c0-4.3,3.5-7.7,7.7-7.7s7.7,3.5,7.7,7.7C82,78.8,78.6,82.3,74.2,82.3z"/>
			<path id="XMLID_558_" class="st3329" d="M74.2,66.7c-4.3,0-7.7,3.5-7.7,7.7s3.5,7.7,7.7,7.7s7.7-3.5,7.7-7.7
				C82.1,70.2,78.6,66.7,74.2,66.7z M74.2,82c-4.2,0-7.5-3.4-7.5-7.5s3.4-7.5,7.5-7.5c4.2,0,7.5,3.4,7.5,7.5S78.4,82,74.2,82z"/>
			<path id="XMLID_555_" class="st330" d="M74.2,67c-4.2,0-7.5,3.4-7.5,7.5s3.4,7.5,7.5,7.5c4.2,0,7.5-3.4,7.5-7.5S78.4,67,74.2,67z
				 M74.2,81.8c-4,0-7.3-3.3-7.3-7.2c0-4,3.3-7.2,7.3-7.2s7.3,3.3,7.3,7.2C81.5,78.5,78.3,81.8,74.2,81.8z"/>
			<path id="XMLID_552_" class="st331" d="M74.2,67.3c-4,0-7.3,3.3-7.3,7.2c0,4,3.3,7.2,7.3,7.2s7.3-3.3,7.3-7.2
				C81.5,70.6,78.3,67.3,74.2,67.3z M74.2,81.5c-3.9,0-7-3.1-7-6.9c0-3.9,3.1-6.9,7-6.9s7,3.1,7,6.9S78.1,81.5,74.2,81.5z"/>
			<path id="XMLID_549_" class="st332" d="M74.2,67.6c-3.9,0-7,3.1-7,6.9c0,3.9,3.1,6.9,7,6.9s7-3.1,7-6.9
				C81.3,70.7,78.1,67.6,74.2,67.6z M74.2,81.2c-3.7,0-6.7-3-6.7-6.6s3-6.6,6.7-6.6s6.7,3,6.7,6.6C81,78.2,78,81.2,74.2,81.2z"/>
			<path id="XMLID_546_" class="st333" d="M74.2,67.8c-3.7,0-6.7,3-6.7,6.6s3,6.6,6.7,6.6s6.7-3,6.7-6.6C81,70.8,78,67.8,74.2,67.8z
				 M74.2,80.9c-3.6,0-6.5-2.9-6.5-6.4s2.9-6.4,6.5-6.4s6.5,2.9,6.5,6.4S77.8,80.9,74.2,80.9z"/>
			<path id="XMLID_543_" class="st334" d="M74.2,68.1c-3.6,0-6.5,2.9-6.5,6.4c0,3.6,2.9,6.4,6.5,6.4s6.5-2.9,6.5-6.4
				S77.8,68.1,74.2,68.1z M74.2,80.7c-3.4,0-6.2-2.8-6.2-6.2c0-3.4,2.8-6.2,6.2-6.2s6.2,2.8,6.2,6.2C80.4,77.9,77.7,80.7,74.2,80.7z
				"/>
			<path id="XMLID_540_" class="st335" d="M74.2,68.4c-3.4,0-6.2,2.8-6.2,6.2c0,3.4,2.8,6.2,6.2,6.2s6.2-2.8,6.2-6.2
				C80.4,71.2,77.7,68.4,74.2,68.4z M74.2,80.4c-3.3,0-5.9-2.7-5.9-5.9c0-3.2,2.7-5.9,5.9-5.9c3.3,0,5.9,2.7,5.9,5.9
				C80.1,77.7,77.5,80.4,74.2,80.4z"/>
			<path id="XMLID_537_" class="st336" d="M74.2,68.6c-3.3,0-5.9,2.7-5.9,5.9c0,3.3,2.7,5.9,5.9,5.9c3.3,0,5.9-2.7,5.9-5.9
				S77.5,68.6,74.2,68.6z M74.2,80.1c-3.1,0-5.7-2.5-5.7-5.7s2.5-5.7,5.7-5.7s5.7,2.5,5.7,5.7S77.4,80.1,74.2,80.1z"/>
			<path id="XMLID_534_" class="st337" d="M74.2,68.9c-3.1,0-5.7,2.5-5.7,5.7c0,3.1,2.5,5.7,5.7,5.7s5.7-2.5,5.7-5.7
				S77.4,68.9,74.2,68.9z M74.2,79.9c-3,0-5.4-2.4-5.4-5.4s2.4-5.4,5.4-5.4s5.4,2.4,5.4,5.4C79.6,77.4,77.2,79.9,74.2,79.9z"/>
			<path id="XMLID_531_" class="st338" d="M74.2,69.2c-3,0-5.4,2.4-5.4,5.4s2.4,5.4,5.4,5.4s5.4-2.4,5.4-5.4S77.2,69.2,74.2,69.2z
				 M74.2,79.6c-2.8,0-5.1-2.3-5.1-5.1c0-2.8,2.3-5.1,5.1-5.1s5.1,2.4,5.1,5.1C79.4,77.3,77.1,79.6,74.2,79.6z"/>
			<path id="XMLID_528_" class="st339" d="M74.2,69.4c-2.8,0-5.1,2.3-5.1,5.1s2.3,5.1,5.1,5.1s5.1-2.3,5.1-5.1
				C79.4,71.7,77.1,69.4,74.2,69.4z M74.2,79.3c-2.7,0-4.9-2.2-4.9-4.9s2.2-4.9,4.9-4.9s4.9,2.2,4.9,4.9
				C79.1,77.2,76.9,79.3,74.2,79.3z"/>
			<path id="XMLID_525_" class="st340" d="M74.2,69.7c-2.7,0-4.9,2.2-4.9,4.9c0,2.7,2.2,4.9,4.9,4.9s4.9-2.2,4.9-4.9
				S76.9,69.7,74.2,69.7z M74.2,79.1c-2.5,0-4.6-2.1-4.6-4.6s2.1-4.6,4.6-4.6s4.6,2.1,4.6,4.6S76.8,79.1,74.2,79.1z"/>
			<path id="XMLID_522_" class="st341" d="M74.2,70c-2.5,0-4.6,2.1-4.6,4.6s2.1,4.6,4.6,4.6s4.6-2.1,4.6-4.6S76.8,70,74.2,70z
				 M74.2,78.8c-2.4,0-4.3-1.9-4.3-4.3s1.9-4.3,4.3-4.3s4.3,1.9,4.3,4.3C78.5,76.9,76.6,78.8,74.2,78.8z"/>
			<path id="XMLID_519_" class="st342" d="M74.2,70.3c-2.4,0-4.3,1.9-4.3,4.3s1.9,4.3,4.3,4.3s4.3-1.9,4.3-4.3
				C78.5,72.2,76.6,70.3,74.2,70.3z M74.2,78.5c-2.2,0-4-1.8-4-4s1.8-4,4-4s4,1.8,4,4C78.3,76.7,76.5,78.5,74.2,78.5z"/>
			<path id="XMLID_516_" class="st343" d="M74.2,70.5c-2.2,0-4,1.8-4,4s1.8,4,4,4s4-1.8,4-4C78.3,72.3,76.5,70.5,74.2,70.5z
				 M74.2,78.2c-2.1,0-3.8-1.7-3.8-3.8c0-2.1,1.7-3.8,3.8-3.8c2.1,0,3.8,1.7,3.8,3.8C78,76.6,76.3,78.2,74.2,78.2z"/>
			<path id="XMLID_513_" class="st344" d="M74.2,70.8c-2.1,0-3.8,1.7-3.8,3.8c0,2.1,1.7,3.8,3.8,3.8c2.1,0,3.8-1.7,3.8-3.8
				C78,72.5,76.3,70.8,74.2,70.8z M74.2,78c-1.9,0-3.5-1.6-3.5-3.5s1.6-3.5,3.5-3.5s3.5,1.6,3.5,3.5S76.2,78,74.2,78z"/>
			<path id="XMLID_510_" class="st345" d="M74.2,71.1c-1.9,0-3.5,1.6-3.5,3.5s1.6,3.5,3.5,3.5s3.5-1.6,3.5-3.5
				C77.7,72.6,76.2,71.1,74.2,71.1z M74.2,77.7c-1.8,0-3.2-1.4-3.2-3.2c0-1.8,1.4-3.2,3.2-3.2s3.2,1.4,3.2,3.2
				C77.4,76.3,76,77.7,74.2,77.7z"/>
			<path id="XMLID_507_" class="st346" d="M74.2,71.3c-1.8,0-3.2,1.4-3.2,3.2s1.4,3.2,3.2,3.2s3.2-1.4,3.2-3.2
				C77.5,72.8,76,71.3,74.2,71.3z M74.2,77.4c-1.6,0-3-1.3-3-3c0-1.6,1.3-3,3-3c1.6,0,3,1.3,3,3S75.9,77.4,74.2,77.4z"/>
			<path id="XMLID_504_" class="st347" d="M74.2,71.6c-1.6,0-3,1.3-3,3s1.3,3,3,3c1.6,0,3-1.3,3-3S75.9,71.6,74.2,71.6z M74.2,77.2
				c-1.5,0-2.7-1.2-2.7-2.7s1.2-2.7,2.7-2.7s2.7,1.2,2.7,2.7S75.7,77.2,74.2,77.2z"/>
			<path id="XMLID_501_" class="st348" d="M74.2,71.9c-1.5,0-2.7,1.2-2.7,2.7s1.2,2.7,2.7,2.7s2.7-1.2,2.7-2.7S75.7,71.9,74.2,71.9z
				 M74.2,76.9c-1.3,0-2.4-1.1-2.4-2.4s1.1-2.4,2.4-2.4s2.4,1.1,2.4,2.4S75.6,76.9,74.2,76.9z"/>
			<path id="XMLID_460_" class="st349" d="M74.2,72.1c-1.3,0-2.4,1.1-2.4,2.4s1.1,2.4,2.4,2.4s2.4-1.1,2.4-2.4
				C76.7,73.2,75.6,72.1,74.2,72.1z M74.2,76.6c-1.2,0-2.2-1-2.2-2.2s1-2.2,2.2-2.2s2.2,1,2.2,2.2C76.4,75.7,75.4,76.6,74.2,76.6z"
				/>
			<path id="XMLID_457_" class="st350" d="M74.2,72.4c-1.2,0-2.2,1-2.2,2.2s1,2.2,2.2,2.2s2.2-1,2.2-2.2S75.4,72.4,74.2,72.4z
				 M74.2,76.4c-1,0-1.9-0.8-1.9-1.9c0-1,0.8-1.9,1.9-1.9s1.9,0.8,1.9,1.9C76.1,75.5,75.3,76.4,74.2,76.4z"/>
			<path id="XMLID_454_" class="st351" d="M74.2,72.7c-1,0-1.9,0.8-1.9,1.9c0,1,0.8,1.9,1.9,1.9s1.9-0.8,1.9-1.9S75.3,72.7,74.2,72.7
				z M74.2,76.1c-0.9,0-1.6-0.7-1.6-1.6s0.7-1.6,1.6-1.6s1.6,0.7,1.6,1.6C75.9,75.4,75.1,76.1,74.2,76.1z"/>
			<path id="XMLID_451_" class="st352" d="M74.2,73c-0.9,0-1.6,0.7-1.6,1.6s0.7,1.6,1.6,1.6s1.6-0.7,1.6-1.6S75.1,73,74.2,73z
				 M74.2,75.8c-0.7,0-1.3-0.6-1.3-1.3c0-0.7,0.6-1.3,1.3-1.3s1.3,0.6,1.3,1.3C75.5,75.2,75,75.8,74.2,75.8z"/>
			<path id="XMLID_448_" class="st353" d="M74.2,73.2c-0.7,0-1.3,0.6-1.3,1.3s0.6,1.3,1.3,1.3s1.3-0.6,1.3-1.3S75,73.2,74.2,73.2z
				 M74.2,75.5c-0.6,0-1.1-0.5-1.1-1.1s0.5-1.1,1.1-1.1s1.1,0.5,1.1,1.1S74.8,75.5,74.2,75.5z"/>
			<path id="XMLID_445_" class="st354" d="M74.2,73.5c-0.6,0-1.1,0.5-1.1,1.1s0.5,1.1,1.1,1.1s1.1-0.6,1.1-1.2
				C75.3,74,74.8,73.5,74.2,73.5z M74.2,75.3c-0.4,0-0.8-0.4-0.8-0.8s0.4-0.8,0.8-0.8s0.8,0.4,0.8,0.8C75,74.9,74.7,75.3,74.2,75.3z
				"/>
			<path id="XMLID_442_" class="st355" d="M74.2,73.8c-0.4,0-0.8,0.4-0.8,0.8s0.4,0.8,0.8,0.8S75,75,75,74.6
				C75,74.1,74.7,73.8,74.2,73.8z M74.2,75c-0.3,0-0.5-0.2-0.5-0.5s0.2-0.5,0.5-0.5s0.6,0.2,0.6,0.5S74.5,75,74.2,75z"/>
			<path id="XMLID_69_" class="st356" d="M74.2,74c-0.3,0-0.5,0.2-0.5,0.5s0.2,0.5,0.5,0.5s0.6-0.1,0.6-0.4
				C74.8,74.2,74.5,74,74.2,74z M74.2,74.7c-0.1,0-0.3-0.1-0.3-0.3c0-0.1,0.1-0.3,0.3-0.3c0.2,0,0.3,0.1,0.3,0.3
				C74.5,74.6,74.4,74.7,74.2,74.7z"/>
			<circle id="XMLID_68_" class="st357" cx="74.2" cy="74.5" r="0.3"/>
		</g>
		<path id="XMLID_67_" class="st331" d="M74.2,90.8c-8.9,0-16.3-7.3-16.3-16.3s7.4-16.4,16.4-16.4s16.4,7.4,16.4,16.4
			C90.6,83.5,83.3,90.8,74.2,90.8z M74.2,60.4c-7.8,0-14.2,6.4-14.2,14.2s6.4,14.2,14.2,14.2s14.2-6.4,14.2-14.3
			C88.4,66.7,82.1,60.4,74.2,60.4z"/>
	</g>
</g>
</svg>
