<?xml version="1.0" encoding="utf-8"?>
<svg viewBox="0 0 148 148" width="148" height="148" hape-rendering="geometricPrecision" xmlns:a="http://www.adobe.com/svg10-extensions" xmlns="http://www.w3.org/2000/svg" xmlns:xlink="http://www.w3.org/1999/xlink">

<style type="text/css">
	.st440{fill:url(#XMLID_126_);}
	.st441{fill:url(#XMLID_127_);}
	.st442{fill:url(#XMLID_128_);}
	.st443{fill:url(#XMLID_129_);}
	.st44{fill:#036EB8;}
	.st45{fill:none;stroke:#036EB8;stroke-miterlimit:10;}
	.st46{fill:#FFFFFF;}
	.st47{fill:#046FB9;}
	.st48{fill:#0570B9;}
	.st449{fill:#0571BA;}
	.st4410{fill:#0672BB;}
	.st4411{fill:#0773BC;}
	.st4412{fill:#0874BC;}
	.st4413{fill:#0875BD;}
	.st4414{fill:#0976BE;}
	.st4415{fill:#0A77BE;}
	.st4416{fill:#0B78BF;}
	.st4417{fill:#0B79C0;}
	.st4418{fill:#0C7AC1;}
	.st4419{fill:#0D7BC1;}
	.st4420{fill:#0E7CC2;}
	.st4421{fill:#0F7DC3;}
	.st4422{fill:#0F7EC3;}
	.st4423{fill:#107FC4;}
	.st4424{fill:#1180C5;}
	.st4425{fill:#1281C6;}
	.st4426{fill:#1282C6;}
	.st4427{fill:#1383C7;}
	.st4428{fill:#1484C8;}
	.st4429{fill:#1585C8;}
	.st4430{fill:#1586C9;}
	.st4431{fill:#1687CA;}
	.st4432{fill:#1788CB;}
	.st4433{fill:#1889CB;}
	.st4434{fill:#198BCC;}
	.st4435{fill:#198CCD;}
	.st4436{fill:#1A8DCD;}
	.st4437{fill:#1B8ECE;}
	.st4438{fill:#1C8FCF;}
	.st4439{fill:#1C90D0;}
	.st440{fill:#1D91D0;}
	.st441{fill:#1E92D1;}
	.st442{fill:#1F93D2;}
	.st443{fill:#1F94D2;}
	.st444{fill:#2095D3;}
	.st445{fill:#2196D4;}
	.st446{fill:#2297D5;}
	.st447{fill:#2298D5;}
	.st448{fill:#2399D6;}
	.st449{fill:#249AD7;}
	.st450{fill:#259BD7;}
	.st451{fill:#269CD8;}
	.st452{fill:#269DD9;}
	.st453{fill:#279EDA;}
	.st454{fill:#289FDA;}
	.st455{fill:#29A0DB;}
	.st456{fill:#29A1DC;}
	.st457{fill:#2AA2DC;}
	.st458{fill:#2BA3DD;}
	.st459{fill:#2CA4DE;}
	.st460{fill:#2CA5DF;}
	.st461{fill:#2DA6DF;}
	.st462{fill:#2EA7E0;}
	.tr4{
		transform-origin: 50% 50%;
	}
</style>
<g>
	<g id="tr4XZ" class="tr4">
		
			<linearGradient id="XMLID_126_" gradientUnits="userSpaceOnUse" x1="87.7943" y1="-1533.9659" x2="63.5749" y2="-1536.7338" gradientTransform="matrix(1 0 0 1 0 1578.2914)">
			<stop  offset="0" style="stop-color:#0D4A90"/>
			<stop  offset="1" style="stop-color:#2EA7E0"/>
		</linearGradient>
		<path id="XMLID_8_" class="st440" d="M64.5,10.2c0,0-4.8,49.1-5.3,60.1l15,3.9l17-56.1C84.5,16,74.9,11,64.5,10.2z"/>
		
			<linearGradient id="XMLID_127_" gradientUnits="userSpaceOnUse" x1="87.3943" y1="-1533.5659" x2="63.1749" y2="-1536.3339" gradientTransform="matrix(-4.489659e-11 1 -1 -4.489659e-11 -1429.5347 0.4934)">
			<stop  offset="0" style="stop-color:#0D4A90"/>
			<stop  offset="1" style="stop-color:#2EA7E0"/>
		</linearGradient>
		<path id="XMLID_7_" class="st441" d="M138.1,64.6c0,0-49.1-4.8-60.1-5.3l-3.9,15l56.1,17C132.4,84.6,137.3,75,138.1,64.6z"/>
		
			<linearGradient id="XMLID_128_" gradientUnits="userSpaceOnUse" x1="87.7943" y1="-1533.1659" x2="63.5749" y2="-1535.9338" gradientTransform="matrix(-1 0 0 -1 148.2633 -1429.0414)">
			<stop  offset="0" style="stop-color:#0D4A90"/>
			<stop  offset="1" style="stop-color:#2EA7E0"/>
		</linearGradient>
		<path id="XMLID_6_" class="st442" d="M83.8,138.2c0,0,4.8-49.1,5.3-60.1l-15-3.9l-17,56.1C63.7,132.5,73.4,137.4,83.8,138.2z"/>
		
			<linearGradient id="XMLID_129_" gradientUnits="userSpaceOnUse" x1="88.1943" y1="-1533.5659" x2="63.9749" y2="-1536.3339" gradientTransform="matrix(4.489659e-11 -1 1 4.489659e-11 1577.798 148.7566)">
			<stop  offset="0" style="stop-color:#0D4A90"/>
			<stop  offset="1" style="stop-color:#2EA7E0"/>
		</linearGradient>
		<path id="XMLID_893_" class="st443" d="M10.1,83.9c0,0,49.1,4.8,60.1,5.3l3.9-15L18,57.2C15.9,63.8,10.9,73.5,10.1,83.9z"/>
	</g>
	<path id="XMLID_895_" class="st44" d="M21.8,126.9C7.7,112.8,0,94.2,0,74.3C0,33.3,33.3,0,74.3,0c19.8,0,38.5,7.7,52.5,21.8
		c14,14,21.8,32.7,21.8,52.5s-7.7,38.5-21.8,52.5c-14,14-32.7,21.8-52.5,21.8S35.8,140.9,21.8,126.9z M120.7,27.9
		C108.3,15.6,91.8,8.7,74.3,8.7C38.2,8.7,8.7,38.2,8.7,74.3c0,17.5,6.8,34,19.2,46.4s28.8,19.2,46.4,19.2c17.5,0,34-6.8,46.4-19.2
		s19.2-28.9,19.2-46.4C139.9,56.8,133.1,40.3,120.7,27.9z"/>
	<g id="XMLID_878_">
		<circle id="XMLID_890_" class="st45" cx="74" cy="74.6" r="67.3"/>
		<circle id="XMLID_889_" class="st45" cx="74" cy="74.6" r="62.3"/>
		<circle id="XMLID_888_" class="st45" cx="74" cy="74.6" r="57.4"/>
		<circle id="XMLID_887_" class="st45" cx="74" cy="74.6" r="52.4"/>
		<circle id="XMLID_886_" class="st45" cx="74" cy="74.6" r="47.4"/>
		<circle id="XMLID_885_" class="st45" cx="74" cy="74.6" r="42.4"/>
		<circle id="XMLID_884_" class="st45" cx="74" cy="74.6" r="37.4"/>
		<circle id="XMLID_883_" class="st45" cx="74" cy="74.6" r="32.4"/>
		<circle id="XMLID_882_" class="st45" cx="74" cy="74.6" r="27.5"/>
		<circle id="XMLID_881_" class="st45" cx="74" cy="74.6" r="22.5"/>
		<circle id="XMLID_880_" class="st45" cx="74" cy="74.6" r="17.5"/>
		<circle id="XMLID_879_" class="st45" cx="74" cy="74.6" r="12.5"/>
	</g>
	<line id="XMLID_877_" class="st45" x1="23.7" y1="24.3" x2="124.4" y2="125"/>
	<line id="XMLID_876_" class="st45" x1="124.4" y1="24.3" x2="23.7" y2="125"/>
	<g id="XMLID_2_">
		<path id="XMLID_434_" class="st46" d="M74.2,90.7c-8.9,0-16.3-7.3-16.3-16.3S65.3,58,74.3,58s16.4,7.4,16.4,16.4
			C90.6,83.3,83.3,90.7,74.2,90.7z"/>
		<g id="XMLID_437_">
			<path id="XMLID_650_" class="st44" d="M63.5,63.5c0.1-0.1,0.2-0.2,0.3-0.2C63.6,63.3,63.5,63.4,63.5,63.5z"/>
			<path id="XMLID_5_" class="st44" d="M59,74.3L59,74.3c0-4.1,1.6-7.8,4.3-10.5C60.6,66.5,59,70.2,59,74.3z"/>
			<path id="XMLID_648_" class="st44" d="M74.2,59.1L74.2,59.1c8.4,0,15.3,6.8,15.3,15.3l0,0C89.5,65.9,82.7,59.1,74.2,59.1z"/>
			<path id="XMLID_647_" class="st44" d="M87,82.8L87,82.8L87,82.8z"/>
			<path id="XMLID_4_" class="st44" d="M74.2,89.5L74.2,89.5c5.2,0,9.6-2.5,12.4-6.4C84,87,79.4,89.5,74.2,89.5z"/>
			<path id="XMLID_645_" class="st44" d="M89.5,75.4c0,0.1,0,0.3,0,0.4C89.4,75.8,89.4,75.7,89.5,75.4z"/>
			<path id="XMLID_3_" class="st44" d="M74.2,59.1c-4.1,0-7.8,1.6-10.5,4.3c-0.1,0.1-0.2,0.2-0.3,0.2c-0.1,0.1-0.2,0.2-0.2,0.3
				c-2.6,2.8-4.3,6.4-4.3,10.5c0,8.4,6.9,15.3,15.3,15.3c5.2,0,9.6-2.5,12.4-6.4c0.1-0.1,0.2-0.2,0.2-0.3c0,0,0,0,0-0.1
				c1.4-2,2.2-4.4,2.5-6.9c0-0.1,0-0.3,0-0.4c0-0.4,0.1-0.8,0.1-1.2C89.5,65.9,82.7,59.1,74.2,59.1z M74.2,89.3c-8.2,0-15-6.7-15-15
				s6.8-15,15-15s15,6.6,15,15S82.6,89.3,74.2,89.3z"/>
			<path id="XMLID_639_" class="st47" d="M74.2,59.4c-8.2,0-15,6.7-15,15s6.8,15,15,15s15-6.7,15-15C89.2,66,82.6,59.4,74.2,59.4z
				 M74.2,89c-8.1,0-14.7-6.5-14.7-14.7s6.6-14.7,14.7-14.7s14.7,6.6,14.7,14.7C89,82.5,82.4,89,74.2,89z"/>
			<path id="XMLID_636_" class="st48" d="M74.2,59.6c-8.1,0-14.7,6.5-14.7,14.7S66.1,89,74.2,89s14.7-6.5,14.7-14.7
				C89,66.2,82.4,59.6,74.2,59.6z M74.2,88.8c-7.9,0-14.5-6.4-14.5-14.5s6.5-14.5,14.5-14.5s14.5,6.6,14.5,14.6S82.3,88.8,74.2,88.8
				z"/>
			<path id="XMLID_633_" class="st449" d="M74.2,59.9c-7.9,0-14.5,6.4-14.5,14.4c0,7.9,6.5,14.5,14.5,14.5s14.5-6.5,14.5-14.5
				S82.3,59.9,74.2,59.9z M74.2,88.5c-7.8,0-14.2-6.4-14.2-14.2s6.4-14.2,14.2-14.2s14.2,6.4,14.2,14.2S82.1,88.5,74.2,88.5z"/>
			<path id="XMLID_630_" class="st4410" d="M74.2,60.2c-7.8,0-14.2,6.4-14.2,14.2s6.4,14.2,14.2,14.2s14.2-6.4,14.2-14.3
				S82.1,60.2,74.2,60.2z M74.2,88.2c-7.6,0-13.9-6.2-13.9-13.9s6.3-13.9,13.9-13.9s13.9,6.3,13.9,13.9C88.2,82,82,88.2,74.2,88.2z"
				/>
			<path id="XMLID_627_" class="st4411" d="M74.2,60.4c-7.6,0-13.9,6.3-13.9,13.9s6.3,13.9,13.9,13.9s13.9-6.3,13.9-13.9
				C88.2,66.7,82,60.4,74.2,60.4z M74.2,87.9c-7.5,0-13.7-6.2-13.7-13.7s6.2-13.7,13.7-13.7s13.7,6.2,13.7,13.7
				C87.9,81.9,81.8,87.9,74.2,87.9z"/>
			<path id="XMLID_624_" class="st4412" d="M74.2,60.8c-7.5,0-13.7,6.2-13.7,13.7s6.2,13.7,13.7,13.7S87.9,82,87.9,74.4
				C87.9,66.8,81.8,60.8,74.2,60.8z M74.2,87.8c-7.4,0-13.3-6.1-13.3-13.4S66.9,61,74.3,61c7.5,0,13.4,6,13.4,13.4
				S81.7,87.8,74.2,87.8z"/>
			<path id="XMLID_621_" class="st4413" d="M74.2,61c-7.4,0-13.3,6-13.3,13.4s6,13.4,13.4,13.4c7.5,0,13.4-6,13.4-13.4
				S81.7,61,74.2,61z M74.2,87.4c-7.3,0-13.1-5.9-13.1-13.1S67,61.2,74.2,61.2s13.3,5.9,13.3,13.1C87.5,81.7,81.5,87.4,74.2,87.4z"
				/>
			<path id="XMLID_618_" class="st4414" d="M74.2,61.2c-7.3,0-13.1,5.9-13.1,13.1S67,87.4,74.2,87.4s13.3-5.8,13.3-13.1
				C87.5,67.2,81.5,61.2,74.2,61.2z M74.2,87.2c-7.2,0-12.8-5.8-12.8-12.8s5.8-12.9,12.8-12.9s13,5.8,13,12.9S81.4,87.2,74.2,87.2z"
				/>
			<path id="XMLID_615_" class="st4415" d="M74.2,61.4c-7.2,0-12.8,5.8-12.8,12.8c0,7.1,5.8,12.8,12.8,12.8s13-5.6,13-12.7
				S81.4,61.4,74.2,61.4z M74.2,86.8c-7,0-12.6-5.7-12.6-12.6s5.7-12.6,12.6-12.6s12.7,5.7,12.7,12.6S81.2,86.8,74.2,86.8z"/>
			<path id="XMLID_612_" class="st4416" d="M74.2,61.8c-7,0-12.6,5.7-12.6,12.6S67.3,87,74.2,87s12.7-5.6,12.7-12.6
				C86.9,67.4,81.2,61.8,74.2,61.8z M74.2,86.8c-6.8,0-12.3-5.6-12.3-12.3c0-6.8,5.6-12.3,12.3-12.3c6.9,0,12.3,5.6,12.3,12.3
				C86.6,81.2,81.1,86.8,74.2,86.8z"/>
			<path id="XMLID_609_" class="st4417" d="M74.2,62c-6.8,0-12.3,5.5-12.3,12.3s5.6,12.3,12.3,12.3c6.9,0,12.3-5.6,12.3-12.3
				C86.6,67.5,81.1,62,74.2,62z M74.2,86.4c-6.7,0-12-5.4-12-12s5.4-12,12-12s12,5.4,12,12C86.4,81,80.9,86.4,74.2,86.4z"/>
			<path id="XMLID_606_" class="st4418" d="M74.2,62.2c-6.7,0-12,5.4-12,12s5.4,12,12,12s12-5.4,12-12S80.9,62.2,74.2,62.2z
				 M74.2,86.2c-6.6,0-11.8-5.3-11.8-11.8s5.3-11.8,11.8-11.8S86,67.8,86,74.3S80.8,86.2,74.2,86.2z"/>
			<path id="XMLID_603_" class="st4419" d="M74.2,62.5c-6.6,0-11.8,5.3-11.8,11.8s5.3,11.8,11.8,11.8s11.9-5.2,11.9-11.8
				C86.1,67.8,80.8,62.5,74.2,62.5z M74.2,85.9c-6.4,0-11.5-5.2-11.5-11.5c0-6.4,5.2-11.5,11.5-11.5c6.4,0,11.5,5.2,11.5,11.5
				C85.8,80.8,80.6,85.9,74.2,85.9z"/>
			<path id="XMLID_600_" class="st4420" d="M74.2,62.8c-6.4,0-11.5,5.2-11.5,11.5c0,6.4,5.2,11.5,11.5,11.5c6.4,0,11.5-5.2,11.5-11.5
				C85.8,68,80.6,62.8,74.2,62.8z M74.2,85.7c-6.3,0-11.2-5.1-11.2-11.2c0-6.3,5.1-11.2,11.2-11.2s11.3,5,11.3,11.2
				S80.5,85.7,74.2,85.7z"/>
			<path id="XMLID_597_" class="st4421" d="M74.2,63C67.9,63,63,68.2,63,74.2s5.1,11.2,11.2,11.2s11.3-5,11.3-11.1
				C85.6,68.2,80.5,63,74.2,63z M74.2,85.3c-6.1,0-11-5-11-11s5-11,11-11s11,5,11,11C85.3,80.4,80.3,85.3,74.2,85.3z"/>
			<path id="XMLID_594_" class="st4422" d="M74.2,63.3c-6.1,0-11,5-11,11c0,6.1,5,11,11,11s11-5,11-11C85.3,68.3,80.3,63.3,74.2,63.3z
				 M74.2,85.2c-6,0-10.7-4.8-10.7-10.7c0-6,4.8-10.7,10.7-10.7S85,68.4,85,74.3S80.2,85.2,74.2,85.2z"/>
			<path id="XMLID_591_" class="st4423" d="M74.2,63.6c-6,0-10.7,4.8-10.7,10.7c0,6,4.8,10.7,10.7,10.7S85,80.2,85,74.3
				S80.2,63.6,74.2,63.6z M74.2,84.8c-5.8,0-10.4-4.7-10.4-10.4S68.5,64,74.2,64c5.8,0,10.5,4.7,10.5,10.4S80,84.8,74.2,84.8z"/>
			<path id="XMLID_588_" class="st4424" d="M74.2,63.8c-5.8,0-10.4,4.7-10.4,10.4s4.7,10.4,10.4,10.4c5.8,0,10.5-4.6,10.5-10.3
				S80,63.8,74.2,63.8z M74.2,84.5c-5.7,0-10.2-4.6-10.2-10.1c0-5.7,4.6-10.2,10.2-10.2s10.3,4.5,10.3,10.1S79.9,84.5,74.2,84.5z"/>
			<path id="XMLID_585_" class="st4425" d="M74.2,64.2c-5.7,0-10.2,4.6-10.2,10.2c0,5.7,4.6,10.1,10.2,10.1S84.5,80,84.5,74.4
				S79.9,64.2,74.2,64.2z M74.2,84.3c-5.4,0-9.9-4.5-9.9-10s4.5-9.9,9.9-9.9s9.9,4.5,9.9,9.9C84.2,79.8,79.8,84.3,74.2,84.3z"/>
			<path id="XMLID_582_" class="st4426" d="M74.2,64.4c-5.5,0-9.9,4.5-9.9,9.9c0,5.5,4.5,9.9,9.9,9.9s9.9-4.5,9.9-9.9
				C84.2,68.9,79.8,64.4,74.2,64.4z M74.2,84c-5.4,0-9.6-4.3-9.6-9.6c0-5.4,4.3-9.6,9.6-9.6c5.4,0,9.6,4.3,9.6,9.6
				C84,79.7,79.6,84,74.2,84z"/>
			<path id="XMLID_579_" class="st4427" d="M74.2,64.8c-5.4,0-9.6,4.3-9.6,9.6s4.3,9.6,9.6,9.6c5.4,0,9.6-4.3,9.6-9.6
				C84,69,79.6,64.8,74.2,64.8z M74.2,83.8c-5.2,0-9.3-4.2-9.3-9.3s4.2-9.3,9.3-9.3s9.3,4.2,9.3,9.3C83.7,79.5,79.5,83.8,74.2,83.8z
				"/>
			<path id="XMLID_576_" class="st4428" d="M74.2,64.9c-5.2,0-9.3,4.2-9.3,9.3c0,5.2,4.2,9.3,9.3,9.3s9.3-4.2,9.3-9.3
				C83.7,69.2,79.5,64.9,74.2,64.9z M74.2,83.4c-5.1,0-9.1-4.1-9.1-9.1s4.1-9.1,9.1-9.1s9.1,4.1,9.1,9.1S79.3,83.4,74.2,83.4z"/>
			<path id="XMLID_573_" class="st4429" d="M74.2,65.2c-5.1,0-9.1,4.1-9.1,9.1c0,5.1,4.1,9.1,9.1,9.1s9.1-4.1,9.1-9.1
				C83.4,69.3,79.3,65.2,74.2,65.2z M74.2,83.2c-4.9,0-8.8-4-8.8-8.8c0-4.9,4-8.8,8.8-8.8s8.8,4,8.8,8.8
				C83.1,79.2,79.2,83.2,74.2,83.2z"/>
			<path id="XMLID_570_" class="st4430" d="M74.2,65.5c-4.9,0-8.8,4-8.8,8.8c0,4.9,4,8.8,8.8,8.8s8.8-4,8.8-8.8
				C83.1,69.5,79.2,65.5,74.2,65.5z M74.2,82.9c-4.8,0-8.5-3.9-8.5-8.5c0-4.8,3.9-8.5,8.5-8.5c4.8,0,8.5,3.9,8.5,8.5
				C82.9,79,79,82.9,74.2,82.9z"/>
			<path id="XMLID_567_" class="st4431" d="M74.2,65.8c-4.8,0-8.5,3.9-8.5,8.5c0,4.8,3.9,8.5,8.5,8.5c4.8,0,8.5-3.9,8.5-8.5
				C82.9,69.7,79,65.8,74.2,65.8z M74.2,82.7c-4.6,0-8.3-3.7-8.3-8.3c0-4.6,3.7-8.3,8.3-8.3c4.6,0,8.3,3.7,8.3,8.3
				C82.6,78.9,78.9,82.7,74.2,82.7z"/>
			<path id="XMLID_564_" class="st4432" d="M74.2,66c-4.6,0-8.3,3.7-8.3,8.3c0,4.6,3.7,8.3,8.3,8.3c4.6,0,8.3-3.7,8.3-8.3
				C82.6,69.8,78.9,66,74.2,66z M74.2,82.4c-4.5,0-8-3.6-8-8c0-4.5,3.6-8,8-8s8,3.6,8,8C82.3,78.8,78.7,82.4,74.2,82.4z"/>
			<path id="XMLID_561_" class="st4433" d="M74.2,66.3c-4.5,0-8,3.6-8,8c0,4.5,3.6,8,8,8s8-3.6,8-8C82.3,69.9,78.7,66.3,74.2,66.3z
				 M74.2,82.2c-4.3,0-7.7-3.5-7.7-7.7c0-4.3,3.5-7.7,7.7-7.7s7.7,3.5,7.7,7.7C82,78.7,78.6,82.2,74.2,82.2z"/>
			<path id="XMLID_558_" class="st4434" d="M74.2,66.5c-4.3,0-7.7,3.5-7.7,7.7s3.5,7.7,7.7,7.7s7.7-3.5,7.7-7.7
				C82.1,70,78.6,66.5,74.2,66.5z M74.2,81.8c-4.2,0-7.5-3.4-7.5-7.5s3.4-7.5,7.5-7.5c4.2,0,7.5,3.4,7.5,7.5S78.4,81.8,74.2,81.8z"
				/>
			<path id="XMLID_555_" class="st4435" d="M74.2,66.8c-4.2,0-7.5,3.4-7.5,7.5s3.4,7.5,7.5,7.5c4.2,0,7.5-3.4,7.5-7.5
				S78.4,66.8,74.2,66.8z M74.2,81.7c-4,0-7.3-3.3-7.3-7.2c0-4,3.3-7.2,7.3-7.2s7.3,3.3,7.3,7.2C81.5,78.3,78.3,81.7,74.2,81.7z"/>
			<path id="XMLID_552_" class="st4436" d="M74.2,67.2c-4,0-7.3,3.3-7.3,7.2c0,4,3.3,7.2,7.3,7.2s7.3-3.3,7.3-7.2
				C81.5,70.4,78.3,67.2,74.2,67.2z M74.2,81.3c-3.9,0-7-3.1-7-6.9c0-3.9,3.1-6.9,7-6.9s7,3.1,7,6.9S78.1,81.3,74.2,81.3z"/>
			<path id="XMLID_549_" class="st4437" d="M74.2,67.4c-3.9,0-7,3.1-7,6.9c0,3.9,3.1,6.9,7,6.9s7-3.1,7-6.9
				C81.3,70.5,78.1,67.4,74.2,67.4z M74.2,81c-3.7,0-6.7-3-6.7-6.6s3-6.6,6.7-6.6s6.7,3,6.7,6.6C81,78,78,81,74.2,81z"/>
			<path id="XMLID_546_" class="st4438" d="M74.2,67.7c-3.7,0-6.7,3-6.7,6.6s3,6.6,6.7,6.6s6.7-3,6.7-6.6C81,70.7,78,67.7,74.2,67.7z
				 M74.2,80.8c-3.6,0-6.5-2.9-6.5-6.4s2.9-6.4,6.5-6.4s6.5,2.9,6.5,6.4S77.8,80.8,74.2,80.8z"/>
			<path id="XMLID_543_" class="st4439" d="M74.2,67.9c-3.6,0-6.5,2.9-6.5,6.4c0,3.6,2.9,6.4,6.5,6.4s6.5-2.9,6.5-6.4
				S77.8,67.9,74.2,67.9z M74.2,80.5c-3.4,0-6.2-2.8-6.2-6.2c0-3.4,2.8-6.2,6.2-6.2s6.2,2.8,6.2,6.2C80.4,77.8,77.7,80.5,74.2,80.5z
				"/>
			<path id="XMLID_540_" class="st440" d="M74.2,68.2c-3.4,0-6.2,2.8-6.2,6.2c0,3.4,2.8,6.2,6.2,6.2s6.2-2.8,6.2-6.2
				C80.4,71,77.7,68.2,74.2,68.2z M74.2,80.2c-3.3,0-5.9-2.7-5.9-5.9c0-3.2,2.7-5.9,5.9-5.9c3.3,0,5.9,2.7,5.9,5.9
				S77.5,80.2,74.2,80.2z"/>
			<path id="XMLID_537_" class="st441" d="M74.2,68.4c-3.3,0-5.9,2.7-5.9,5.9c0,3.3,2.7,5.9,5.9,5.9c3.3,0,5.9-2.7,5.9-5.9
				S77.5,68.4,74.2,68.4z M74.2,79.9c-3.1,0-5.7-2.5-5.7-5.7s2.5-5.7,5.7-5.7s5.7,2.5,5.7,5.7S77.4,79.9,74.2,79.9z"/>
			<path id="XMLID_534_" class="st442" d="M74.2,68.8c-3.1,0-5.7,2.5-5.7,5.7c0,3.1,2.5,5.7,5.7,5.7s5.7-2.5,5.7-5.7
				S77.4,68.8,74.2,68.8z M74.2,79.8c-3,0-5.4-2.4-5.4-5.4s2.4-5.4,5.4-5.4s5.4,2.4,5.4,5.4C79.6,77.2,77.2,79.8,74.2,79.8z"/>
			<path id="XMLID_531_" class="st443" d="M74.2,69c-3,0-5.4,2.4-5.4,5.4s2.4,5.4,5.4,5.4s5.4-2.4,5.4-5.4S77.2,69,74.2,69z
				 M74.2,79.4c-2.8,0-5.1-2.3-5.1-5.1c0-2.8,2.3-5.1,5.1-5.1s5.1,2.4,5.1,5.1C79.4,77.2,77.1,79.4,74.2,79.4z"/>
			<path id="XMLID_528_" class="st444" d="M74.2,69.2c-2.8,0-5.1,2.3-5.1,5.1s2.3,5.1,5.1,5.1s5.1-2.3,5.1-5.1
				C79.4,71.5,77.1,69.2,74.2,69.2z M74.2,79.2c-2.7,0-4.9-2.2-4.9-4.9s2.2-4.9,4.9-4.9s4.9,2.2,4.9,4.9S76.9,79.2,74.2,79.2z"/>
			<path id="XMLID_525_" class="st445" d="M74.2,69.5c-2.7,0-4.9,2.2-4.9,4.9c0,2.7,2.2,4.9,4.9,4.9s4.9-2.2,4.9-4.9
				S76.9,69.5,74.2,69.5z M74.2,78.9c-2.5,0-4.6-2.1-4.6-4.6s2.1-4.6,4.6-4.6s4.6,2.1,4.6,4.6S76.8,78.9,74.2,78.9z"/>
			<path id="XMLID_522_" class="st446" d="M74.2,69.8c-2.5,0-4.6,2.1-4.6,4.6s2.1,4.6,4.6,4.6s4.6-2.1,4.6-4.6S76.8,69.8,74.2,69.8z
				 M74.2,78.7c-2.4,0-4.3-1.9-4.3-4.3s1.9-4.3,4.3-4.3s4.3,1.9,4.3,4.3C78.5,76.8,76.6,78.7,74.2,78.7z"/>
			<path id="XMLID_519_" class="st447" d="M74.2,70.2c-2.4,0-4.3,1.9-4.3,4.3s1.9,4.3,4.3,4.3s4.3-1.9,4.3-4.3
				C78.5,72,76.6,70.2,74.2,70.2z M74.2,78.3c-2.2,0-4-1.8-4-4s1.8-4,4-4s4,1.8,4,4C78.3,76.5,76.5,78.3,74.2,78.3z"/>
			<path id="XMLID_516_" class="st448" d="M74.2,70.3c-2.2,0-4,1.8-4,4s1.8,4,4,4s4-1.8,4-4C78.3,72.2,76.5,70.3,74.2,70.3z M74.2,78
				c-2.1,0-3.8-1.7-3.8-3.8c0-2.1,1.7-3.8,3.8-3.8c2.1,0,3.8,1.7,3.8,3.8C78,76.4,76.3,78,74.2,78z"/>
			<path id="XMLID_513_" class="st449" d="M74.2,70.7c-2.1,0-3.8,1.7-3.8,3.8c0,2.1,1.7,3.8,3.8,3.8c2.1,0,3.8-1.7,3.8-3.8
				C78,72.3,76.3,70.7,74.2,70.7z M74.2,77.8c-1.9,0-3.5-1.6-3.5-3.5s1.6-3.5,3.5-3.5s3.5,1.6,3.5,3.5S76.2,77.8,74.2,77.8z"/>
			<path id="XMLID_510_" class="st450" d="M74.2,70.9c-1.9,0-3.5,1.6-3.5,3.5s1.6,3.5,3.5,3.5s3.5-1.6,3.5-3.5
				C77.7,72.4,76.2,70.9,74.2,70.9z M74.2,77.5c-1.8,0-3.2-1.4-3.2-3.2c0-1.8,1.4-3.2,3.2-3.2s3.2,1.4,3.2,3.2
				C77.4,76.2,76,77.5,74.2,77.5z"/>
			<path id="XMLID_507_" class="st451" d="M74.2,71.2c-1.8,0-3.2,1.4-3.2,3.2s1.4,3.2,3.2,3.2s3.2-1.4,3.2-3.2
				C77.5,72.7,76,71.2,74.2,71.2z M74.2,77.2c-1.6,0-3-1.3-3-3c0-1.6,1.3-3,3-3c1.6,0,3,1.3,3,3S75.9,77.2,74.2,77.2z"/>
			<path id="XMLID_504_" class="st452" d="M74.2,71.4c-1.6,0-3,1.3-3,3s1.3,3,3,3c1.6,0,3-1.3,3-3S75.9,71.4,74.2,71.4z M74.2,77
				c-1.5,0-2.7-1.2-2.7-2.7s1.2-2.7,2.7-2.7s2.7,1.2,2.7,2.7S75.7,77,74.2,77z"/>
			<path id="XMLID_501_" class="st453" d="M74.2,71.8c-1.5,0-2.7,1.2-2.7,2.7s1.2,2.7,2.7,2.7s2.7-1.2,2.7-2.7S75.7,71.8,74.2,71.8z
				 M74.2,76.8c-1.3,0-2.4-1.1-2.4-2.4s1.1-2.4,2.4-2.4s2.4,1.1,2.4,2.4S75.6,76.8,74.2,76.8z"/>
			<path id="XMLID_460_" class="st454" d="M74.2,71.9c-1.3,0-2.4,1.1-2.4,2.4s1.1,2.4,2.4,2.4s2.4-1.1,2.4-2.4
				C76.7,73,75.6,71.9,74.2,71.9z M74.2,76.4c-1.2,0-2.2-1-2.2-2.2s1-2.2,2.2-2.2s2.2,1,2.2,2.2C76.4,75.5,75.4,76.4,74.2,76.4z"/>
			<path id="XMLID_457_" class="st455" d="M74.2,72.2c-1.2,0-2.2,1-2.2,2.2s1,2.2,2.2,2.2s2.2-1,2.2-2.2S75.4,72.2,74.2,72.2z
				 M74.2,76.2c-1,0-1.9-0.8-1.9-1.9c0-1,0.8-1.9,1.9-1.9s1.9,0.8,1.9,1.9C76.1,75.3,75.3,76.2,74.2,76.2z"/>
			<path id="XMLID_454_" class="st456" d="M74.2,72.5c-1,0-1.9,0.8-1.9,1.9c0,1,0.8,1.9,1.9,1.9s1.9-0.8,1.9-1.9S75.3,72.5,74.2,72.5
				z M74.2,75.9c-0.9,0-1.6-0.7-1.6-1.6s0.7-1.6,1.6-1.6s1.6,0.7,1.6,1.6C75.9,75.2,75.1,75.9,74.2,75.9z"/>
			<path id="XMLID_451_" class="st457" d="M74.2,72.8c-0.9,0-1.6,0.7-1.6,1.6s0.7,1.6,1.6,1.6s1.6-0.7,1.6-1.6S75.1,72.8,74.2,72.8z
				 M74.2,75.7c-0.7,0-1.3-0.6-1.3-1.3c0-0.7,0.6-1.3,1.3-1.3s1.3,0.6,1.3,1.3C75.5,75,75,75.7,74.2,75.7z"/>
			<path id="XMLID_448_" class="st458" d="M74.2,73c-0.7,0-1.3,0.6-1.3,1.3s0.6,1.3,1.3,1.3s1.3-0.6,1.3-1.3S75,73,74.2,73z
				 M74.2,75.3c-0.6,0-1.1-0.5-1.1-1.1s0.5-1.1,1.1-1.1s1.1,0.5,1.1,1.1S74.8,75.3,74.2,75.3z"/>
			<path id="XMLID_445_" class="st459" d="M74.2,73.3c-0.6,0-1.1,0.5-1.1,1.1s0.5,1.1,1.1,1.1s1.1-0.6,1.1-1.2
				C75.3,73.8,74.8,73.3,74.2,73.3z M74.2,75.2c-0.4,0-0.8-0.4-0.8-0.8s0.4-0.8,0.8-0.8S75,74,75,74.4C75,74.8,74.7,75.2,74.2,75.2z
				"/>
			<path id="XMLID_442_" class="st460" d="M74.2,73.7c-0.4,0-0.8,0.4-0.8,0.8s0.4,0.8,0.8,0.8s0.8-0.4,0.8-0.8
				C75,73.9,74.7,73.7,74.2,73.7z M74.2,74.8c-0.3,0-0.5-0.2-0.5-0.5s0.2-0.5,0.5-0.5s0.6,0.2,0.6,0.5S74.5,74.8,74.2,74.8z"/>
			<path id="XMLID_439_" class="st461" d="M74.2,73.8c-0.3,0-0.5,0.2-0.5,0.5s0.2,0.5,0.5,0.5s0.6-0.1,0.6-0.4
				C74.8,74,74.5,73.8,74.2,73.8z M74.2,74.5c-0.1,0-0.3-0.1-0.3-0.3c0-0.1,0.1-0.3,0.3-0.3c0.2,0,0.3,0.1,0.3,0.3
				S74.4,74.5,74.2,74.5z"/>
			<circle id="XMLID_438_" class="st462" cx="74.2" cy="74.3" r="0.3"/>
		</g>
		<path id="XMLID_1_" class="st46" d="M74.2,90.7c-8.9,0-16.3-7.3-16.3-16.3S65.3,58,74.3,58s16.4,7.4,16.4,16.4
			C90.6,83.3,83.3,90.7,74.2,90.7z M74.2,60.2c-7.8,0-14.2,6.4-14.2,14.2s6.4,14.2,14.2,14.2s14.2-6.4,14.2-14.3
			C88.4,66.5,82.1,60.2,74.2,60.2z"/>
	</g>
</g>
</svg>
