<?xml version="1.0" encoding="utf-8"?>
<svg viewBox="0 0 256 243" width="256" height="243" hape-rendering="geometricPrecision" xmlns:a="http://www.adobe.com/svg10-extensions" xmlns="http://www.w3.org/2000/svg" xmlns:xlink="http://www.w3.org/1999/xlink">
<style type="text/css">
	.stc0{fill:#163A6F;}
	.stc1{fill:#2B7ACA;}
	.stc2{fill:#0D4A90;}
	.stc3{fill:url(#XMLID8_636_);}
	.stc4{fill:none;}
	.stc5{fill:url(#linec8_1_);}
	.stc6{fill:url(#linec9_1_);}
	.stc7{fill:#000080;}
	.stc8{fill:url(#linec41_1_);}
	.stc9{fill:url(#linec69_1_);}
	.stc10{fill:url(#linec87_1_);}
	.stc11{fill:url(#SVGID_1_);}
	.stc12{fill:url(#XMLID8_637_);}
	.stc13{fill:url(#XMLID8_638_);}
	.stc14{fill:url(#XMLID8_639_);}
	.stc15{fill:url(#XMLID8_640_);}
	.stc16{fill:none;stroke:#036EB8;stroke-miterlimit:10;}
	.stc17{fill:#036EB8;}
	.stc18{fill:#046FB9;}
	.stc19{fill:#0570B9;}
	.stc20{fill:#0571BA;}
	.stc21{fill:#0672BB;}
	.stc22{fill:#0773BC;}
	.stc23{fill:#0874BC;}
	.stc24{fill:#0875BD;}
	.stc25{fill:#0976BE;}
	.stc26{fill:#0A77BE;}
	.stc27{fill:#0B78BF;}
	.stc28{fill:#0B79C0;}
	.stc29{fill:#0C7AC1;}
	.stc30{fill:#0D7BC1;}
	.stc31{fill:#0E7CC2;}
	.stc32{fill:#0F7DC3;}
	.stc33{fill:#0F7EC3;}
	.stc34{fill:#107FC4;}
	.stc35{fill:#1180C5;}
	.stc36{fill:#1281C6;}
	.stc37{fill:#1282C6;}
	.stc38{fill:#1383C7;}
	.stc39{fill:#1484C8;}
	.stc40{fill:#1585C8;}
	.stc41{fill:#1586C9;}
	.stc42{fill:#1687CA;}
	.stc43{fill:#1788CB;}
	.stc44{fill:#1889CB;}
	.stc45{fill:#198BCC;}
	.stc46{fill:#198CCD;}
	.stc47{fill:#1A8DCD;}
	.stc48{fill:#1B8ECE;}
	.stc49{fill:#1C8FCF;}
	.stc50{fill:#1C90D0;}
	.stc51{fill:#1D91D0;}
	.stc52{fill:#1E92D1;}
	.stc53{fill:#1F93D2;}
	.stc54{fill:#1F94D2;}
	.stc55{fill:#2095D3;}
	.stc56{fill:#2196D4;}
	.stc57{fill:#2297D5;}
	.stc58{fill:#2298D5;}
	.stc59{fill:#2399D6;}
	.stc60{fill:#249AD7;}
	.stc61{fill:#259BD7;}
	.stc62{fill:#269CD8;}
	.stc63{fill:#269DD9;}
	.stc64{fill:#279EDA;}
	.stc65{fill:#289FDA;}
	.stc66{fill:#29A0DB;}
	.stc67{fill:#29A1DC;}
	.stc68{fill:#2AA2DC;}
	.stc69{fill:#2BA3DD;}
	.stc70{fill:#2CA4DE;}
	.stc71{fill:#2CA5DF;}
	.stc72{fill:#2DA6DF;}
	.stc73{fill:#2EA7E0;}
	.stc74{fill:#FFFFFF;}
	.tr8{transform-origin: 95px 128px}
</style>
<g>
	<path id="linec1_3_" class="stc0" d="M92.2,211.8l-49.5,31.6H23.9l-0.4-4.7c0,0,15.4,0.9,18.8,0c3.4-0.9,49.5-30.7,49.5-30.7
		L92.2,211.8"/>
	<path id="linec2_3_" class="stc1" d="M23.9,239.1L74.7,208h17.1l-49.5,31.1H23.9"/>
	<path id="linec3_3_" class="stc2" d="M64,182l-12.4,51.6H32.9l19.6-79.8L64,182"/>
	
		<linearGradient id="XMLID8_636_" gradientUnits="userSpaceOnUse" x1="198.6045" y1="385.0614" x2="144.8503" y2="237.373" gradientTransform="matrix(1 0 0 1 0 -200)">
		<stop  offset="0" style="stop-color:#0D4A90"/>
		<stop  offset="0.4182" style="stop-color:#2B7ACA"/>
		<stop  offset="1" style="stop-color:#0D4A90"/>
	</linearGradient>
	<path id="XMLID8_634_" class="stc3" d="M255.2,117.5c0-32.1-26.5-59.4-61.8-65.6l-66.7-8l17,13.6c-25.7,11-43.4,33.9-43.4,60
		c0,32.1,26.2,59.2,61,65.8l-37.7,29l80.5-31.4c6.4-2,12.4-4.8,17.9-8.1l0,0h0C242.1,160.6,255.2,140.4,255.2,117.5z"/>
	<line id="linec7_3_" class="stc4" x1="41.9" y1="239.1" x2="42.3" y2="243.8"/>
	
		<linearGradient id="linec8_1_" gradientUnits="userSpaceOnUse" x1="112.7133" y1="208.9595" x2="143.4313" y2="208.9595" gradientTransform="matrix(1 0 0 1 0 -200)">
		<stop  offset="0" style="stop-color:#0D4A90"/>
		<stop  offset="0.4182" style="stop-color:#2B7ACA"/>
		<stop  offset="1" style="stop-color:#0D4A90"/>
	</linearGradient>
	<path id="linec8_3_" class="stc5" d="M112.7,18.1h30.7V-0.2h-30.7V18.1"/>
	
		<linearGradient id="linec9_1_" gradientUnits="userSpaceOnUse" x1="117.4063" y1="223.893" x2="138.7403" y2="223.893" gradientTransform="matrix(1 0 0 1 0 -200)">
		<stop  offset="0" style="stop-color:#0D4A90"/>
		<stop  offset="0.4182" style="stop-color:#2B7ACA"/>
		<stop  offset="1" style="stop-color:#0D4A90"/>
	</linearGradient>
	<path id="linec9_3_" class="stc6" d="M117.4,29.7h21.3V18.1h-21.3V29.7"/>
	<path id="linec10_3_" class="stc7" d="M122.5,45.4h11.9V30.1h-11.9V45.4"/>
	<path id="linec11_3_" class="stc7" d="M122.5,45.4V30.1h0.4v15.4H122.5"/>
	<path id="linec12_3_" class="stc7" d="M122.5,45.4V30.1h0.9v15.4H122.5"/>
	<path id="linec13_3_" class="stc7" d="M122.9,45.4V30.1h0.9v15.4H122.9"/>
	<path id="linec14_3_" class="stc7" d="M123.3,45.4V30.1h0.9v15.4H123.3"/>
	<path id="linec15_3_" class="stc7" d="M123.8,45.4V30.1h0.9v15.4H123.8"/>
	<path id="linec16_3_" class="stc7" d="M124.2,45.4V30.1h0.9v15.4H124.2"/>
	<path id="linec17_3_" class="stc7" d="M124.6,45.4V30.1h0.9v15.4H124.6"/>
	<path id="linec18_3_" class="stc7" d="M125.1,45.4V30.1h0.9v15.4H125.1"/>
	<path id="linec19_3_" class="stc7" d="M125.5,45.4V30.1h0.9v15.4H125.5"/>
	<path id="linec20_3_" class="stc7" d="M125.9,45.4V30.1h0.8v15.4H125.9"/>
	<path id="linec21_3_" class="stc7" d="M126.3,45.4V30.1h0.9v15.4H126.3"/>
	<path id="linec22_3_" class="stc7" d="M126.8,45.4V30.1h0.9v15.4H126.8"/>
	<path id="linec23_3_" class="stc7" d="M127.2,45.4V30.1h0.9v15.4H127.2"/>
	<path id="linec24_3_" class="stc7" d="M127.6,45.4V30.1h0.9v15.4H127.6"/>
	<path id="linec25_3_" class="stc7" d="M128,45.4V30.1h0.9v15.4H128"/>
	<path id="linec26_3_" class="stc7" d="M128.5,45.4V30.1h0.9v15.4H128.5"/>
	<path id="linec27_3_" class="stc7" d="M128.9,45.4V30.1h0.9v15.4H128.9"/>
	<path id="linec28_3_" class="stc7" d="M129.3,45.4V30.1h0.9v15.4H129.3"/>
	<path id="linec29_3_" class="stc7" d="M129.7,45.4V30.1h0.9v15.4H129.7"/>
	<path id="linec30_3_" class="stc7" d="M130.2,45.4V30.1h0.9v15.4H130.2"/>
	<path id="linec31_3_" class="stc7" d="M130.6,45.4V30.1h0.9v15.4H130.6"/>
	<path id="linec32_3_" class="stc7" d="M131,45.4V30.1h0.9v15.4H131"/>
	<path id="linec33_3_" class="stc7" d="M131.5,45.4V30.1h0.9v15.4H131.5"/>
	<path id="linec34_3_" class="stc7" d="M131.9,45.4V30.1h0.9v15.4H131.9"/>
	<path id="linec35_3_" class="stc7" d="M132.3,45.4V30.1h0.9v15.4H132.3"/>
	<path id="linec36_3_" class="stc7" d="M132.7,45.4V30.1h0.9v15.4H132.7"/>
	<path id="linec37_3_" class="stc7" d="M133.2,45.4V30.1h0.9v15.4H133.2"/>
	<path id="linec38_3_" class="stc7" d="M133.6,45.4V30.1h0.9v15.4H133.6"/>
	<path id="linec39_3_" class="stc7" d="M134,45.4V30.1h0.9v15.4H134"/>
	<path id="linec40_3_" class="stc7" d="M134.4,45.4V30.1l0,0V45.4L134.4,45.4"/>
	
		<linearGradient id="linec41_1_" gradientUnits="userSpaceOnUse" x1="122.9533" y1="237.761" x2="134.9013" y2="237.761" gradientTransform="matrix(1 0 0 1 0 -200)">
		<stop  offset="0" style="stop-color:#0D4A90"/>
		<stop  offset="0.4182" style="stop-color:#2B7ACA"/>
		<stop  offset="1" style="stop-color:#0D4A90"/>
	</linearGradient>
	<path id="linec41_3_" class="stc8" d="M123,45.4h11.9V30.1H123V45.4"/>
	<path id="linec67_3_" class="stc1" d="M256,209.7l-49.5,31.6h-18.8v-4.7c0,0,15.4,0.9,18.3,0c3.4-0.9,49.9-30.7,49.9-30.7L256,209.7"
		/>
	<path id="linec68_3_" class="stc2" d="M187.8,237l50.3-31.1h17.5L206.1,237H187.8"/>
	
		<linearGradient id="linec69_1_" gradientUnits="userSpaceOnUse" x1="4.222107e-02" y1="326.72" x2="189.9082" y2="326.72" gradientTransform="matrix(1 0 0 1 0 -200)">
		<stop  offset="0" style="stop-color:#0D4A90"/>
		<stop  offset="0.4182" style="stop-color:#2B7ACA"/>
		<stop  offset="1" style="stop-color:#0D4A90"/>
	</linearGradient>
	<path id="linec69_3_" class="stc9" d="M95.2,221.7c52.1,0,94.7-42.7,94.7-95.1c0-52.1-42.7-94.7-94.7-94.7C42.7,31.8,0,74.5,0,126.5
		C0,179,42.7,221.7,95.2,221.7L95.2,221.7"/>
	<line id="linec70_3_" class="stc4" x1="206.1" y1="237" x2="206.5" y2="241.7"/>
	<path id="linec73_3_" class="stc2" d="M227,166.6l9,41h15.4l-13.2-52.5L227,166.6"/>
	<path id="linec75_3_" class="stc1" d="M180,183.9l15.1,47.6h18.3l-19.7-61l-11.4,9.3"/>
	
		<radialGradient id="linec87_1_" cx="94.9768" cy="326.719" r="78.2005" gradientTransform="matrix(1 0 0 1 0 -200)" gradientUnits="userSpaceOnUse">
		<stop  offset="0" style="stop-color:#FFFFFF"/>
		<stop  offset="0.2302" style="stop-color:#FCFDFE"/>
		<stop  offset="0.3688" style="stop-color:#F4F7FA"/>
		<stop  offset="0.483" style="stop-color:#E6ECF3"/>
		<stop  offset="0.5841" style="stop-color:#D1DDEA"/>
		<stop  offset="0.6765" style="stop-color:#B7C9DE"/>
		<stop  offset="0.7625" style="stop-color:#97B1CF"/>
		<stop  offset="0.8436" style="stop-color:#7094BE"/>
		<stop  offset="0.9209" style="stop-color:#4473A9"/>
		<stop  offset="0.9925" style="stop-color:#134E93"/>
		<stop  offset="1" style="stop-color:#0D4A90"/>
	</radialGradient>
	<path id="linec87_3_" class="stc10" d="M95.2,204.9c43,0,78-35.4,78-78.4c0-43-35-78-78-78c-43,0-78.4,35-78.4,78
		C16.8,169.5,52.2,204.9,95.2,204.9L95.2,204.9"/>
	<g>
		
			<radialGradient id="SVGID_1_" cx="94.9758" cy="326.7185" r="74.3108" gradientTransform="matrix(1 0 0 1 0 -200)" gradientUnits="userSpaceOnUse">
			<stop  offset="0" style="stop-color:#DCDDDD"/>
			<stop  offset="0.503" style="stop-color:#FFFFFF"/>
			<stop  offset="0.8" style="stop-color:#EFEFEF"/>
		</radialGradient>
		<path class="stc11" d="M42.4,179.3c-14-14-21.8-32.7-21.8-52.5c0-41,33.3-74.3,74.3-74.3c19.8,0,38.5,7.7,52.5,21.8
			c14,14,21.8,32.7,21.8,52.5s-7.7,38.5-21.8,52.5S114.8,201,95,201C75.1,201,56.5,193.3,42.4,179.3z M141.3,80.4
			C129,68,112.5,61.2,95,61.2c-36.2,0-65.6,29.4-65.6,65.6c0,17.5,6.8,34,19.2,46.4C61,185.5,77.5,192.3,95,192.3
			c17.5,0,34-6.8,46.4-19.2c12.4-12.4,19.2-28.9,19.2-46.4C160.5,109.2,153.7,92.7,141.3,80.4z"/>
		
			<linearGradient id="XMLID8_637_" gradientUnits="userSpaceOnUse" x1="122.6792" y1="341.6469" x2="127.346" y2="319.6461" gradientTransform="matrix(1 0 0 1 0 -200)">
			<stop  offset="0" style="stop-color:#0D4A90"/>
			<stop  offset="1" style="stop-color:#2B7ACA"/>
		</linearGradient>
		<linearGradient id="XMLID8_639_" gradientUnits="userSpaceOnUse" x1="63.8981" y1="306.2721" x2="62.5646" y2="324.939" gradientTransform="matrix(1 0 0 1 0 -200)">
				<stop  offset="0" style="stop-color:#0D4A90"/>
				<stop  offset="1" style="stop-color:#2B7ACA"/>
			</linearGradient>
				<linearGradient id="XMLID8_638_" gradientUnits="userSpaceOnUse" x1="114.1354" y1="296.9499" x2="90.802" y2="294.2833" gradientTransform="matrix(1 0 0 1 0 -200)">
				<stop  offset="0" style="stop-color:#0D4A90"/>
				<stop  offset="1" style="stop-color:#2EA7E0"/>
			</linearGradient>	<linearGradient id="XMLID8_640_" gradientUnits="userSpaceOnUse" x1="74.1375" y1="353.3199" x2="99.471" y2="359.9862" gradientTransform="matrix(1 0 0 1 0 -200)">
				<stop  offset="0" style="stop-color:#0D4A90"/>
				<stop  offset="1" style="stop-color:#2B7ACA"/>
			</linearGradient>
		<g id="xz8" class="tr8">
			<path id="XMLID8_631_" class="stc12" d="M157,124.1c0,0-48.6-4.6-59.5-5.1l-3.9,14.4l55.6,16.4C151.3,143.4,156.2,134,157,124.1z"/>
			<path id="XMLID8_630_" class="stc13" d="M91.8,63.2c0,0-4.6,48.6-5.1,59.5l14.4,3.9L117.4,71C111.1,68.9,101.8,64,91.8,63.2z"/>
			<path id="XMLID8_629_" class="stc14" d="M30.9,128.4c0,0,48.6,4.6,59.5,5.1l3.9-14.4l-55.6-16.4C36.6,109.1,31.7,118.4,30.9,128.4z"
				/>
			<path id="XMLID8_628_" class="stc15" d="M96.1,189.2c0,0,4.6-48.6,5.1-59.5l-14.4-3.9l-16.4,55.6C76.8,183.6,86.1,188.5,96.1,189.2z
				"/>
		</g>
		<g>
			<circle id="XMLID8_627_" class="stc16" cx="94.7" cy="127" r="67.3"/>
			<circle id="XMLID8_626_" class="stc16" cx="94.7" cy="127" r="62.3"/>
			<circle id="XMLID8_625_" class="stc16" cx="94.7" cy="127" r="57.4"/>
			<circle id="XMLID8_624_" class="stc16" cx="94.7" cy="127" r="52.4"/>
			<circle id="XMLID8_623_" class="stc16" cx="94.7" cy="127" r="47.4"/>
			<circle id="XMLID8_622_" class="stc16" cx="94.7" cy="127" r="42.4"/>
			<circle id="XMLID8_621_" class="stc16" cx="94.7" cy="127" r="37.4"/>
			<circle id="XMLID8_620_" class="stc16" cx="94.7" cy="127" r="32.4"/>
			<circle id="XMLID8_619_" class="stc16" cx="94.7" cy="127" r="27.5"/>
			<circle id="XMLID8_618_" class="stc16" cx="94.7" cy="127" r="22.5"/>
			<circle id="XMLID8_617_" class="stc16" cx="94.7" cy="127" r="17.5"/>
			<circle id="XMLID8_616_" class="stc16" cx="94.7" cy="127" r="12.5"/>
		</g>
		<line id="XMLID8_615_" class="stc16" x1="44.3" y1="76.7" x2="145.1" y2="177.4"/>
		<line id="XMLID8_614_" class="stc16" x1="145.1" y1="76.7" x2="44.3" y2="177.4"/>
		<g>
			<g>
				<path id="XMLID8_613_" class="stc17" d="M88,110.3c-5.1,2.2-8.7,7.2-8.7,13.1l0,0C79.3,117.5,82.9,112.4,88,110.3z"/>
				<path id="XMLID8_612_" class="stc17" d="M99.1,110.3c5.1,2.2,8.7,7.2,8.7,13.1l0,0C107.8,117.5,104.2,112.4,99.1,110.3z"/>
				<path class="stc17" d="M99.1,110.3c-1.7-0.7-3.6-1.1-5.5-1.1s-3.8,0.4-5.6,1.1c-5.1,2.2-8.7,7.2-8.7,13.1c0,5.9,3.6,11,8.7,13.1
					c1.7,0.7,3.6,1.1,5.6,1.1s3.8-0.4,5.5-1.1c5.1-2.2,8.7-7.2,8.7-13.1C107.8,117.5,104.2,112.4,99.1,110.3z M93.5,137.4
					c-7.7,0-14-6.3-14-14s6.3-14,14-14c7.7,0,14,6.3,14,14C107.6,131.1,101.3,137.4,93.5,137.4z"/>
				<path class="stc18" d="M93.5,109.4c-7.7,0-14,6.3-14,14c0,7.7,6.3,14,14,14c7.7,0,14-6.3,14-14
					C107.6,115.7,101.3,109.4,93.5,109.4z M93.5,137.2c-7.6,0-13.8-6.2-13.8-13.8c0-7.6,6.2-13.8,13.8-13.8s13.8,6.2,13.8,13.8
					C107.3,131,101.1,137.2,93.5,137.2z"/>
				<path class="stc19" d="M93.5,109.6c-7.6,0-13.8,6.2-13.8,13.8c0,7.6,6.2,13.8,13.8,13.8s13.8-6.2,13.8-13.8
					C107.3,115.8,101.1,109.6,93.5,109.6z M93.5,136.9c-7.5,0-13.5-6-13.5-13.5c0-7.5,6-13.5,13.5-13.5s13.5,6,13.5,13.5
					C107.1,130.9,101,136.9,93.5,136.9z"/>
				<path class="stc20" d="M93.5,109.9c-7.5,0-13.5,6-13.5,13.5c0,7.5,6,13.5,13.5,13.5s13.5-6,13.5-13.5
					C107.1,115.9,101,109.9,93.5,109.9z M93.5,136.7c-7.3,0-13.3-5.9-13.3-13.3c0-7.3,5.9-13.3,13.3-13.3s13.3,5.9,13.3,13.3
					C106.8,130.7,100.9,136.7,93.5,136.7z"/>
				<path class="stc21" d="M93.5,110.1c-7.3,0-13.3,5.9-13.3,13.3c0,7.3,5.9,13.3,13.3,13.3s13.3-5.9,13.3-13.3
					C106.8,116.1,100.9,110.1,93.5,110.1z M93.5,136.4c-7.2,0-13-5.8-13-13c0-7.2,5.8-13,13-13c7.2,0,13,5.8,13,13
					C106.6,130.6,100.7,136.4,93.5,136.4z"/>
				<path class="stc22" d="M93.5,110.4c-7.2,0-13,5.8-13,13c0,7.2,5.8,13,13,13c7.2,0,13-5.8,13-13
					C106.6,116.2,100.7,110.4,93.5,110.4z M93.5,136.2c-7,0-12.8-5.7-12.8-12.8c0-7,5.7-12.8,12.8-12.8c7,0,12.8,5.7,12.8,12.8
					C106.3,130.4,100.6,136.2,93.5,136.2z"/>
				<path class="stc23" d="M93.5,110.6c-7,0-12.8,5.7-12.8,12.8c0,7,5.7,12.8,12.8,12.8c7,0,12.8-5.7,12.8-12.8
					C106.3,116.4,100.6,110.6,93.5,110.6z M93.5,135.9c-6.9,0-12.5-5.6-12.5-12.5c0-6.9,5.6-12.5,12.5-12.5s12.5,5.6,12.5,12.5
					C106.1,130.3,100.5,135.9,93.5,135.9z"/>
				<path class="stc24" d="M93.5,110.9c-6.9,0-12.5,5.6-12.5,12.5c0,6.9,5.6,12.5,12.5,12.5s12.5-5.6,12.5-12.5
					C106.1,116.5,100.5,110.9,93.5,110.9z M93.5,135.7c-6.8,0-12.3-5.5-12.3-12.3c0-6.8,5.5-12.3,12.3-12.3s12.3,5.5,12.3,12.3
					C105.8,130.2,100.3,135.7,93.5,135.7z"/>
				<path class="stc25" d="M93.5,111.1c-6.8,0-12.3,5.5-12.3,12.3c0,6.8,5.5,12.3,12.3,12.3s12.3-5.5,12.3-12.3
					C105.8,116.6,100.3,111.1,93.5,111.1z M93.5,135.4c-6.6,0-12-5.4-12-12c0-6.6,5.4-12,12-12s12,5.4,12,12
					C105.6,130,100.2,135.4,93.5,135.4z"/>
				<path class="stc26" d="M93.5,111.4c-6.6,0-12,5.4-12,12c0,6.6,5.4,12,12,12s12-5.4,12-12C105.6,116.8,100.2,111.4,93.5,111.4z
					 M93.5,135.2c-6.5,0-11.8-5.3-11.8-11.8c0-6.5,5.3-11.8,11.8-11.8c6.5,0,11.8,5.3,11.8,11.8C105.3,129.9,100,135.2,93.5,135.2z"
					/>
				<path class="stc27" d="M93.5,111.6c-6.5,0-11.8,5.3-11.8,11.8c0,6.5,5.3,11.8,11.8,11.8c6.5,0,11.8-5.3,11.8-11.8
					C105.3,116.9,100,111.6,93.5,111.6z M93.5,134.9c-6.4,0-11.5-5.2-11.5-11.5c0-6.4,5.2-11.5,11.5-11.5S105,117,105,123.4
					C105,129.8,99.9,134.9,93.5,134.9z"/>
				<path class="stc28" d="M93.5,111.9c-6.4,0-11.5,5.2-11.5,11.5c0,6.4,5.2,11.5,11.5,11.5s11.5-5.2,11.5-11.5
					C105,117,99.9,111.9,93.5,111.9z M93.5,134.7c-6.2,0-11.3-5-11.3-11.3c0-6.2,5-11.3,11.3-11.3s11.3,5,11.3,11.3
					C104.8,129.6,99.8,134.7,93.5,134.7z"/>
				<path class="stc29" d="M93.5,112.1c-6.2,0-11.3,5-11.3,11.3c0,6.2,5,11.3,11.3,11.3s11.3-5,11.3-11.3
					C104.8,117.2,99.8,112.1,93.5,112.1z M93.5,134.4c-6.1,0-11-4.9-11-11c0-6.1,4.9-11,11-11c6.1,0,11,4.9,11,11
					C104.5,129.5,99.6,134.4,93.5,134.4z"/>
				<path class="stc30" d="M93.5,112.4c-6.1,0-11,4.9-11,11c0,6.1,4.9,11,11,11c6.1,0,11-4.9,11-11
					C104.5,117.3,99.6,112.4,93.5,112.4z M93.5,134.2c-5.9,0-10.8-4.8-10.8-10.8c0-5.9,4.8-10.8,10.8-10.8c5.9,0,10.8,4.8,10.8,10.8
					C104.3,129.3,99.5,134.2,93.5,134.2z"/>
				<path class="stc31" d="M93.5,112.6c-5.9,0-10.8,4.8-10.8,10.8c0,5.9,4.8,10.8,10.8,10.8c5.9,0,10.8-4.8,10.8-10.8
					C104.3,117.5,99.5,112.6,93.5,112.6z M93.5,133.9c-5.8,0-10.5-4.7-10.5-10.5c0-5.8,4.7-10.5,10.5-10.5s10.5,4.7,10.5,10.5
					C104,129.2,99.3,133.9,93.5,133.9z"/>
				<path class="stc32" d="M93.5,112.9c-5.8,0-10.5,4.7-10.5,10.5c0,5.8,4.7,10.5,10.5,10.5s10.5-4.7,10.5-10.5
					C104,117.6,99.3,112.9,93.5,112.9z M93.5,133.7c-5.7,0-10.3-4.6-10.3-10.3c0-5.7,4.6-10.3,10.3-10.3c5.7,0,10.3,4.6,10.3,10.3
					C103.8,129.1,99.2,133.7,93.5,133.7z"/>
				<path class="stc33" d="M93.5,113.1c-5.7,0-10.3,4.6-10.3,10.3c0,5.7,4.6,10.3,10.3,10.3c5.7,0,10.3-4.6,10.3-10.3
					C103.8,117.7,99.2,113.1,93.5,113.1z M93.5,133.4c-5.5,0-10-4.5-10-10c0-5.5,4.5-10,10-10s10,4.5,10,10
					C103.5,128.9,99.1,133.4,93.5,133.4z"/>
				<path class="stc34" d="M93.5,113.4c-5.5,0-10,4.5-10,10c0,5.5,4.5,10,10,10s10-4.5,10-10C103.5,117.9,99.1,113.4,93.5,113.4z
					 M93.5,133.2c-5.4,0-9.8-4.4-9.8-9.8c0-5.4,4.4-9.8,9.8-9.8s9.8,4.4,9.8,9.8C103.3,128.8,98.9,133.2,93.5,133.2z"/>
				<path class="stc35" d="M93.5,113.6c-5.4,0-9.8,4.4-9.8,9.8c0,5.4,4.4,9.8,9.8,9.8s9.8-4.4,9.8-9.8
					C103.3,118,98.9,113.6,93.5,113.6z M93.5,132.9c-5.2,0-9.5-4.3-9.5-9.5c0-5.2,4.3-9.5,9.5-9.5s9.5,4.3,9.5,9.5
					C103,128.7,98.8,132.9,93.5,132.9z"/>
				<path class="stc36" d="M93.5,113.9c-5.2,0-9.5,4.3-9.5,9.5c0,5.2,4.3,9.5,9.5,9.5s9.5-4.3,9.5-9.5
					C103,118.2,98.8,113.9,93.5,113.9z M93.5,132.7c-5.1,0-9.3-4.1-9.3-9.3c0-5.1,4.1-9.3,9.3-9.3c5.1,0,9.3,4.1,9.3,9.3
					C102.8,128.5,98.7,132.7,93.5,132.7z"/>
				<path class="stc37" d="M93.5,114.1c-5.1,0-9.3,4.1-9.3,9.3c0,5.1,4.1,9.3,9.3,9.3c5.1,0,9.3-4.1,9.3-9.3
					C102.8,118.3,98.7,114.1,93.5,114.1z M93.5,132.4c-5,0-9-4-9-9c0-5,4-9,9-9s9,4,9,9C102.5,128.4,98.5,132.4,93.5,132.4z"/>
				<path class="stc38" d="M93.5,114.4c-5,0-9,4-9,9c0,5,4,9,9,9s9-4,9-9C102.5,118.4,98.5,114.4,93.5,114.4z M93.5,132.2
					c-4.8,0-8.8-3.9-8.8-8.8c0-4.8,3.9-8.8,8.8-8.8s8.8,3.9,8.8,8.8C102.3,128.2,98.4,132.2,93.5,132.2z"/>
				<path class="stc39" d="M93.5,114.6c-4.8,0-8.8,3.9-8.8,8.8c0,4.8,3.9,8.8,8.8,8.8s8.8-3.9,8.8-8.8
					C102.3,118.6,98.4,114.6,93.5,114.6z M93.5,131.9c-4.7,0-8.5-3.8-8.5-8.5c0-4.7,3.8-8.5,8.5-8.5s8.5,3.8,8.5,8.5
					C102,128.1,98.2,131.9,93.5,131.9z"/>
				<path class="stc40" d="M93.5,114.9c-4.7,0-8.5,3.8-8.5,8.5c0,4.7,3.8,8.5,8.5,8.5s8.5-3.8,8.5-8.5
					C102,118.7,98.2,114.9,93.5,114.9z M93.5,131.7c-4.6,0-8.3-3.7-8.3-8.3c0-4.6,3.7-8.3,8.3-8.3c4.6,0,8.3,3.7,8.3,8.3
					C101.8,128,98.1,131.7,93.5,131.7z"/>
				<path class="stc41" d="M93.5,115.1c-4.6,0-8.3,3.7-8.3,8.3c0,4.6,3.7,8.3,8.3,8.3c4.6,0,8.3-3.7,8.3-8.3
					C101.8,118.8,98.1,115.1,93.5,115.1z M93.5,131.4c-4.4,0-8-3.6-8-8c0-4.4,3.6-8,8-8c4.4,0,8,3.6,8,8
					C101.5,127.8,98,131.4,93.5,131.4z"/>
				<path class="stc42" d="M93.5,115.4c-4.4,0-8,3.6-8,8c0,4.4,3.6,8,8,8c4.4,0,8-3.6,8-8C101.5,119,98,115.4,93.5,115.4z
					 M93.5,131.2c-4.3,0-7.8-3.5-7.8-7.8c0-4.3,3.5-7.8,7.8-7.8s7.8,3.5,7.8,7.8S97.8,131.2,93.5,131.2z"/>
				<path class="stc43" d="M93.5,115.6c-4.3,0-7.8,3.5-7.8,7.8c0,4.3,3.5,7.8,7.8,7.8s7.8-3.5,7.8-7.8
					C101.3,119.1,97.8,115.6,93.5,115.6z M93.5,130.9c-4.1,0-7.5-3.4-7.5-7.5c0-4.1,3.4-7.5,7.5-7.5s7.5,3.4,7.5,7.5
					C101,127.5,97.7,130.9,93.5,130.9z"/>
				<path class="stc44" d="M93.5,115.9c-4.1,0-7.5,3.4-7.5,7.5c0,4.1,3.4,7.5,7.5,7.5s7.5-3.4,7.5-7.5
					C101,119.3,97.7,115.9,93.5,115.9z M93.5,130.7c-4,0-7.3-3.2-7.3-7.3c0-4,3.2-7.3,7.3-7.3c4,0,7.3,3.2,7.3,7.3
					C100.8,127.4,97.5,130.7,93.5,130.7z"/>
				<path class="stc45" d="M93.5,116.1c-4,0-7.3,3.2-7.3,7.3c0,4,3.2,7.3,7.3,7.3c4,0,7.3-3.2,7.3-7.3
					C100.8,119.4,97.5,116.1,93.5,116.1z M93.5,130.4c-3.9,0-7-3.1-7-7c0-3.9,3.1-7,7-7c3.9,0,7,3.1,7,7
					C100.5,127.3,97.4,130.4,93.5,130.4z"/>
				<path class="stc46" d="M93.5,116.4c-3.9,0-7,3.1-7,7c0,3.9,3.1,7,7,7c3.9,0,7-3.1,7-7C100.5,119.5,97.4,116.4,93.5,116.4z
					 M93.5,130.2c-3.7,0-6.8-3-6.8-6.8s3-6.8,6.8-6.8s6.8,3,6.8,6.8C100.3,127.1,97.3,130.2,93.5,130.2z"/>
				<path class="stc47" d="M93.5,116.6c-3.7,0-6.8,3-6.8,6.8c0,3.7,3,6.8,6.8,6.8s6.8-3,6.8-6.8C100.3,119.7,97.3,116.6,93.5,116.6z
					 M93.5,129.9c-3.6,0-6.5-2.9-6.5-6.5c0-3.6,2.9-6.5,6.5-6.5s6.5,2.9,6.5,6.5C100,127,97.1,129.9,93.5,129.9z"/>
				<path class="stc48" d="M93.5,116.9c-3.6,0-6.5,2.9-6.5,6.5c0,3.6,2.9,6.5,6.5,6.5s6.5-2.9,6.5-6.5
					C100,119.8,97.1,116.9,93.5,116.9z M93.5,129.7c-3.5,0-6.3-2.8-6.3-6.3c0-3.5,2.8-6.3,6.3-6.3c3.5,0,6.3,2.8,6.3,6.3
					C99.8,126.9,97,129.7,93.5,129.7z"/>
				<path class="stc49" d="M93.5,117.1c-3.5,0-6.3,2.8-6.3,6.3c0,3.5,2.8,6.3,6.3,6.3c3.5,0,6.3-2.8,6.3-6.3
					C99.8,119.9,97,117.1,93.5,117.1z M93.5,129.4c-3.3,0-6-2.7-6-6c0-3.3,2.7-6,6-6c3.3,0,6,2.7,6,6
					C99.5,126.7,96.9,129.4,93.5,129.4z"/>
				<path class="stc50" d="M93.5,117.4c-3.3,0-6,2.7-6,6c0,3.3,2.7,6,6,6c3.3,0,6-2.7,6-6C99.5,120.1,96.9,117.4,93.5,117.4z
					 M93.5,129.2c-3.2,0-5.8-2.6-5.8-5.8c0-3.2,2.6-5.8,5.8-5.8s5.8,2.6,5.8,5.8C99.3,126.6,96.7,129.2,93.5,129.2z"/>
				<path class="stc51" d="M93.5,117.7c-3.2,0-5.8,2.6-5.8,5.8c0,3.2,2.6,5.8,5.8,5.8s5.8-2.6,5.8-5.8
					C99.3,120.2,96.7,117.7,93.5,117.7z M93.5,128.9c-3,0-5.5-2.5-5.5-5.5c0-3,2.5-5.5,5.5-5.5c3,0,5.5,2.5,5.5,5.5
					C99,126.4,96.6,128.9,93.5,128.9z"/>
				<path class="stc52" d="M93.5,117.9c-3,0-5.5,2.5-5.5,5.5c0,3,2.5,5.5,5.5,5.5c3,0,5.5-2.5,5.5-5.5
					C99,120.4,96.6,117.9,93.5,117.9z M93.5,128.7c-2.9,0-5.3-2.4-5.3-5.3c0-2.9,2.4-5.3,5.3-5.3s5.3,2.4,5.3,5.3
					C98.8,126.3,96.4,128.7,93.5,128.7z"/>
				<path class="stc53" d="M93.5,118.2c-2.9,0-5.3,2.4-5.3,5.3c0,2.9,2.4,5.3,5.3,5.3s5.3-2.4,5.3-5.3
					C98.8,120.5,96.4,118.2,93.5,118.2z M93.5,128.4c-2.8,0-5-2.2-5-5c0-2.8,2.2-5,5-5s5,2.2,5,5C98.5,126.2,96.3,128.4,93.5,128.4z
					"/>
				<path class="stc54" d="M93.5,118.4c-2.8,0-5,2.2-5,5c0,2.8,2.2,5,5,5s5-2.2,5-5C98.5,120.6,96.3,118.4,93.5,118.4z M93.5,128.2
					c-2.6,0-4.8-2.1-4.8-4.8s2.1-4.8,4.8-4.8s4.8,2.1,4.8,4.8S96.2,128.2,93.5,128.2z"/>
				<path class="stc55" d="M93.5,118.7c-2.6,0-4.8,2.1-4.8,4.8s2.1,4.8,4.8,4.8s4.8-2.1,4.8-4.8S96.2,118.7,93.5,118.7z M93.5,127.9
					c-2.5,0-4.5-2-4.5-4.5c0-2.5,2-4.5,4.5-4.5c2.5,0,4.5,2,4.5,4.5S96,127.9,93.5,127.9z"/>
				<path class="stc56" d="M93.5,118.9c-2.5,0-4.5,2-4.5,4.5c0,2.5,2,4.5,4.5,4.5c2.5,0,4.5-2,4.5-4.5C98,120.9,96,118.9,93.5,118.9z
					 M93.5,127.7c-2.3,0-4.3-1.9-4.3-4.3c0-2.4,1.9-4.3,4.3-4.3s4.3,1.9,4.3,4.3C97.8,125.8,95.9,127.7,93.5,127.7z"/>
				<path class="stc57" d="M93.5,119.2c-2.3,0-4.3,1.9-4.3,4.3c0,2.3,1.9,4.3,4.3,4.3s4.3-1.9,4.3-4.3
					C97.8,121.1,95.9,119.2,93.5,119.2z M93.5,127.4c-2.2,0-4-1.8-4-4c0-2.2,1.8-4,4-4s4,1.8,4,4C97.5,125.6,95.8,127.4,93.5,127.4z
					"/>
				<path class="stc58" d="M93.5,119.4c-2.2,0-4,1.8-4,4c0,2.2,1.8,4,4,4s4-1.8,4-4C97.5,121.2,95.8,119.4,93.5,119.4z M93.5,127.2
					c-2.1,0-3.8-1.7-3.8-3.8c0-2.1,1.7-3.8,3.8-3.8s3.8,1.7,3.8,3.8S95.6,127.2,93.5,127.2z"/>
				<path class="stc59" d="M93.5,119.7c-2.1,0-3.8,1.7-3.8,3.8c0,2.1,1.7,3.8,3.8,3.8s3.8-1.7,3.8-3.8
					C97.3,121.3,95.6,119.7,93.5,119.7z M93.5,126.9c-1.9,0-3.5-1.6-3.5-3.5c0-1.9,1.6-3.5,3.5-3.5c1.9,0,3.5,1.6,3.5,3.5
					C97,125.3,95.5,126.9,93.5,126.9z"/>
				<path class="stc60" d="M93.5,119.9c-1.9,0-3.5,1.6-3.5,3.5c0,1.9,1.6,3.5,3.5,3.5c1.9,0,3.5-1.6,3.5-3.5
					C97,121.5,95.5,119.9,93.5,119.9z M93.5,126.7c-1.8,0-3.3-1.5-3.3-3.3c0-1.8,1.5-3.3,3.3-3.3c1.8,0,3.3,1.5,3.3,3.3
					C96.8,125.2,95.3,126.7,93.5,126.7z"/>
				<path class="stc61" d="M93.5,120.2c-1.8,0-3.3,1.5-3.3,3.3c0,1.8,1.5,3.3,3.3,3.3c1.8,0,3.3-1.5,3.3-3.3
					C96.8,121.6,95.3,120.2,93.5,120.2z M93.5,126.4c-1.7,0-3-1.3-3-3c0-1.7,1.3-3,3-3s3,1.3,3,3S95.2,126.4,93.5,126.4z"/>
				<path class="stc62" d="M93.5,120.4c-1.7,0-3,1.3-3,3c0,1.7,1.3,3,3,3s3-1.3,3-3C96.5,121.7,95.2,120.4,93.5,120.4z M93.5,126.2
					c-1.5,0-2.8-1.2-2.8-2.8c0-1.5,1.2-2.8,2.8-2.8s2.8,1.2,2.8,2.8C96.3,124.9,95.1,126.2,93.5,126.2z"/>
				<path class="stc63" d="M93.5,120.7c-1.5,0-2.8,1.2-2.8,2.8c0,1.5,1.2,2.8,2.8,2.8s2.8-1.2,2.8-2.8
					C96.3,121.9,95.1,120.7,93.5,120.7z M93.5,125.9c-1.4,0-2.5-1.1-2.5-2.5c0-1.4,1.1-2.5,2.5-2.5c1.4,0,2.5,1.1,2.5,2.5
					C96,124.8,94.9,125.9,93.5,125.9z"/>
				<path class="stc64" d="M93.5,120.9c-1.4,0-2.5,1.1-2.5,2.5c0,1.4,1.1,2.5,2.5,2.5c1.4,0,2.5-1.1,2.5-2.5
					C96,122,94.9,120.9,93.5,120.9z M93.5,125.7c-1.2,0-2.3-1-2.3-2.3c0-1.2,1-2.3,2.3-2.3c1.2,0,2.3,1,2.3,2.3
					C95.8,124.6,94.8,125.7,93.5,125.7z"/>
				<path class="stc65" d="M93.5,121.2c-1.2,0-2.3,1-2.3,2.3c0,1.2,1,2.3,2.3,2.3c1.2,0,2.3-1,2.3-2.3
					C95.8,122.2,94.8,121.2,93.5,121.2z M93.5,125.4c-1.1,0-2-0.9-2-2c0-1.1,0.9-2,2-2s2,0.9,2,2C95.5,124.5,94.6,125.4,93.5,125.4z
					"/>
				<path class="stc66" d="M93.5,121.4c-1.1,0-2,0.9-2,2c0,1.1,0.9,2,2,2s2-0.9,2-2C95.5,122.3,94.6,121.4,93.5,121.4z M93.5,125.2
					c-1,0-1.8-0.8-1.8-1.8c0-1,0.8-1.8,1.8-1.8s1.8,0.8,1.8,1.8C95.3,124.4,94.5,125.2,93.5,125.2z"/>
				<path class="stc67" d="M93.5,121.7c-1,0-1.8,0.8-1.8,1.8c0,1,0.8,1.8,1.8,1.8s1.8-0.8,1.8-1.8C95.3,122.4,94.5,121.7,93.5,121.7z
					 M93.5,124.9c-0.8,0-1.5-0.7-1.5-1.5c0-0.8,0.7-1.5,1.5-1.5c0.8,0,1.5,0.7,1.5,1.5C95,124.2,94.4,124.9,93.5,124.9z"/>
				<path class="stc68" d="M93.5,121.9c-0.8,0-1.5,0.7-1.5,1.5c0,0.8,0.7,1.5,1.5,1.5c0.8,0,1.5-0.7,1.5-1.5
					C95,122.6,94.4,121.9,93.5,121.9z M93.5,124.7c-0.7,0-1.3-0.6-1.3-1.2c0-0.7,0.6-1.3,1.3-1.3c0.7,0,1.2,0.6,1.2,1.3
					C94.8,124.1,94.2,124.7,93.5,124.7z"/>
				<path class="stc69" d="M93.5,122.2c-0.7,0-1.3,0.6-1.3,1.3c0,0.7,0.6,1.2,1.3,1.2c0.7,0,1.2-0.6,1.2-1.2
					C94.8,122.7,94.2,122.2,93.5,122.2z M93.5,124.4c-0.6,0-1-0.4-1-1c0-0.6,0.4-1,1-1s1,0.4,1,1C94.5,124,94.1,124.4,93.5,124.4z"
					/>
				<path class="stc70" d="M93.5,122.4c-0.6,0-1,0.4-1,1c0,0.6,0.4,1,1,1s1-0.4,1-1C94.5,122.9,94.1,122.4,93.5,122.4z M93.5,124.2
					c-0.4,0-0.8-0.3-0.8-0.8c0-0.4,0.3-0.8,0.8-0.8c0.4,0,0.8,0.3,0.8,0.8C94.3,123.8,94,124.2,93.5,124.2z"/>
				<path class="stc71" d="M93.5,122.7c-0.4,0-0.8,0.3-0.8,0.8c0,0.4,0.3,0.8,0.8,0.8c0.4,0,0.8-0.3,0.8-0.8
					C94.3,123,94,122.7,93.5,122.7z M93.5,123.9c-0.3,0-0.5-0.2-0.5-0.5c0-0.3,0.2-0.5,0.5-0.5s0.5,0.2,0.5,0.5
					C94,123.7,93.8,123.9,93.5,123.9z"/>
				<path class="stc72" d="M93.5,122.9c-0.3,0-0.5,0.2-0.5,0.5c0,0.3,0.2,0.5,0.5,0.5s0.5-0.2,0.5-0.5
					C94,123.1,93.8,122.9,93.5,122.9z M93.5,123.7c-0.1,0-0.2-0.1-0.2-0.2c0-0.1,0.1-0.3,0.2-0.3s0.2,0.1,0.2,0.3
					C93.8,123.5,93.7,123.7,93.5,123.7z"/>
				<circle id="XMLID8_461_" class="stc73" cx="93.5" cy="123.4" r="0.2"/>
			</g>
			<path class="stc74" d="M93.5,138.8c-8.5,0-15.4-6.9-15.4-15.4c0-8.5,6.9-15.4,15.4-15.4s15.4,6.9,15.4,15.4
				C108.9,131.9,102,138.8,93.5,138.8z M93.5,110.2c-7.3,0-13.2,5.9-13.2,13.2c0,7.3,5.9,13.2,13.2,13.2s13.2-5.9,13.2-13.2
				C106.7,116.1,100.8,110.2,93.5,110.2z"/>
		</g>
	</g>
</g>
</svg>
