<?xml version="1.0" encoding="utf-8"?>
<svg viewBox="0 0 256 243" width="256" height="243" hape-rendering="geometricPrecision" xmlns:a="http://www.adobe.com/svg10-extensions" xmlns="http://www.w3.org/2000/svg" xmlns:xlink="http://www.w3.org/1999/xlink">

<style type="text/css">
	.stb0{fill:#163A6F;}
	.stb1{fill:#2B7ACA;}
	.stb2{fill:#0D4A90;}
	.stb3{fill:url(#XMLID6_725_);}
	.stb4{fill:none;}
	.stb5{fill:url(#linea8_2_);}
	.stb6{fill:url(#linea9_2_);}
	.stb7{fill:#000080;}
	.stb8{fill:url(#linea41_2_);}
	.stb9{fill:url(#linea69_2_);}
	.stb10{fill:url(#linea87_2_);}
	.stb11{fill:url(#linea87_3_);}
	.stb12{fill:url(#XMLID6_726_);}
	.stb13{fill:url(#XMLID6_727_);}
	.stb14{fill:url(#XMLID6_728_);}
	.stb15{fill:url(#XMLID6_729_);}
	.stb16{fill:#036EB8;}
	.stb17{fill:#046FB9;}
	.stb18{fill:#0570B9;}
	.stb19{fill:#0571BA;}
	.stb20{fill:#0672BB;}
	.stb21{fill:#0773BC;}
	.stb22{fill:#0874BC;}
	.stb23{fill:#0875BD;}
	.stb24{fill:#0976BE;}
	.stb25{fill:#0A77BE;}
	.stb26{fill:#0B78BF;}
	.stb27{fill:#0B79C0;}
	.stb28{fill:#0C7AC1;}
	.stb29{fill:#0D7BC1;}
	.stb30{fill:#0E7CC2;}
	.stb31{fill:#0F7DC3;}
	.stb32{fill:#0F7EC3;}
	.stb33{fill:#107FC4;}
	.stb34{fill:#1180C5;}
	.stb35{fill:#1281C6;}
	.stb36{fill:#1282C6;}
	.stb37{fill:#1383C7;}
	.stb38{fill:#1484C8;}
	.stb39{fill:#1585C8;}
	.stb40{fill:#1586C9;}
	.stb41{fill:#1687CA;}
	.stb42{fill:#1788CB;}
	.stb43{fill:#1889CB;}
	.stb44{fill:#198BCC;}
	.stb45{fill:#198CCD;}
	.stb46{fill:#1A8DCD;}
	.stb47{fill:#1B8ECE;}
	.stb48{fill:#1C8FCF;}
	.stb49{fill:#1C90D0;}
	.stb50{fill:#1D91D0;}
	.stb51{fill:#1E92D1;}
	.stb52{fill:#1F93D2;}
	.stb53{fill:#1F94D2;}
	.stb54{fill:#2095D3;}
	.stb55{fill:#2196D4;}
	.stb56{fill:#2297D5;}
	.stb57{fill:#2298D5;}
	.stb58{fill:#2399D6;}
	.stb59{fill:#249AD7;}
	.stb60{fill:#259BD7;}
	.stb61{fill:#269CD8;}
	.stb62{fill:#269DD9;}
	.stb63{fill:#279EDA;}
	.stb64{fill:#289FDA;}
	.stb65{fill:#29A0DB;}
	.stb66{fill:#29A1DC;}
	.stb67{fill:#2AA2DC;}
	.stb68{fill:#2BA3DD;}
	.stb69{fill:#2CA4DE;}
	.stb70{fill:#2CA5DF;}
	.stb71{fill:#2DA6DF;}
	.stb72{fill:#2EA7E0;}
	.stb73{fill:#FFFFFF;}
	.tr1{
		transform-origin: 95px 128px
	}
</style>
<g id="XMLID6_459_">
	<path id="linea1_1_" class="stb0" d="M92.2,212.1l-49.5,31.6H24l-0.4-4.7c0,0,15.4,0.9,18.8,0c3.4-0.9,49.5-30.7,49.5-30.7
		L92.2,212.1"/>
	<path id="linea2_1_" class="stb1" d="M24,239.4l50.8-31.1h17.1l-49.5,31.1H24"/>
	<path id="linea3_1_" class="stb2" d="M64.1,182.2l-12.4,51.6H32.9L52.6,154L64.1,182.2"/>
	
		<linearGradient id="XMLID6_725_" gradientUnits="userSpaceOnUse" x1="200.2465" y1="389.6481" x2="144.8997" y2="237.5842" gradientTransform="matrix(1 0 0 1 0 -200)">
		<stop  offset="0" style="stop-color:#0D4A90"/>
		<stop  offset="0.4182" style="stop-color:#2B7ACA"/>
		<stop  offset="1" style="stop-color:#0D4A90"/>
	</linearGradient>
	<path id="XMLID6_872_" class="stb3" d="M255.2,117.8c0-32.1-26.5-59.4-61.8-65.6l-66.7-8l17,13.6c-25.7,11-43.4,33.9-43.4,60
		c0,32.1,26.2,59.2,61,65.8l-36,33.4l78.9-35.8c6.4-2,12.4-4.8,17.9-8.1l0,0h0C242.1,160.9,255.2,140.6,255.2,117.8z"/>
	<line id="linea7_1_" class="stb4" x1="41.9" y1="239.4" x2="42.3" y2="244.1"/>
	
		<linearGradient id="linea8_2_" gradientUnits="userSpaceOnUse" x1="112.7575" y1="209.173" x2="143.4755" y2="209.173" gradientTransform="matrix(1 0 0 1 0 -200)">
		<stop  offset="0" style="stop-color:#0D4A90"/>
		<stop  offset="0.4182" style="stop-color:#2B7ACA"/>
		<stop  offset="1" style="stop-color:#0D4A90"/>
	</linearGradient>
	<path id="linea8_1_" class="stb5" d="M112.8,18.3h30.7V0h-30.7V18.3"/>
	
		<linearGradient id="linea9_2_" gradientUnits="userSpaceOnUse" x1="117.4495" y1="224.1065" x2="138.7835" y2="224.1065" gradientTransform="matrix(1 0 0 1 0 -200)">
		<stop  offset="0" style="stop-color:#0D4A90"/>
		<stop  offset="0.4182" style="stop-color:#2B7ACA"/>
		<stop  offset="1" style="stop-color:#0D4A90"/>
	</linearGradient>
	<path id="linea9_1_" class="stb6" d="M117.4,29.9h21.3V18.3h-21.3L117.4,29.9"/>
	<path id="linea10_1_" class="stb7" d="M122.5,45.7h11.9V30.3h-11.9V45.7"/>
	<path id="linea11_1_" class="stb7" d="M122.5,45.7V30.3h0.4v15.4H122.5"/>
	<path id="linea12_1_" class="stb7" d="M122.5,45.7V30.3h0.9v15.4H122.5"/>
	<path id="linea13_1_" class="stb7" d="M123,45.7V30.3h0.9v15.4H123"/>
	<path id="linea14_1_" class="stb7" d="M123.4,45.7V30.3h0.9v15.4H123.4"/>
	<path id="linea15_1_" class="stb7" d="M123.8,45.7V30.3h0.9v15.4H123.8"/>
	<path id="linea16_1_" class="stb7" d="M124.2,45.7V30.3h0.9v15.4H124.2"/>
	<path id="linea17_1_" class="stb7" d="M124.7,45.7V30.3h0.9v15.4H124.7"/>
	<path id="linea18_1_" class="stb7" d="M125.1,45.7V30.3h0.9v15.4H125.1"/>
	<path id="linea19_1_" class="stb7" d="M125.5,45.7V30.3h0.9v15.4H125.5"/>
	<path id="linea20_1_" class="stb7" d="M126,45.7V30.3h0.9v15.4H126"/>
	<path id="linea21_1_" class="stb7" d="M126.4,45.7V30.3h0.9v15.4H126.4"/>
	<path id="linea22_1_" class="stb7" d="M126.8,45.7V30.3h0.9v15.4H126.8"/>
	<path id="linea23_1_" class="stb7" d="M127.2,45.7V30.3h0.9v15.4H127.2"/>
	<path id="linea24_1_" class="stb7" d="M127.7,45.7V30.3h0.9v15.4H127.7"/>
	<path id="linea25_1_" class="stb7" d="M128.1,45.7V30.3h0.9v15.4H128.1"/>
	<path id="linea26_1_" class="stb7" d="M128.5,45.7V30.3h0.9v15.4H128.5"/>
	<path id="linea27_1_" class="stb7" d="M128.9,45.7V30.3h0.9v15.4H128.9"/>
	<path id="linea28_1_" class="stb7" d="M129.4,45.7V30.3h0.9v15.4H129.4"/>
	<path id="linea29_1_" class="stb7" d="M129.8,45.7V30.3h0.9v15.4H129.8"/>
	<path id="linea30_1_" class="stb7" d="M130.2,45.7V30.3h0.9v15.4H130.2"/>
	<path id="linea31_1_" class="stb7" d="M130.6,45.7V30.3h0.9v15.4H130.6"/>
	<path id="linea32_1_" class="stb7" d="M131.1,45.7V30.3h0.9v15.4H131.1"/>
	<path id="linea33_1_" class="stb7" d="M131.5,45.7V30.3h0.9v15.4H131.5"/>
	<path id="linea34_1_" class="stb7" d="M131.9,45.7V30.3h0.9v15.4H131.9"/>
	<path id="linea35_1_" class="stb7" d="M132.4,45.7V30.3h0.9v15.4H132.4"/>
	<path id="linea36_1_" class="stb7" d="M132.8,45.7V30.3h0.9v15.4H132.8"/>
	<path id="linea37_1_" class="stb7" d="M133.2,45.7V30.3h0.9v15.4H133.2"/>
	<path id="linea38_1_" class="stb7" d="M133.6,45.7V30.3h0.9v15.4H133.6"/>
	<path id="linea39_1_" class="stb7" d="M134.1,45.7V30.3h0.9v15.4H134.1"/>
	<path id="linea40_1_" class="stb7" d="M134.5,45.7V30.3l0,0V45.7L134.5,45.7"/>
	
		<linearGradient id="linea41_2_" gradientUnits="userSpaceOnUse" x1="122.9955" y1="237.9745" x2="134.9445" y2="237.9745" gradientTransform="matrix(1 0 0 1 0 -200)">
		<stop  offset="0" style="stop-color:#0D4A90"/>
		<stop  offset="0.4182" style="stop-color:#2B7ACA"/>
		<stop  offset="1" style="stop-color:#0D4A90"/>
	</linearGradient>
	<path id="linea41_1_" class="stb8" d="M123,45.7h11.9V30.3H123V45.7"/>
	<path id="linea67_1_" class="stb1" d="M256.1,209.9l-49.5,31.6h-18.8v-4.7c0,0,15.4,0.9,18.3,0c3.4-0.9,49.9-30.7,49.9-30.7
		L256.1,209.9"/>
	<path id="linea68_1_" class="stb2" d="M187.8,237.2l50.3-31.1h17.5l-49.5,31.1H187.8"/>
	
		<linearGradient id="linea69_2_" gradientUnits="userSpaceOnUse" x1="8.648682e-02" y1="326.9335" x2="189.9525" y2="326.9335" gradientTransform="matrix(1 0 0 1 0 -200)">
		<stop  offset="0" style="stop-color:#0D4A90"/>
		<stop  offset="0.4182" style="stop-color:#2B7ACA"/>
		<stop  offset="1" style="stop-color:#0D4A90"/>
	</linearGradient>
	<path id="linea69_1_" class="stb9" d="M95.2,221.9c52.1,0,94.7-42.7,94.7-95.1C190,74.7,147.3,32,95.2,32C42.8,32,0.1,74.7,0.1,126.7
		C0.1,179.2,42.8,221.9,95.2,221.9L95.2,221.9"/>
	<line id="linea70_1_" class="stb4" x1="206.2" y1="237.2" x2="206.6" y2="241.9"/>
	<path id="linea73_1_" class="stb2" d="M227.1,166.8l9,41h15.4l-13.2-52.5L227.1,166.8"/>
	<path id="linea75_1_" class="stb1" d="M180,184.1l15.1,47.6h18.3l-19.7-61l-11.4,9.3"/>
	
		<radialGradient id="linea87_2_" cx="95.6515" cy="326.755" r="78.2005" gradientTransform="matrix(1 0 0 1 0 -200)" gradientUnits="userSpaceOnUse">
		<stop  offset="0" style="stop-color:#2EA7E0"/>
		<stop  offset="0.3132" style="stop-color:#2DA4DE"/>
		<stop  offset="0.5016" style="stop-color:#2A9CD7"/>
		<stop  offset="0.657" style="stop-color:#258ECA"/>
		<stop  offset="0.7943" style="stop-color:#1E7AB9"/>
		<stop  offset="0.9186" style="stop-color:#1560A3"/>
		<stop  offset="1" style="stop-color:#0D4A90"/>
	</radialGradient>
	<path id="linea87_4_" class="stb10" d="M95.8,205c43,0,78-35.4,78-78.4c0-43-35-78-78-78c-43,0-78.4,35-78.4,78
		C17.5,169.6,52.8,205,95.8,205L95.8,205"/>
	
		<radialGradient id="linea87_3_" cx="95.0204" cy="326.933" r="68.495" gradientTransform="matrix(1 0 0 1 0 -200)" gradientUnits="userSpaceOnUse">
		<stop  offset="0" style="stop-color:#B5B5B6"/>
		<stop  offset="0.503" style="stop-color:#DCDDDD"/>
		<stop  offset="0.8" style="stop-color:#B5B5B6"/>
	</radialGradient>
	<path id="linea87_1_" class="stb11" d="M95.2,195.4c37.7,0,68.3-31,68.3-68.7c0-37.7-30.6-68.3-68.3-68.3
		c-37.7,0-68.7,30.6-68.7,68.3C26.5,164.4,57.5,195.4,95.2,195.4L95.2,195.4"/>
	<g id="linea87_5_">
		
			<linearGradient id="XMLID6_726_" gradientUnits="userSpaceOnUse" x1="24.3645" y1="326.9325" x2="165.6785" y2="326.9325" gradientTransform="matrix(1 0 0 1 0 -200)">
			<stop  offset="0" style="stop-color:#B5B5B6"/>
			<stop  offset="0.503" style="stop-color:#DCDDDD"/>
			<stop  offset="1" style="stop-color:#B5B5B6"/>
		</linearGradient>
		<path id="XMLID6_869_" class="stb12" d="M95.2,197.6c-18.8,0-36.6-7.4-50-20.8s-20.8-31.2-20.8-50c0-38.9,31.8-70.5,70.8-70.5
			c38.9,0,70.5,31.6,70.5,70.5C165.7,165.8,134.1,197.6,95.2,197.6z M95.2,58.2c-38,0-68.9,30.8-68.9,68.6c0,38,30.9,68.9,68.9,68.9
			c37.8,0,68.6-30.9,68.6-68.9C163.8,88.9,133,58.2,95.2,58.2z"/>
	</g>
	<g id="XMLID6_460_6" class="tr1">
		<g id="XMLID6_867_">
			
				<linearGradient id="XMLID6_727_" gradientUnits="userSpaceOnUse" x1="64.4956" y1="295.5842" x2="117.4812" y2="295.5842" gradientTransform="matrix(1 0 0 1 0 -200)">
				<stop  offset="0.3152" style="stop-color:#2B7ACA"/>
				<stop  offset="1" style="stop-color:#0D4A90"/>
			</linearGradient>
			<path id="XMLID6_868_" class="stb13" d="M110.7,70.1c19,18.2-7.1,51.5-15.5,57.4c0,0,7.6-36.7-17.3-35.9
				c-8.3,0.3-16.5-8.1-12.3-16.9C70.5,64.6,98.3,58.2,110.7,70.1z"/>
		</g>
		<g id="XMLID6_865_">
			
				<linearGradient id="XMLID6_728_" gradientUnits="userSpaceOnUse" x1="37.2169" y1="351.6423" x2="95.2285" y2="351.6423" gradientTransform="matrix(1 0 0 1 0 -200)">
				<stop  offset="0" style="stop-color:#0D4A90"/>
				<stop  offset="0.6848" style="stop-color:#2B7ACA"/>
			</linearGradient>
			<path id="XMLID6_866_" class="stb14" d="M37.8,142.9c6.2-25.6,48.2-19.6,57.5-15.4c0,0-35.6,11.8-22.5,33c4.4,7,1.2,18.3-8.5,19.1
				C53.2,180.4,33.7,159.5,37.8,142.9z"/>
		</g>
		<g id="XMLID6_863_">
			
				<linearGradient id="XMLID6_729_" gradientUnits="userSpaceOnUse" x1="112.9947" y1="364.0876" x2="135.9997" y2="316.9203" gradientTransform="matrix(1 0 0 1 0 -200)">
				<stop  offset="0" style="stop-color:#0D4A90"/>
				<stop  offset="0.6848" style="stop-color:#2B7ACA"/>
			</linearGradient>
			<path id="XMLID6_864_" class="stb15" d="M137.3,169.6c-25.2,7.4-41.1-31.9-42.1-42.1c0,0,28,24.9,39.8,2.9
				c3.9-7.3,15.3-10.2,20.8-2.2C162.1,137.4,153.7,164.7,137.3,169.6z"/>
		</g>
		<g id="XMLID6_461_">
			<g id="XMLID6_503_">
				<path id="XMLID6_862_" class="stb16" d="M77.9,127.7L77.9,127.7c0-4.2,1.5-8,4-11.1C79.4,119.6,77.9,123.5,77.9,127.7z"/>
				<path id="XMLID6_861_" class="stb16" d="M83,115.4L83,115.4L83,115.4z"/>
				<path id="XMLID6_860_" class="stb16" d="M81.9,116.6c0.2-0.2,0.4-0.4,0.6-0.6C82.2,116.2,82,116.4,81.9,116.6z"/>
				<path id="XMLID6_859_" class="stb16" d="M95.3,145L95.3,145c5.1,0,9.6-2.2,12.8-5.7C104.9,142.8,100.4,145,95.3,145z"/>
				<path id="XMLID6_858_" class="stb16" d="M95.3,110.3C95.3,110.3,95.3,110.3,95.3,110.3c9.6,0,17.4,7.8,17.4,17.4v0
					C112.7,118.1,104.9,110.3,95.3,110.3z"/>
				<path id="XMLID6_855_" class="stb16" d="M95.3,110.3c-4.8,0-9.1,1.9-12.3,5.1l0,0c-0.2,0.2-0.4,0.4-0.6,0.6s-0.4,0.4-0.6,0.6
					c0,0,0,0,0,0c-2.5,3-4,6.9-4,11.1c0,9.6,7.8,17.4,17.4,17.4c5.1,0,9.6-2.2,12.8-5.7c2.8-3.1,4.6-7.2,4.6-11.7
					C112.7,118.1,104.9,110.3,95.3,110.3z M95.3,144.7c-9.4,0-17.1-7.6-17.1-17.1c0-9.4,7.6-17.1,17.1-17.1
					c9.4,0,17.1,7.6,17.1,17.1C112.4,137.1,104.7,144.7,95.3,144.7z"/>
				<path id="XMLID6_852_" class="stb17" d="M95.3,110.6c-9.4,0-17.1,7.6-17.1,17.1s7.6,17.1,17.1,17.1c9.4,0,17.1-7.6,17.1-17.1
					S104.7,110.6,95.3,110.6z M95.3,144.4c-9.3,0-16.8-7.5-16.8-16.8s7.5-16.8,16.8-16.8c9.3,0,16.8,7.5,16.8,16.8
					S104.5,144.4,95.3,144.4z"/>
				<path id="XMLID6_849_" class="stb18" d="M95.3,110.9c-9.3,0-16.8,7.5-16.8,16.8s7.5,16.8,16.8,16.8c9.3,0,16.8-7.5,16.8-16.8
					S104.5,110.9,95.3,110.9z M95.3,144.1c-9.1,0-16.5-7.4-16.5-16.5s7.4-16.5,16.5-16.5c9.1,0,16.5,7.4,16.5,16.5
					S104.4,144.1,95.3,144.1z"/>
				<path id="XMLID6_846_" class="stb19" d="M95.3,111.2c-9.1,0-16.5,7.4-16.5,16.5s7.4,16.5,16.5,16.5c9.1,0,16.5-7.4,16.5-16.5
					S104.4,111.2,95.3,111.2z M95.3,143.8c-8.9,0-16.2-7.2-16.2-16.2c0-8.9,7.2-16.2,16.2-16.2c8.9,0,16.2,7.2,16.2,16.2
					C111.4,136.6,104.2,143.8,95.3,143.8z"/>
				<path id="XMLID6_658_" class="stb20" d="M95.3,111.5c-8.9,0-16.2,7.2-16.2,16.2c0,8.9,7.2,16.2,16.2,16.2
					c8.9,0,16.2-7.2,16.2-16.2C111.4,118.7,104.2,111.5,95.3,111.5z M95.3,143.5c-8.8,0-15.9-7.1-15.9-15.9s7.1-15.9,15.9-15.9
					c8.8,0,15.9,7.1,15.9,15.9S104,143.5,95.3,143.5z"/>
				<path id="XMLID6_655_" class="stb21" d="M95.3,111.8c-8.8,0-15.9,7.1-15.9,15.9s7.1,15.9,15.9,15.9c8.8,0,15.9-7.1,15.9-15.9
					S104,111.8,95.3,111.8z M95.3,143.2c-8.6,0-15.6-7-15.6-15.6s7-15.6,15.6-15.6c8.6,0,15.6,7,15.6,15.6S103.9,143.2,95.3,143.2z"
					/>
				<path id="XMLID6_652_" class="stb22" d="M95.3,112.1c-8.6,0-15.6,7-15.6,15.6s7,15.6,15.6,15.6c8.6,0,15.6-7,15.6-15.6
					S103.9,112.1,95.3,112.1z M95.3,142.9c-8.4,0-15.2-6.8-15.2-15.2s6.8-15.2,15.2-15.2c8.4,0,15.2,6.8,15.2,15.2
					S103.7,142.9,95.3,142.9z"/>
				<path id="XMLID6_649_" class="stb23" d="M95.3,112.4c-8.4,0-15.2,6.8-15.2,15.2s6.8,15.2,15.2,15.2c8.4,0,15.2-6.8,15.2-15.2
					S103.7,112.4,95.3,112.4z M95.3,142.6c-8.3,0-14.9-6.7-14.9-14.9c0-8.3,6.7-14.9,14.9-14.9s14.9,6.7,14.9,14.9
					C110.2,135.9,103.5,142.6,95.3,142.6z"/>
				<path id="XMLID6_646_" class="stb24" d="M95.3,112.7c-8.3,0-14.9,6.7-14.9,14.9c0,8.3,6.7,14.9,14.9,14.9s14.9-6.7,14.9-14.9
					C110.2,119.4,103.5,112.7,95.3,112.7z M95.3,142.3c-8.1,0-14.6-6.6-14.6-14.6c0-8.1,6.6-14.6,14.6-14.6
					c8.1,0,14.6,6.6,14.6,14.6C109.9,135.7,103.4,142.3,95.3,142.3z"/>
				<path id="XMLID6_643_" class="stb25" d="M95.3,113c-8.1,0-14.6,6.6-14.6,14.6c0,8.1,6.6,14.6,14.6,14.6c8.1,0,14.6-6.6,14.6-14.6
					C109.9,119.6,103.4,113,95.3,113z M95.3,142c-7.9,0-14.3-6.4-14.3-14.3c0-7.9,6.4-14.3,14.3-14.3c7.9,0,14.3,6.4,14.3,14.3
					C109.6,135.6,103.2,142,95.3,142z"/>
				<path id="XMLID6_640_" class="stb26" d="M95.3,113.3c-7.9,0-14.3,6.4-14.3,14.3c0,7.9,6.4,14.3,14.3,14.3
					c7.9,0,14.3-6.4,14.3-14.3C109.6,119.7,103.2,113.3,95.3,113.3z M95.3,141.7c-7.7,0-14-6.3-14-14s6.3-14,14-14
					c7.8,0,14,6.3,14,14S103,141.7,95.3,141.7z"/>
				<path id="XMLID6_637_" class="stb27" d="M95.3,113.6c-7.7,0-14,6.3-14,14s6.3,14,14,14c7.8,0,14-6.3,14-14S103,113.6,95.3,113.6z
					 M95.3,141.4c-7.6,0-13.7-6.1-13.7-13.7s6.1-13.7,13.7-13.7c7.6,0,13.7,6.1,13.7,13.7S102.9,141.4,95.3,141.4z"/>
				<path id="XMLID6_634_" class="stb28" d="M95.3,113.9c-7.6,0-13.7,6.1-13.7,13.7s6.1,13.7,13.7,13.7c7.6,0,13.7-6.1,13.7-13.7
					S102.9,113.9,95.3,113.9z M95.3,141.1c-7.4,0-13.4-6-13.4-13.4c0-7.4,6-13.4,13.4-13.4c7.4,0,13.4,6,13.4,13.4
					C108.7,135.1,102.7,141.1,95.3,141.1z"/>
				<path id="XMLID6_631_" class="stb29" d="M95.3,114.2c-7.4,0-13.4,6-13.4,13.4c0,7.4,6,13.4,13.4,13.4c7.4,0,13.4-6,13.4-13.4
					C108.7,120.2,102.7,114.2,95.3,114.2z M95.3,140.8c-7.2,0-13.1-5.9-13.1-13.1c0-7.2,5.9-13.1,13.1-13.1
					c7.2,0,13.1,5.9,13.1,13.1C108.4,134.9,102.5,140.8,95.3,140.8z"/>
				<path id="XMLID6_628_" class="stb30" d="M95.3,114.5c-7.2,0-13.1,5.9-13.1,13.1c0,7.2,5.9,13.1,13.1,13.1
					c7.2,0,13.1-5.9,13.1-13.1C108.4,120.4,102.5,114.5,95.3,114.5z M95.3,140.5c-7.1,0-12.8-5.7-12.8-12.8s5.7-12.8,12.8-12.8
					c7.1,0,12.8,5.7,12.8,12.8S102.4,140.5,95.3,140.5z"/>
				<path id="XMLID6_625_" class="stb31" d="M95.3,114.8c-7.1,0-12.8,5.7-12.8,12.8s5.7,12.8,12.8,12.8c7.1,0,12.8-5.7,12.8-12.8
					S102.4,114.8,95.3,114.8z M95.3,140.2c-6.9,0-12.5-5.6-12.5-12.5c0-6.9,5.6-12.5,12.5-12.5c6.9,0,12.5,5.6,12.5,12.5
					C107.8,134.6,102.2,140.2,95.3,140.2z"/>
				<path id="XMLID6_622_" class="stb32" d="M95.3,115.2c-6.9,0-12.5,5.6-12.5,12.5c0,6.9,5.6,12.5,12.5,12.5
					c6.9,0,12.5-5.6,12.5-12.5C107.8,120.8,102.2,115.2,95.3,115.2z M95.3,139.9c-6.7,0-12.2-5.5-12.2-12.2
					c0-6.7,5.5-12.2,12.2-12.2c6.7,0,12.2,5.5,12.2,12.2C107.5,134.4,102,139.9,95.3,139.9z"/>
				<path id="XMLID6_619_" class="stb33" d="M95.3,115.5c-6.7,0-12.2,5.5-12.2,12.2c0,6.7,5.5,12.2,12.2,12.2
					c6.7,0,12.2-5.5,12.2-12.2C107.5,120.9,102,115.5,95.3,115.5z M95.3,139.6c-6.6,0-11.9-5.3-11.9-11.9s5.3-11.9,11.9-11.9
					c6.6,0,11.9,5.3,11.9,11.9C107.2,134.2,101.8,139.6,95.3,139.6z"/>
				<path id="XMLID6_616_" class="stb34" d="M95.3,115.8c-6.6,0-11.9,5.3-11.9,11.9c0,6.6,5.3,11.9,11.9,11.9
					c6.6,0,11.9-5.3,11.9-11.9C107.2,121.1,101.8,115.8,95.3,115.8z M95.3,139.2c-6.4,0-11.6-5.2-11.6-11.6s5.2-11.6,11.6-11.6
					c6.4,0,11.6,5.2,11.6,11.6S101.7,139.2,95.3,139.2z"/>
				<path id="XMLID6_613_" class="stb35" d="M95.3,116.1c-6.4,0-11.6,5.2-11.6,11.6s5.2,11.6,11.6,11.6c6.4,0,11.6-5.2,11.6-11.6
					S101.7,116.1,95.3,116.1z M95.3,138.9c-6.2,0-11.3-5.1-11.3-11.3s5.1-11.3,11.3-11.3c6.2,0,11.3,5.1,11.3,11.3
					S101.5,138.9,95.3,138.9z"/>
				<path id="XMLID6_610_" class="stb36" d="M95.3,116.4c-6.2,0-11.3,5.1-11.3,11.3s5.1,11.3,11.3,11.3c6.2,0,11.3-5.1,11.3-11.3
					S101.5,116.4,95.3,116.4z M95.3,138.6c-6.1,0-11-4.9-11-11s4.9-11,11-11c6.1,0,11,4.9,11,11C106.3,133.7,101.3,138.6,95.3,138.6
					z"/>
				<path id="XMLID6_607_" class="stb37" d="M95.3,116.7c-6.1,0-11,4.9-11,11c0,6.1,4.9,11,11,11c6.1,0,11-4.9,11-11
					C106.3,121.6,101.3,116.7,95.3,116.7z M95.3,138.3c-5.9,0-10.7-4.8-10.7-10.7c0-5.9,4.8-10.7,10.7-10.7
					c5.9,0,10.7,4.8,10.7,10.7C106,133.6,101.2,138.3,95.3,138.3z"/>
				<path id="XMLID6_604_" class="stb38" d="M95.3,117c-5.9,0-10.7,4.8-10.7,10.7c0,5.9,4.8,10.7,10.7,10.7c5.9,0,10.7-4.8,10.7-10.7
					C106,121.8,101.2,117,95.3,117z M95.3,138c-5.7,0-10.4-4.6-10.4-10.4s4.6-10.4,10.4-10.4c5.7,0,10.4,4.6,10.4,10.4
					S101,138,95.3,138z"/>
				<path id="XMLID6_601_" class="stb39" d="M95.3,117.3c-5.7,0-10.4,4.6-10.4,10.4S89.6,138,95.3,138c5.7,0,10.4-4.6,10.4-10.4
					S101,117.3,95.3,117.3z M95.3,137.7c-5.6,0-10.1-4.5-10.1-10.1c0-5.6,4.5-10.1,10.1-10.1c5.6,0,10.1,4.5,10.1,10.1
					C105.3,133.2,100.8,137.7,95.3,137.7z"/>
				<path id="XMLID6_598_" class="stb40" d="M95.3,117.6c-5.6,0-10.1,4.5-10.1,10.1s4.5,10.1,10.1,10.1c5.6,0,10.1-4.5,10.1-10.1
					C105.3,122.1,100.8,117.6,95.3,117.6z M95.3,137.4c-5.4,0-9.8-4.4-9.8-9.8c0-5.4,4.4-9.8,9.8-9.8c5.4,0,9.8,4.4,9.8,9.8
					C105,133,100.7,137.4,95.3,137.4z"/>
				<path id="XMLID6_595_" class="stb41" d="M95.3,117.9c-5.4,0-9.8,4.4-9.8,9.8c0,5.4,4.4,9.8,9.8,9.8c5.4,0,9.8-4.4,9.8-9.8
					C105,122.3,100.7,117.9,95.3,117.9z M95.3,137.1c-5.2,0-9.5-4.2-9.5-9.5c0-5.2,4.2-9.5,9.5-9.5c5.2,0,9.5,4.2,9.5,9.5
					S100.5,137.1,95.3,137.1z"/>
				<path id="XMLID6_592_" class="stb42" d="M95.3,118.2c-5.2,0-9.5,4.2-9.5,9.5c0,5.2,4.2,9.5,9.5,9.5c5.2,0,9.5-4.2,9.5-9.5
					C104.7,122.4,100.5,118.2,95.3,118.2z M95.3,136.8c-5.1,0-9.1-4.1-9.1-9.1s4.1-9.1,9.1-9.1c5.1,0,9.1,4.1,9.1,9.1
					S100.3,136.8,95.3,136.8z"/>
				<path id="XMLID6_589_" class="stb43" d="M95.3,118.5c-5.1,0-9.1,4.1-9.1,9.1s4.1,9.1,9.1,9.1c5.1,0,9.1-4.1,9.1-9.1
					S100.3,118.5,95.3,118.5z M95.3,136.5c-4.9,0-8.8-4-8.8-8.8s4-8.8,8.8-8.8c4.9,0,8.8,4,8.8,8.8S100.2,136.5,95.3,136.5z"/>
				<path id="XMLID6_586_" class="stb44" d="M95.3,118.8c-4.9,0-8.8,4-8.8,8.8s4,8.8,8.8,8.8c4.9,0,8.8-4,8.8-8.8
					S100.2,118.8,95.3,118.8z M95.3,136.2c-4.7,0-8.5-3.8-8.5-8.5c0-4.7,3.8-8.5,8.5-8.5c4.7,0,8.5,3.8,8.5,8.5
					C103.8,132.4,100,136.2,95.3,136.2z"/>
				<path id="XMLID6_583_" class="stb45" d="M95.3,119.1c-4.7,0-8.5,3.8-8.5,8.5c0,4.7,3.8,8.5,8.5,8.5c4.7,0,8.5-3.8,8.5-8.5
					S100,119.1,95.3,119.1z M95.3,135.9c-4.5,0-8.2-3.7-8.2-8.2s3.7-8.2,8.2-8.2c4.5,0,8.2,3.7,8.2,8.2
					C103.5,132.2,99.8,135.9,95.3,135.9z"/>
				<path id="XMLID6_580_" class="stb46" d="M95.3,119.4c-4.5,0-8.2,3.7-8.2,8.2c0,4.5,3.7,8.2,8.2,8.2c4.5,0,8.2-3.7,8.2-8.2
					C103.5,123.1,99.8,119.4,95.3,119.4z M95.3,135.6c-4.4,0-7.9-3.6-7.9-7.9s3.5-7.9,7.9-7.9c4.4,0,7.9,3.6,7.9,7.9
					S99.7,135.6,95.3,135.6z"/>
				<path id="XMLID6_577_" class="stb47" d="M95.3,119.7c-4.4,0-7.9,3.6-7.9,7.9s3.5,7.9,7.9,7.9c4.4,0,7.9-3.6,7.9-7.9
					S99.7,119.7,95.3,119.7z M95.3,135.3c-4.2,0-7.6-3.4-7.6-7.6c0-4.2,3.4-7.6,7.6-7.6c4.2,0,7.6,3.4,7.6,7.6
					C102.9,131.9,99.5,135.3,95.3,135.3z"/>
				<path id="XMLID6_574_" class="stb48" d="M95.3,120c-4.2,0-7.6,3.4-7.6,7.6c0,4.2,3.4,7.6,7.6,7.6c4.2,0,7.6-3.4,7.6-7.6
					C102.9,123.4,99.5,120,95.3,120z M95.3,135c-4,0-7.3-3.3-7.3-7.3c0-4,3.3-7.3,7.3-7.3c4,0,7.3,3.3,7.3,7.3
					C102.6,131.7,99.3,135,95.3,135z"/>
				<path id="XMLID6_571_" class="stb49" d="M95.3,120.3c-4,0-7.3,3.3-7.3,7.3c0,4,3.3,7.3,7.3,7.3c4,0,7.3-3.3,7.3-7.3
					C102.6,123.6,99.3,120.3,95.3,120.3z M95.3,134.7c-3.9,0-7-3.1-7-7c0-3.9,3.1-7,7-7c3.9,0,7,3.1,7,7
					C102.3,131.5,99.2,134.7,95.3,134.7z"/>
				<path id="XMLID6_568_" class="stb50" d="M95.3,120.6c-3.9,0-7,3.1-7,7c0,3.9,3.1,7,7,7c3.9,0,7-3.1,7-7
					C102.3,123.8,99.2,120.6,95.3,120.6z M95.3,134.4c-3.7,0-6.7-3-6.7-6.7s3-6.7,6.7-6.7c3.7,0,6.7,3,6.7,6.7S99,134.4,95.3,134.4z
					"/>
				<path id="XMLID6_565_" class="stb51" d="M95.3,120.9c-3.7,0-6.7,3-6.7,6.7s3,6.7,6.7,6.7c3.7,0,6.7-3,6.7-6.7S99,120.9,95.3,120.9
					z M95.3,134.1c-3.5,0-6.4-2.9-6.4-6.4c0-3.5,2.9-6.4,6.4-6.4c3.5,0,6.4,2.9,6.4,6.4C101.7,131.2,98.8,134.1,95.3,134.1z"/>
				<path id="XMLID6_562_" class="stb52" d="M95.3,121.3c-3.5,0-6.4,2.9-6.4,6.4c0,3.5,2.9,6.4,6.4,6.4c3.5,0,6.4-2.9,6.4-6.4
					C101.7,124.1,98.8,121.3,95.3,121.3z M95.3,133.8c-3.4,0-6.1-2.7-6.1-6.1s2.7-6.1,6.1-6.1c3.4,0,6.1,2.7,6.1,6.1
					C101.4,131,98.6,133.8,95.3,133.8z"/>
				<path id="XMLID6_559_" class="stb53" d="M95.3,121.6c-3.4,0-6.1,2.7-6.1,6.1c0,3.4,2.7,6.1,6.1,6.1c3.4,0,6.1-2.7,6.1-6.1
					C101.4,124.3,98.6,121.6,95.3,121.6z M95.3,133.4c-3.2,0-5.8-2.6-5.8-5.8c0-3.2,2.6-5.8,5.8-5.8c3.2,0,5.8,2.6,5.8,5.8
					C101.1,130.9,98.5,133.4,95.3,133.4z"/>
				<path id="XMLID6_556_" class="stb54" d="M95.3,121.9c-3.2,0-5.8,2.6-5.8,5.8c0,3.2,2.6,5.8,5.8,5.8c3.2,0,5.8-2.6,5.8-5.8
					C101.1,124.5,98.5,121.9,95.3,121.9z M95.3,133.1c-3,0-5.5-2.5-5.5-5.5s2.5-5.5,5.5-5.5s5.5,2.5,5.5,5.5S98.3,133.1,95.3,133.1z
					"/>
				<path id="XMLID6_553_" class="stb55" d="M95.3,122.2c-3,0-5.5,2.5-5.5,5.5s2.5,5.5,5.5,5.5s5.5-2.5,5.5-5.5S98.3,122.2,95.3,122.2
					z M95.3,132.8c-2.9,0-5.2-2.3-5.2-5.2s2.3-5.2,5.2-5.2c2.9,0,5.2,2.3,5.2,5.2S98.1,132.8,95.3,132.8z"/>
				<path id="XMLID6_550_" class="stb56" d="M95.3,122.5c-2.9,0-5.2,2.3-5.2,5.2s2.3,5.2,5.2,5.2c2.9,0,5.2-2.3,5.2-5.2
					S98.1,122.5,95.3,122.5z M95.3,132.5c-2.7,0-4.9-2.2-4.9-4.9s2.2-4.9,4.9-4.9c2.7,0,4.9,2.2,4.9,4.9S98,132.5,95.3,132.5z"/>
				<path id="XMLID6_547_" class="stb57" d="M95.3,122.8c-2.7,0-4.9,2.2-4.9,4.9s2.2,4.9,4.9,4.9c2.7,0,4.9-2.2,4.9-4.9
					S98,122.8,95.3,122.8z M95.3,132.2c-2.5,0-4.6-2-4.6-4.6c0-2.5,2-4.6,4.6-4.6s4.6,2,4.6,4.6C99.9,130.2,97.8,132.2,95.3,132.2z"
					/>
				<path id="XMLID6_544_" class="stb58" d="M95.3,123.1c-2.5,0-4.6,2-4.6,4.6c0,2.5,2,4.6,4.6,4.6s4.6-2,4.6-4.6
					C99.9,125.1,97.8,123.1,95.3,123.1z M95.3,131.9c-2.4,0-4.3-1.9-4.3-4.3s1.9-4.3,4.3-4.3c2.4,0,4.3,1.9,4.3,4.3
					C99.6,130,97.6,131.9,95.3,131.9z"/>
				<path id="XMLID6_541_" class="stb59" d="M95.3,123.4c-2.4,0-4.3,1.9-4.3,4.3c0,2.4,1.9,4.3,4.3,4.3c2.4,0,4.3-1.9,4.3-4.3
					C99.6,125.3,97.6,123.4,95.3,123.4z M95.3,131.6c-2.2,0-4-1.8-4-4s1.8-4,4-4s4,1.8,4,4C99.2,129.8,97.5,131.6,95.3,131.6z"/>
				<path id="XMLID6_538_" class="stb60" d="M95.3,123.7c-2.2,0-4,1.8-4,4c0,2.2,1.8,4,4,4s4-1.8,4-4
					C99.2,125.5,97.5,123.7,95.3,123.7z M95.3,131.3c-2,0-3.7-1.6-3.7-3.7s1.6-3.7,3.7-3.7s3.7,1.6,3.7,3.7S97.3,131.3,95.3,131.3z"
					/>
				<path id="XMLID6_535_" class="stb61" d="M95.3,124c-2,0-3.7,1.6-3.7,3.7s1.6,3.7,3.7,3.7s3.7-1.6,3.7-3.7S97.3,124,95.3,124z
					 M95.3,131c-1.9,0-3.4-1.5-3.4-3.4c0-1.9,1.5-3.4,3.4-3.4c1.9,0,3.4,1.5,3.4,3.4C98.6,129.5,97.1,131,95.3,131z"/>
				<path id="XMLID6_532_" class="stb62" d="M95.3,124.3c-1.9,0-3.4,1.5-3.4,3.4c0,1.9,1.5,3.4,3.4,3.4c1.9,0,3.4-1.5,3.4-3.4
					C98.6,125.8,97.1,124.3,95.3,124.3z M95.3,130.7c-1.7,0-3-1.4-3-3s1.4-3.1,3-3.1c1.7,0,3.1,1.4,3.1,3.1S97,130.7,95.3,130.7z"/>
				<path id="XMLID6_529_" class="stb63" d="M95.3,124.6c-1.7,0-3,1.4-3,3.1s1.4,3,3,3c1.7,0,3.1-1.4,3.1-3S97,124.6,95.3,124.6z
					 M95.3,130.4c-1.5,0-2.7-1.2-2.7-2.7s1.2-2.7,2.7-2.7s2.7,1.2,2.7,2.7S96.8,130.4,95.3,130.4z"/>
				<path id="XMLID6_526_" class="stb64" d="M95.3,124.9c-1.5,0-2.7,1.2-2.7,2.7s1.2,2.7,2.7,2.7s2.7-1.2,2.7-2.7
					S96.8,124.9,95.3,124.9z M95.3,130.1c-1.3,0-2.4-1.1-2.4-2.4c0-1.3,1.1-2.4,2.4-2.4c1.3,0,2.4,1.1,2.4,2.4
					C97.7,129,96.6,130.1,95.3,130.1z"/>
				<path id="XMLID6_523_" class="stb65" d="M95.3,125.2c-1.3,0-2.4,1.1-2.4,2.4s1.1,2.4,2.4,2.4c1.3,0,2.4-1.1,2.4-2.4
					C97.7,126.3,96.6,125.2,95.3,125.2z M95.3,129.8c-1.2,0-2.1-1-2.1-2.1c0-1.2,1-2.1,2.1-2.1c1.2,0,2.1,1,2.1,2.1
					C97.4,128.8,96.5,129.8,95.3,129.8z"/>
				<path id="XMLID6_520_" class="stb66" d="M95.3,125.5c-1.2,0-2.1,1-2.1,2.1c0,1.2,1,2.1,2.1,2.1c1.2,0,2.1-1,2.1-2.1
					C97.4,126.5,96.5,125.5,95.3,125.5z M95.3,129.5c-1,0-1.8-0.8-1.8-1.8c0-1,0.8-1.8,1.8-1.8c1,0,1.8,0.8,1.8,1.8
					C97.1,128.7,96.3,129.5,95.3,129.5z"/>
				<path id="XMLID6_517_" class="stb67" d="M95.3,125.8c-1,0-1.8,0.8-1.8,1.8c0,1,0.8,1.8,1.8,1.8c1,0,1.8-0.8,1.8-1.8
					C97.1,126.6,96.3,125.8,95.3,125.8z M95.3,129.2c-0.8,0-1.5-0.7-1.5-1.5s0.7-1.5,1.5-1.5c0.8,0,1.5,0.7,1.5,1.5
					S96.1,129.2,95.3,129.2z"/>
				<path id="XMLID6_514_" class="stb68" d="M95.3,126.1c-0.8,0-1.5,0.7-1.5,1.5s0.7,1.5,1.5,1.5c0.8,0,1.5-0.7,1.5-1.5
					S96.1,126.1,95.3,126.1z M95.3,128.9c-0.7,0-1.2-0.5-1.2-1.2s0.5-1.2,1.2-1.2c0.7,0,1.2,0.5,1.2,1.2S96,128.9,95.3,128.9z"/>
				<path id="XMLID6_511_" class="stb69" d="M95.3,126.4c-0.7,0-1.2,0.5-1.2,1.2s0.5,1.2,1.2,1.2c0.7,0,1.2-0.5,1.2-1.2
					S96,126.4,95.3,126.4z M95.3,128.6c-0.5,0-0.9-0.4-0.9-0.9s0.4-0.9,0.9-0.9c0.5,0,0.9,0.4,0.9,0.9S95.8,128.6,95.3,128.6z"/>
				<path id="XMLID6_508_" class="stb70" d="M95.3,126.7c-0.5,0-0.9,0.4-0.9,0.9s0.4,0.9,0.9,0.9c0.5,0,0.9-0.4,0.9-0.9
					S95.8,126.7,95.3,126.7z M95.3,128.3c-0.3,0-0.6-0.3-0.6-0.6c0-0.3,0.3-0.6,0.6-0.6s0.6,0.3,0.6,0.6S95.6,128.3,95.3,128.3z"/>
				<path id="XMLID6_505_" class="stb71" d="M95.3,127c-0.3,0-0.6,0.3-0.6,0.6c0,0.3,0.3,0.6,0.6,0.6s0.6-0.3,0.6-0.6
					C95.9,127.3,95.6,127,95.3,127z M95.3,128c-0.2,0-0.3-0.1-0.3-0.3s0.1-0.3,0.3-0.3c0.2,0,0.3,0.1,0.3,0.3S95.4,128,95.3,128z"/>
				<circle id="XMLID6_504_" class="stb72" cx="95.3" cy="127.7" r="0.3"/>
			</g>
			<path id="XMLID6_500_" class="stb73" d="M95.3,146.3c-10.3,0-18.6-8.4-18.6-18.6c0-10.3,8.4-18.6,18.6-18.6
				c10.3,0,18.6,8.4,18.6,18.6C113.9,137.9,105.5,146.3,95.3,146.3z M95.3,111.5c-8.9,0-16.1,7.2-16.1,16.1
				c0,8.9,7.2,16.1,16.1,16.1c8.9,0,16.1-7.2,16.1-16.1C111.4,118.8,104.2,111.5,95.3,111.5z"/>
		</g>
	</g>
</g>
</svg>
