<?xml version="1.0" encoding="utf-8"?>
<svg viewBox="0 0 829 86" width="829" height="86" hape-rendering="geometricPrecision" xmlns:a="http://www.adobe.com/svg10-extensions" xmlns="http://www.w3.org/2000/svg" xmlns:xlink="http://www.w3.org/1999/xlink">
<style type="text/css">
	.st0{fill:#B5B5B6;}
	.stdc1{fill:#969696;}
	.stdc2{fill:url(#XMLIDDC_1070_);stroke:#7A6A56;stroke-width:6;stroke-miterlimit:10;}
	.stdc3{opacity:0.6;enable-background:new    ;}
	.stdc4{fill:#BABDD9;}
	.stdc5{fill:#BABDD9;stroke:#604C3F;stroke-width:2;stroke-miterlimit:10;}
	.stdc6{fill:#7A6A56;}
</style>
<g id="XMLIDDC_552_">
	<path id="XMLIDDC_1030_" class="st0" d="M963.8,16.4c0,6.8-5.5,12.4-12.4,12.4H539.9c-6.8,0-12.4-5.5-12.4-12.4l0,0
		c0-6.8,5.5-12.4,12.4-12.4h411.6C958.3,4,963.8,9.5,963.8,16.4L963.8,16.4z"/>
	<path id="XMLIDDC_1029_" class="st0" d="M924,25.3c-1.3,0.9-3.1,1.7-4,1.7H6.2c-0.9,0-0.6-0.8,0.7-1.7L34.7,5.4
		c1.3-0.9,3.1-1.7,4-1.7h913.9c0.9,0,0.6,0.8-0.7,1.7L924,25.3z"/>
	<path id="XMLIDDC_1028_" class="st0" d="M931.7,48.5c-1.3,1.1-3.1,2-4,2H510.9c-0.9,0-0.6-0.9,0.7-2l27.8-23.6c1.3-1.1,3.1-2,4-2
		h416.8c0.9,0,0.6,0.9-0.7,2L931.7,48.5z"/>
	<g id="XMLIDDC_638_">
		<g id="XMLIDDC_865_">
			<g id="XMLIDDC_947_">
				<polygon id="XMLIDDC_1027_" class="stdc1" points="881.2,24 898.4,7.9 887.6,24 				"/>
				<polygon id="XMLIDDC_1026_" class="stdc1" points="881.2,24 898.4,7.9 887.6,24 				"/>
				<polygon id="XMLIDDC_1025_" class="stdc1" points="881.2,24 898.4,7.9 887.6,24 				"/>
				<polygon id="XMLIDDC_1024_" class="stdc1" points="881.2,24 898.4,7.9 887.6,24 				"/>
				<polyline id="XMLIDDC_1023_" class="stdc1" points="807,24 800.6,24 817.9,7.9 				"/>
				<polygon id="XMLIDDC_1022_" class="stdc1" points="800.6,24 817.9,7.9 807,24 				"/>
				<polyline id="XMLIDDC_1021_" class="stdc1" points="807,24 800.6,24 817.9,7.9 				"/>
				<polygon id="XMLIDDC_1020_" class="stdc1" points="800.6,24 817.9,7.9 807,24 				"/>
				<polygon id="XMLIDDC_1019_" class="stdc1" points="841.1,24 858.4,7.9 847.5,24 				"/>
				<polygon id="XMLIDDC_1018_" class="stdc1" points="841.1,24 858.4,7.9 847.5,24 				"/>
				<polygon id="XMLIDDC_1017_" class="stdc1" points="800.6,24 817.9,7.9 807,24 				"/>
				<polygon id="XMLIDDC_1016_" class="stdc1" points="841.1,24 858.4,7.9 847.5,24 				"/>
				<polygon id="XMLIDDC_1015_" class="stdc1" points="800.6,24 817.9,7.9 807,24 				"/>
				<polygon id="XMLIDDC_1014_" class="stdc1" points="841.1,24 858.4,7.9 847.5,24 				"/>
				<polyline id="XMLIDDC_1013_" class="stdc1" points="807,24 800.6,24 817.9,7.9 				"/>
				<polygon id="XMLIDDC_1012_" class="stdc1" points="800.6,24 817.9,7.9 807,24 				"/>
				<polyline id="XMLIDDC_1011_" class="stdc1" points="807,24 800.6,24 817.9,7.9 				"/>
				<polygon id="XMLIDDC_1010_" class="stdc1" points="800.6,24 817.9,7.9 807,24 				"/>
				<polygon id="XMLIDDC_1009_" class="stdc1" points="841.1,24 858.4,7.9 847.5,24 				"/>
				<polygon id="XMLIDDC_1008_" class="stdc1" points="841.1,24 858.4,7.9 847.5,24 				"/>
				<polygon id="XMLIDDC_1007_" class="stdc1" points="800.6,24 817.9,7.9 807,24 				"/>
				<polygon id="XMLIDDC_1006_" class="stdc1" points="841.1,24 858.4,7.9 847.5,24 				"/>
				<polygon id="XMLIDDC_1005_" class="stdc1" points="800.6,24 817.9,7.9 807,24 				"/>
				<polygon id="XMLIDDC_1004_" class="stdc1" points="841.1,24 858.4,7.9 847.5,24 				"/>
				<polyline id="XMLIDDC_1003_" class="stdc1" points="650.4,24 644,24 661.2,7.9 				"/>
				<polygon id="XMLIDDC_1002_" class="stdc1" points="644,24 661.2,7.9 650.4,24 				"/>
				<polyline id="XMLIDDC_1001_" class="stdc1" points="650.4,24 644,24 661.2,7.9 				"/>
				<polygon id="XMLIDDC_1000_" class="stdc1" points="644,24 661.2,7.9 650.4,24 				"/>
				<polygon id="XMLIDDC_999_" class="stdc1" points="684.5,24 701.7,7.9 690.9,24 				"/>
				<polygon id="XMLIDDC_998_" class="stdc1" points="684.5,24 701.7,7.9 690.9,24 				"/>
				<polygon id="XMLIDDC_997_" class="stdc1" points="644,24 661.2,7.9 650.4,24 				"/>
				<polygon id="XMLIDDC_996_" class="stdc1" points="684.5,24 701.7,7.9 690.9,24 				"/>
				<polygon id="XMLIDDC_995_" class="stdc1" points="724.5,24 741.8,7.9 730.9,24 				"/>
				<polygon id="XMLIDDC_994_" class="stdc1" points="765.1,24 782.3,7.9 771.4,24 				"/>
				<polygon id="XMLIDDC_993_" class="stdc1" points="644,24 661.2,7.9 650.4,24 				"/>
				<polygon id="XMLIDDC_992_" class="stdc1" points="684.5,24 701.7,7.9 690.9,24 				"/>
				<polygon id="XMLIDDC_991_" class="stdc1" points="724.5,24 741.8,7.9 730.9,24 				"/>
				<polygon id="XMLIDDC_990_" class="stdc1" points="765.1,24 782.3,7.9 771.4,24 				"/>
				<polyline id="XMLIDDC_989_" class="stdc1" points="650.4,24 644,24 661.2,7.9 				"/>
				<polygon id="XMLIDDC_988_" class="stdc1" points="644,24 661.2,7.9 650.4,24 				"/>
				<polyline id="XMLIDDC_987_" class="stdc1" points="650.4,24 644,24 661.2,7.9 				"/>
				<polygon id="XMLIDDC_986_" class="stdc1" points="644,24 661.2,7.9 650.4,24 				"/>
				<polygon id="XMLIDDC_985_" class="stdc1" points="684.5,24 701.7,7.9 690.9,24 				"/>
				<polygon id="XMLIDDC_984_" class="stdc1" points="684.5,24 701.7,7.9 690.9,24 				"/>
				<polygon id="XMLIDDC_983_" class="stdc1" points="644,24 661.2,7.9 650.4,24 				"/>
				<polygon id="XMLIDDC_982_" class="stdc1" points="684.5,24 701.7,7.9 690.9,24 				"/>
				<polygon id="XMLIDDC_981_" class="stdc1" points="724.5,24 741.8,7.9 730.9,24 				"/>
				<polygon id="XMLIDDC_980_" class="stdc1" points="765.1,24 782.3,7.9 771.4,24 				"/>
				<polygon id="XMLIDDC_979_" class="stdc1" points="644,24 661.2,7.9 650.4,24 				"/>
				<polygon id="XMLIDDC_978_" class="stdc1" points="684.5,24 701.7,7.9 690.9,24 				"/>
				<polygon id="XMLIDDC_977_" class="stdc1" points="724.5,24 741.8,7.9 730.9,24 				"/>
				<polygon id="XMLIDDC_976_" class="stdc1" points="765.1,24 782.3,7.9 771.4,24 				"/>
				<polyline id="XMLIDDC_975_" class="stdc1" points="488.7,24 482.3,24 499.6,7.9 				"/>
				<polygon id="XMLIDDC_974_" class="stdc1" points="482.3,24 499.6,7.9 488.7,24 				"/>
				<polyline id="XMLIDDC_973_" class="stdc1" points="488.7,24 482.3,24 499.6,7.9 				"/>
				<polygon id="XMLIDDC_972_" class="stdc1" points="482.3,24 499.6,7.9 488.7,24 				"/>
				<polygon id="XMLIDDC_971_" class="stdc1" points="522.9,24 540.1,7.9 529.2,24 				"/>
				<polygon id="XMLIDDC_970_" class="stdc1" points="522.9,24 540.1,7.9 529.2,24 				"/>
				<polygon id="XMLIDDC_969_" class="stdc1" points="482.3,24 499.6,7.9 488.7,24 				"/>
				<polygon id="XMLIDDC_968_" class="stdc1" points="522.9,24 540.1,7.9 529.2,24 				"/>
				<polygon id="XMLIDDC_967_" class="stdc1" points="562.9,24 580.1,7.9 569.3,24 				"/>
				<polygon id="XMLIDDC_966_" class="stdc1" points="603.4,24 620.7,7.9 609.8,24 				"/>
				<polygon id="XMLIDDC_965_" class="stdc1" points="482.3,24 499.6,7.9 488.7,24 				"/>
				<polygon id="XMLIDDC_964_" class="stdc1" points="522.9,24 540.1,7.9 529.2,24 				"/>
				<polygon id="XMLIDDC_963_" class="stdc1" points="562.9,24 580.1,7.9 569.3,24 				"/>
				<polygon id="XMLIDDC_962_" class="stdc1" points="603.4,24 620.7,7.9 609.8,24 				"/>
				<polyline id="XMLIDDC_961_" class="stdc1" points="488.7,24 482.3,24 499.6,7.9 				"/>
				<polygon id="XMLIDDC_960_" class="stdc1" points="482.3,24 499.6,7.9 488.7,24 				"/>
				<polyline id="XMLIDDC_959_" class="stdc1" points="488.7,24 482.3,24 499.6,7.9 				"/>
				<polygon id="XMLIDDC_958_" class="stdc1" points="482.3,24 499.6,7.9 488.7,24 				"/>
				<polygon id="XMLIDDC_957_" class="stdc1" points="522.9,24 540.1,7.9 529.2,24 				"/>
				<polygon id="XMLIDDC_956_" class="stdc1" points="522.9,24 540.1,7.9 529.2,24 				"/>
				<polygon id="XMLIDDC_955_" class="stdc1" points="482.3,24 499.6,7.9 488.7,24 				"/>
				<polygon id="XMLIDDC_954_" class="stdc1" points="522.9,24 540.1,7.9 529.2,24 				"/>
				<polygon id="XMLIDDC_953_" class="stdc1" points="562.9,24 580.1,7.9 569.3,24 				"/>
				<polygon id="XMLIDDC_952_" class="stdc1" points="603.4,24 620.7,7.9 609.8,24 				"/>
				<polygon id="XMLIDDC_951_" class="stdc1" points="482.3,24 499.6,7.9 488.7,24 				"/>
				<polygon id="XMLIDDC_950_" class="stdc1" points="522.9,24 540.1,7.9 529.2,24 				"/>
				<polygon id="XMLIDDC_949_" class="stdc1" points="562.9,24 580.1,7.9 569.3,24 				"/>
				<polygon id="XMLIDDC_948_" class="stdc1" points="603.4,24 620.7,7.9 609.8,24 				"/>
			</g>
			<g id="XMLIDDC_866_">
				<polygon id="XMLIDDC_946_" class="stdc1" points="525.8,4 508.5,20.2 519.4,4 				"/>
				<polygon id="XMLIDDC_945_" class="stdc1" points="525.8,4 508.5,20.2 519.4,4 				"/>
				<polygon id="XMLIDDC_944_" class="stdc1" points="525.8,4 508.5,20.2 519.4,4 				"/>
				<polygon id="XMLIDDC_943_" class="stdc1" points="525.8,4 508.5,20.2 519.4,4 				"/>
				<polyline id="XMLIDDC_942_" class="stdc1" points="600,4 606.3,4 589.1,20.2 				"/>
				<polygon id="XMLIDDC_941_" class="stdc1" points="606.3,4 589.1,20.2 600,4 				"/>
				<polyline id="XMLIDDC_940_" class="stdc1" points="600,4 606.3,4 589.1,20.2 				"/>
				<polygon id="XMLIDDC_939_" class="stdc1" points="606.3,4 589.1,20.2 600,4 				"/>
				<polygon id="XMLIDDC_938_" class="stdc1" points="565.8,4 548.6,20.2 559.4,4 				"/>
				<polygon id="XMLIDDC_937_" class="stdc1" points="565.8,4 548.6,20.2 559.4,4 				"/>
				<polygon id="XMLIDDC_936_" class="stdc1" points="606.3,4 589.1,20.2 600,4 				"/>
				<polygon id="XMLIDDC_935_" class="stdc1" points="565.8,4 548.6,20.2 559.4,4 				"/>
				<polygon id="XMLIDDC_934_" class="stdc1" points="606.3,4 589.1,20.2 600,4 				"/>
				<polygon id="XMLIDDC_933_" class="stdc1" points="565.8,4 548.6,20.2 559.4,4 				"/>
				<polyline id="XMLIDDC_932_" class="stdc1" points="600,4 606.3,4 589.1,20.2 				"/>
				<polygon id="XMLIDDC_931_" class="stdc1" points="606.3,4 589.1,20.2 600,4 				"/>
				<polyline id="XMLIDDC_930_" class="stdc1" points="600,4 606.3,4 589.1,20.2 				"/>
				<polygon id="XMLIDDC_929_" class="stdc1" points="606.3,4 589.1,20.2 600,4 				"/>
				<polygon id="XMLIDDC_928_" class="stdc1" points="565.8,4 548.6,20.2 559.4,4 				"/>
				<polygon id="XMLIDDC_927_" class="stdc1" points="565.8,4 548.6,20.2 559.4,4 				"/>
				<polygon id="XMLIDDC_926_" class="stdc1" points="606.3,4 589.1,20.2 600,4 				"/>
				<polygon id="XMLIDDC_925_" class="stdc1" points="565.8,4 548.6,20.2 559.4,4 				"/>
				<polygon id="XMLIDDC_924_" class="stdc1" points="606.3,4 589.1,20.2 600,4 				"/>
				<polygon id="XMLIDDC_923_" class="stdc1" points="565.8,4 548.6,20.2 559.4,4 				"/>
				<polyline id="XMLIDDC_922_" class="stdc1" points="756.6,4 763,4 745.7,20.2 				"/>
				<polygon id="XMLIDDC_921_" class="stdc1" points="763,4 745.7,20.2 756.6,4 				"/>
				<polyline id="XMLIDDC_920_" class="stdc1" points="756.6,4 763,4 745.7,20.2 				"/>
				<polygon id="XMLIDDC_919_" class="stdc1" points="763,4 745.7,20.2 756.6,4 				"/>
				<polygon id="XMLIDDC_918_" class="stdc1" points="722.5,4 705.2,20.2 716.1,4 				"/>
				<polygon id="XMLIDDC_917_" class="stdc1" points="722.5,4 705.2,20.2 716.1,4 				"/>
				<polygon id="XMLIDDC_916_" class="stdc1" points="763,4 745.7,20.2 756.6,4 				"/>
				<polygon id="XMLIDDC_915_" class="stdc1" points="722.5,4 705.2,20.2 716.1,4 				"/>
				<polygon id="XMLIDDC_914_" class="stdc1" points="682.4,4 665.2,20.2 676,4 				"/>
				<polygon id="XMLIDDC_913_" class="stdc1" points="641.9,4 624.7,20.2 635.5,4 				"/>
				<polygon id="XMLIDDC_912_" class="stdc1" points="763,4 745.7,20.2 756.6,4 				"/>
				<polygon id="XMLIDDC_911_" class="stdc1" points="722.5,4 705.2,20.2 716.1,4 				"/>
				<polygon id="XMLIDDC_910_" class="stdc1" points="682.4,4 665.2,20.2 676,4 				"/>
				<polygon id="XMLIDDC_909_" class="stdc1" points="641.9,4 624.7,20.2 635.5,4 				"/>
				<polyline id="XMLIDDC_908_" class="stdc1" points="756.6,4 763,4 745.7,20.2 				"/>
				<polygon id="XMLIDDC_907_" class="stdc1" points="763,4 745.7,20.2 756.6,4 				"/>
				<polyline id="XMLIDDC_906_" class="stdc1" points="756.6,4 763,4 745.7,20.2 				"/>
				<polygon id="XMLIDDC_905_" class="stdc1" points="763,4 745.7,20.2 756.6,4 				"/>
				<polygon id="XMLIDDC_904_" class="stdc1" points="722.5,4 705.2,20.2 716.1,4 				"/>
				<polygon id="XMLIDDC_903_" class="stdc1" points="722.5,4 705.2,20.2 716.1,4 				"/>
				<polygon id="XMLIDDC_902_" class="stdc1" points="763,4 745.7,20.2 756.6,4 				"/>
				<polygon id="XMLIDDC_901_" class="stdc1" points="722.5,4 705.2,20.2 716.1,4 				"/>
				<polygon id="XMLIDDC_900_" class="stdc1" points="682.4,4 665.2,20.2 676,4 				"/>
				<polygon id="XMLIDDC_899_" class="stdc1" points="641.9,4 624.7,20.2 635.5,4 				"/>
				<polygon id="XMLIDDC_898_" class="stdc1" points="763,4 745.7,20.2 756.6,4 				"/>
				<polygon id="XMLIDDC_897_" class="stdc1" points="722.5,4 705.2,20.2 716.1,4 				"/>
				<polygon id="XMLIDDC_896_" class="stdc1" points="682.4,4 665.2,20.2 676,4 				"/>
				<polygon id="XMLIDDC_895_" class="stdc1" points="641.9,4 624.7,20.2 635.5,4 				"/>
				<polyline id="XMLIDDC_894_" class="stdc1" points="918.2,4 924.6,4 907.4,20.2 				"/>
				<polygon id="XMLIDDC_893_" class="stdc1" points="924.6,4 907.4,20.2 918.2,4 				"/>
				<polyline id="XMLIDDC_892_" class="stdc1" points="918.2,4 924.6,4 907.4,20.2 				"/>
				<polygon id="XMLIDDC_891_" class="stdc1" points="924.6,4 907.4,20.2 918.2,4 				"/>
				<polygon id="XMLIDDC_890_" class="stdc1" points="884.1,4 866.9,20.2 877.7,4 				"/>
				<polygon id="XMLIDDC_889_" class="stdc1" points="884.1,4 866.9,20.2 877.7,4 				"/>
				<polygon id="XMLIDDC_888_" class="stdc1" points="924.6,4 907.4,20.2 918.2,4 				"/>
				<polygon id="XMLIDDC_887_" class="stdc1" points="884.1,4 866.9,20.2 877.7,4 				"/>
				<polygon id="XMLIDDC_886_" class="stdc1" points="844.1,4 826.8,20.2 837.7,4 				"/>
				<polygon id="XMLIDDC_885_" class="stdc1" points="803.5,4 786.3,20.2 797.2,4 				"/>
				<polygon id="XMLIDDC_884_" class="stdc1" points="924.6,4 907.4,20.2 918.2,4 				"/>
				<polygon id="XMLIDDC_883_" class="stdc1" points="884.1,4 866.9,20.2 877.7,4 				"/>
				<polygon id="XMLIDDC_882_" class="stdc1" points="844.1,4 826.8,20.2 837.7,4 				"/>
				<polygon id="XMLIDDC_881_" class="stdc1" points="803.5,4 786.3,20.2 797.2,4 				"/>
				<polyline id="XMLIDDC_880_" class="stdc1" points="918.2,4 924.6,4 907.4,20.2 				"/>
				<polygon id="XMLIDDC_879_" class="stdc1" points="924.6,4 907.4,20.2 918.2,4 				"/>
				<polyline id="XMLIDDC_878_" class="stdc1" points="918.2,4 924.6,4 907.4,20.2 				"/>
				<polygon id="XMLIDDC_877_" class="stdc1" points="924.6,4 907.4,20.2 918.2,4 				"/>
				<polygon id="XMLIDDC_876_" class="stdc1" points="884.1,4 866.9,20.2 877.7,4 				"/>
				<polygon id="XMLIDDC_875_" class="stdc1" points="884.1,4 866.9,20.2 877.7,4 				"/>
				<polygon id="XMLIDDC_874_" class="stdc1" points="924.6,4 907.4,20.2 918.2,4 				"/>
				<polygon id="XMLIDDC_873_" class="stdc1" points="884.1,4 866.9,20.2 877.7,4 				"/>
				<polygon id="XMLIDDC_872_" class="stdc1" points="844.1,4 826.8,20.2 837.7,4 				"/>
				<polygon id="XMLIDDC_871_" class="stdc1" points="803.5,4 786.3,20.2 797.2,4 				"/>
				<polygon id="XMLIDDC_870_" class="stdc1" points="924.6,4 907.4,20.2 918.2,4 				"/>
				<polygon id="XMLIDDC_869_" class="stdc1" points="884.1,4 866.9,20.2 877.7,4 				"/>
				<polygon id="XMLIDDC_868_" class="stdc1" points="844.1,4 826.8,20.2 837.7,4 				"/>
				<polygon id="XMLIDDC_867_" class="stdc1" points="803.5,4 786.3,20.2 797.2,4 				"/>
			</g>
		</g>
		<g id="XMLIDDC_639_">
			<g id="XMLIDDC_784_">
				<polygon id="XMLIDDC_864_" class="stdc1" points="438.9,24 456.2,7.9 445.3,24 				"/>
				<polygon id="XMLIDDC_863_" class="stdc1" points="438.9,24 456.2,7.9 445.3,24 				"/>
				<polygon id="XMLIDDC_862_" class="stdc1" points="438.9,24 456.2,7.9 445.3,24 				"/>
				<polygon id="XMLIDDC_861_" class="stdc1" points="438.9,24 456.2,7.9 445.3,24 				"/>
				<polyline id="XMLIDDC_860_" class="stdc1" points="364.7,24 358.4,24 375.6,7.9 				"/>
				<polygon id="XMLIDDC_859_" class="stdc1" points="358.4,24 375.6,7.9 364.7,24 				"/>
				<polyline id="XMLIDDC_858_" class="stdc1" points="364.7,24 358.4,24 375.6,7.9 				"/>
				<polygon id="XMLIDDC_857_" class="stdc1" points="358.4,24 375.6,7.9 364.7,24 				"/>
				<polygon id="XMLIDDC_856_" class="stdc1" points="398.9,24 416.1,7.9 405.2,24 				"/>
				<polygon id="XMLIDDC_855_" class="stdc1" points="398.9,24 416.1,7.9 405.2,24 				"/>
				<polygon id="XMLIDDC_854_" class="stdc1" points="358.4,24 375.6,7.9 364.7,24 				"/>
				<polygon id="XMLIDDC_853_" class="stdc1" points="398.9,24 416.1,7.9 405.2,24 				"/>
				<polygon id="XMLIDDC_852_" class="stdc1" points="358.4,24 375.6,7.9 364.7,24 				"/>
				<polygon id="XMLIDDC_851_" class="stdc1" points="398.9,24 416.1,7.9 405.2,24 				"/>
				<polyline id="XMLIDDC_850_" class="stdc1" points="364.7,24 358.4,24 375.6,7.9 				"/>
				<polygon id="XMLIDDC_849_" class="stdc1" points="358.4,24 375.6,7.9 364.7,24 				"/>
				<polyline id="XMLIDDC_848_" class="stdc1" points="364.7,24 358.4,24 375.6,7.9 				"/>
				<polygon id="XMLIDDC_847_" class="stdc1" points="358.4,24 375.6,7.9 364.7,24 				"/>
				<polygon id="XMLIDDC_846_" class="stdc1" points="398.9,24 416.1,7.9 405.2,24 				"/>
				<polygon id="XMLIDDC_845_" class="stdc1" points="398.9,24 416.1,7.9 405.2,24 				"/>
				<polygon id="XMLIDDC_844_" class="stdc1" points="358.4,24 375.6,7.9 364.7,24 				"/>
				<polygon id="XMLIDDC_843_" class="stdc1" points="398.9,24 416.1,7.9 405.2,24 				"/>
				<polygon id="XMLIDDC_842_" class="stdc1" points="358.4,24 375.6,7.9 364.7,24 				"/>
				<polygon id="XMLIDDC_841_" class="stdc1" points="398.9,24 416.1,7.9 405.2,24 				"/>
				<polyline id="XMLIDDC_840_" class="stdc1" points="208.1,24 201.7,24 218.9,7.9 				"/>
				<polygon id="XMLIDDC_839_" class="stdc1" points="201.7,24 218.9,7.9 208.1,24 				"/>
				<polyline id="XMLIDDC_838_" class="stdc1" points="208.1,24 201.7,24 218.9,7.9 				"/>
				<polygon id="XMLIDDC_837_" class="stdc1" points="201.7,24 218.9,7.9 208.1,24 				"/>
				<polygon id="XMLIDDC_836_" class="stdc1" points="242.2,24 259.5,7.9 248.6,24 				"/>
				<polygon id="XMLIDDC_835_" class="stdc1" points="242.2,24 259.5,7.9 248.6,24 				"/>
				<polygon id="XMLIDDC_834_" class="stdc1" points="201.7,24 218.9,7.9 208.1,24 				"/>
				<polygon id="XMLIDDC_833_" class="stdc1" points="242.2,24 259.5,7.9 248.6,24 				"/>
				<polygon id="XMLIDDC_832_" class="stdc1" points="282.3,24 299.5,7.9 288.6,24 				"/>
				<polygon id="XMLIDDC_831_" class="stdc1" points="322.8,24 340,7.9 329.2,24 				"/>
				<polygon id="XMLIDDC_830_" class="stdc1" points="201.7,24 218.9,7.9 208.1,24 				"/>
				<polygon id="XMLIDDC_829_" class="stdc1" points="242.2,24 259.5,7.9 248.6,24 				"/>
				<polygon id="XMLIDDC_828_" class="stdc1" points="282.3,24 299.5,7.9 288.6,24 				"/>
				<polygon id="XMLIDDC_827_" class="stdc1" points="322.8,24 340,7.9 329.2,24 				"/>
				<polyline id="XMLIDDC_826_" class="stdc1" points="208.1,24 201.7,24 218.9,7.9 				"/>
				<polygon id="XMLIDDC_825_" class="stdc1" points="201.7,24 218.9,7.9 208.1,24 				"/>
				<polyline id="XMLIDDC_824_" class="stdc1" points="208.1,24 201.7,24 218.9,7.9 				"/>
				<polygon id="XMLIDDC_823_" class="stdc1" points="201.7,24 218.9,7.9 208.1,24 				"/>
				<polygon id="XMLIDDC_822_" class="stdc1" points="242.2,24 259.5,7.9 248.6,24 				"/>
				<polygon id="XMLIDDC_821_" class="stdc1" points="242.2,24 259.5,7.9 248.6,24 				"/>
				<polygon id="XMLIDDC_820_" class="stdc1" points="201.7,24 218.9,7.9 208.1,24 				"/>
				<polygon id="XMLIDDC_819_" class="stdc1" points="242.2,24 259.5,7.9 248.6,24 				"/>
				<polygon id="XMLIDDC_818_" class="stdc1" points="282.3,24 299.5,7.9 288.6,24 				"/>
				<polygon id="XMLIDDC_817_" class="stdc1" points="322.8,24 340,7.9 329.2,24 				"/>
				<polygon id="XMLIDDC_816_" class="stdc1" points="201.7,24 218.9,7.9 208.1,24 				"/>
				<polygon id="XMLIDDC_815_" class="stdc1" points="242.2,24 259.5,7.9 248.6,24 				"/>
				<polygon id="XMLIDDC_814_" class="stdc1" points="282.3,24 299.5,7.9 288.6,24 				"/>
				<polygon id="XMLIDDC_813_" class="stdc1" points="322.8,24 340,7.9 329.2,24 				"/>
				<polyline id="XMLIDDC_812_" class="stdc1" points="46.4,24 40.1,24 57.3,7.9 				"/>
				<polygon id="XMLIDDC_811_" class="stdc1" points="40.1,24 57.3,7.9 46.4,24 				"/>
				<polyline id="XMLIDDC_810_" class="stdc1" points="46.4,24 40.1,24 57.3,7.9 				"/>
				<polygon id="XMLIDDC_809_" class="stdc1" points="40.1,24 57.3,7.9 46.4,24 				"/>
				<polygon id="XMLIDDC_808_" class="stdc1" points="80.6,24 97.8,7.9 87,24 				"/>
				<polygon id="XMLIDDC_807_" class="stdc1" points="80.6,24 97.8,7.9 87,24 				"/>
				<polygon id="XMLIDDC_806_" class="stdc1" points="40.1,24 57.3,7.9 46.4,24 				"/>
				<polygon id="XMLIDDC_805_" class="stdc1" points="80.6,24 97.8,7.9 87,24 				"/>
				<polygon id="XMLIDDC_804_" class="stdc1" points="120.6,24 137.9,7.9 127,24 				"/>
				<polygon id="XMLIDDC_803_" class="stdc1" points="161.1,24 178.4,7.9 167.5,24 				"/>
				<polygon id="XMLIDDC_802_" class="stdc1" points="40.1,24 57.3,7.9 46.4,24 				"/>
				<polygon id="XMLIDDC_801_" class="stdc1" points="80.6,24 97.8,7.9 87,24 				"/>
				<polygon id="XMLIDDC_800_" class="stdc1" points="120.6,24 137.9,7.9 127,24 				"/>
				<polygon id="XMLIDDC_799_" class="stdc1" points="161.1,24 178.4,7.9 167.5,24 				"/>
				<polyline id="XMLIDDC_798_" class="stdc1" points="46.4,24 40.1,24 57.3,7.9 				"/>
				<polygon id="XMLIDDC_797_" class="stdc1" points="40.1,24 57.3,7.9 46.4,24 				"/>
				<polyline id="XMLIDDC_796_" class="stdc1" points="46.4,24 40.1,24 57.3,7.9 				"/>
				<polygon id="XMLIDDC_795_" class="stdc1" points="40.1,24 57.3,7.9 46.4,24 				"/>
				<polygon id="XMLIDDC_794_" class="stdc1" points="80.6,24 97.8,7.9 87,24 				"/>
				<polygon id="XMLIDDC_793_" class="stdc1" points="80.6,24 97.8,7.9 87,24 				"/>
				<polygon id="XMLIDDC_792_" class="stdc1" points="40.1,24 57.3,7.9 46.4,24 				"/>
				<polygon id="XMLIDDC_791_" class="stdc1" points="80.6,24 97.8,7.9 87,24 				"/>
				<polygon id="XMLIDDC_790_" class="stdc1" points="120.6,24 137.9,7.9 127,24 				"/>
				<polygon id="XMLIDDC_789_" class="stdc1" points="161.1,24 178.4,7.9 167.5,24 				"/>
				<polygon id="XMLIDDC_788_" class="stdc1" points="40.1,24 57.3,7.9 46.4,24 				"/>
				<polygon id="XMLIDDC_787_" class="stdc1" points="80.6,24 97.8,7.9 87,24 				"/>
				<polygon id="XMLIDDC_786_" class="stdc1" points="120.6,24 137.9,7.9 127,24 				"/>
				<polygon id="XMLIDDC_785_" class="stdc1" points="161.1,24 178.4,7.9 167.5,24 				"/>
			</g>
			<g id="XMLIDDC_640_">
				<polygon id="XMLIDDC_783_" class="stdc1" points="83.5,4 66.3,20.2 77.1,4 				"/>
				<polygon id="XMLIDDC_782_" class="stdc1" points="83.5,4 66.3,20.2 77.1,4 				"/>
				<polygon id="XMLIDDC_781_" class="stdc1" points="83.5,4 66.3,20.2 77.1,4 				"/>
				<polygon id="XMLIDDC_780_" class="stdc1" points="83.5,4 66.3,20.2 77.1,4 				"/>
				<polyline id="XMLIDDC_779_" class="stdc1" points="157.7,4 164.1,4 146.8,20.2 				"/>
				<polygon id="XMLIDDC_778_" class="stdc1" points="164.1,4 146.8,20.2 157.7,4 				"/>
				<polyline id="XMLIDDC_777_" class="stdc1" points="157.7,4 164.1,4 146.8,20.2 				"/>
				<polygon id="XMLIDDC_776_" class="stdc1" points="164.1,4 146.8,20.2 157.7,4 				"/>
				<polygon id="XMLIDDC_775_" class="stdc1" points="123.5,4 106.3,20.2 117.2,4 				"/>
				<polygon id="XMLIDDC_774_" class="stdc1" points="123.5,4 106.3,20.2 117.2,4 				"/>
				<polygon id="XMLIDDC_773_" class="stdc1" points="164.1,4 146.8,20.2 157.7,4 				"/>
				<polygon id="XMLIDDC_772_" class="stdc1" points="123.5,4 106.3,20.2 117.2,4 				"/>
				<polygon id="XMLIDDC_771_" class="stdc1" points="164.1,4 146.8,20.2 157.7,4 				"/>
				<polygon id="XMLIDDC_770_" class="stdc1" points="123.5,4 106.3,20.2 117.2,4 				"/>
				<polyline id="XMLIDDC_769_" class="stdc1" points="157.7,4 164.1,4 146.8,20.2 				"/>
				<polygon id="XMLIDDC_768_" class="stdc1" points="164.1,4 146.8,20.2 157.7,4 				"/>
				<polyline id="XMLIDDC_767_" class="stdc1" points="157.7,4 164.1,4 146.8,20.2 				"/>
				<polygon id="XMLIDDC_766_" class="stdc1" points="164.1,4 146.8,20.2 157.7,4 				"/>
				<polygon id="XMLIDDC_765_" class="stdc1" points="123.5,4 106.3,20.2 117.2,4 				"/>
				<polygon id="XMLIDDC_764_" class="stdc1" points="123.5,4 106.3,20.2 117.2,4 				"/>
				<polygon id="XMLIDDC_763_" class="stdc1" points="164.1,4 146.8,20.2 157.7,4 				"/>
				<polygon id="XMLIDDC_762_" class="stdc1" points="123.5,4 106.3,20.2 117.2,4 				"/>
				<polygon id="XMLIDDC_761_" class="stdc1" points="164.1,4 146.8,20.2 157.7,4 				"/>
				<polygon id="XMLIDDC_760_" class="stdc1" points="123.5,4 106.3,20.2 117.2,4 				"/>
				<polyline id="XMLIDDC_759_" class="stdc1" points="314.3,4 320.7,4 303.5,20.2 				"/>
				<polygon id="XMLIDDC_758_" class="stdc1" points="320.7,4 303.5,20.2 314.3,4 				"/>
				<polyline id="XMLIDDC_757_" class="stdc1" points="314.3,4 320.7,4 303.5,20.2 				"/>
				<polygon id="XMLIDDC_756_" class="stdc1" points="320.7,4 303.5,20.2 314.3,4 				"/>
				<polygon id="XMLIDDC_755_" class="stdc1" points="280.2,4 263,20.2 273.8,4 				"/>
				<polygon id="XMLIDDC_754_" class="stdc1" points="280.2,4 263,20.2 273.8,4 				"/>
				<polygon id="XMLIDDC_753_" class="stdc1" points="320.7,4 303.5,20.2 314.3,4 				"/>
				<polygon id="XMLIDDC_752_" class="stdc1" points="280.2,4 263,20.2 273.8,4 				"/>
				<polygon id="XMLIDDC_751_" class="stdc1" points="240.1,4 222.9,20.2 233.8,4 				"/>
				<polygon id="XMLIDDC_750_" class="stdc1" points="199.6,4 182.4,20.2 193.3,4 				"/>
				<polygon id="XMLIDDC_749_" class="stdc1" points="320.7,4 303.5,20.2 314.3,4 				"/>
				<polygon id="XMLIDDC_748_" class="stdc1" points="280.2,4 263,20.2 273.8,4 				"/>
				<polygon id="XMLIDDC_747_" class="stdc1" points="240.1,4 222.9,20.2 233.8,4 				"/>
				<polygon id="XMLIDDC_746_" class="stdc1" points="199.6,4 182.4,20.2 193.3,4 				"/>
				<polyline id="XMLIDDC_745_" class="stdc1" points="314.3,4 320.7,4 303.5,20.2 				"/>
				<polygon id="XMLIDDC_744_" class="stdc1" points="320.7,4 303.5,20.2 314.3,4 				"/>
				<polyline id="XMLIDDC_743_" class="stdc1" points="314.3,4 320.7,4 303.5,20.2 				"/>
				<polygon id="XMLIDDC_742_" class="stdc1" points="320.7,4 303.5,20.2 314.3,4 				"/>
				<polygon id="XMLIDDC_741_" class="stdc1" points="280.2,4 263,20.2 273.8,4 				"/>
				<polygon id="XMLIDDC_740_" class="stdc1" points="280.2,4 263,20.2 273.8,4 				"/>
				<polygon id="XMLIDDC_739_" class="stdc1" points="320.7,4 303.5,20.2 314.3,4 				"/>
				<polygon id="XMLIDDC_738_" class="stdc1" points="280.2,4 263,20.2 273.8,4 				"/>
				<polygon id="XMLIDDC_737_" class="stdc1" points="240.1,4 222.9,20.2 233.8,4 				"/>
				<polygon id="XMLIDDC_736_" class="stdc1" points="199.6,4 182.4,20.2 193.3,4 				"/>
				<polygon id="XMLIDDC_735_" class="stdc1" points="320.7,4 303.5,20.2 314.3,4 				"/>
				<polygon id="XMLIDDC_734_" class="stdc1" points="280.2,4 263,20.2 273.8,4 				"/>
				<polygon id="XMLIDDC_733_" class="stdc1" points="240.1,4 222.9,20.2 233.8,4 				"/>
				<polygon id="XMLIDDC_732_" class="stdc1" points="199.6,4 182.4,20.2 193.3,4 				"/>
				<polyline id="XMLIDDC_731_" class="stdc1" points="476,4 482.3,4 465.1,20.2 				"/>
				<polygon id="XMLIDDC_730_" class="stdc1" points="482.3,4 465.1,20.2 476,4 				"/>
				<polyline id="XMLIDDC_729_" class="stdc1" points="476,4 482.3,4 465.1,20.2 				"/>
				<polygon id="XMLIDDC_728_" class="stdc1" points="482.3,4 465.1,20.2 476,4 				"/>
				<polygon id="XMLIDDC_727_" class="stdc1" points="441.8,4 424.6,20.2 435.5,4 				"/>
				<polygon id="XMLIDDC_726_" class="stdc1" points="441.8,4 424.6,20.2 435.5,4 				"/>
				<polygon id="XMLIDDC_725_" class="stdc1" points="482.3,4 465.1,20.2 476,4 				"/>
				<polygon id="XMLIDDC_724_" class="stdc1" points="441.8,4 424.6,20.2 435.5,4 				"/>
				<polygon id="XMLIDDC_660_" class="stdc1" points="401.8,4 384.5,20.2 395.4,4 				"/>
				<polygon id="XMLIDDC_659_" class="stdc1" points="361.3,4 344,20.2 354.9,4 				"/>
				<polygon id="XMLIDDC_658_" class="stdc1" points="482.3,4 465.1,20.2 476,4 				"/>
				<polygon id="XMLIDDC_657_" class="stdc1" points="441.8,4 424.6,20.2 435.5,4 				"/>
				<polygon id="XMLIDDC_656_" class="stdc1" points="401.8,4 384.5,20.2 395.4,4 				"/>
				<polygon id="XMLIDDC_655_" class="stdc1" points="361.3,4 344,20.2 354.9,4 				"/>
				<polyline id="XMLIDDC_654_" class="stdc1" points="476,4 482.3,4 465.1,20.2 				"/>
				<polygon id="XMLIDDC_653_" class="stdc1" points="482.3,4 465.1,20.2 476,4 				"/>
				<polyline id="XMLIDDC_652_" class="stdc1" points="476,4 482.3,4 465.1,20.2 				"/>
				<polygon id="XMLIDDC_651_" class="stdc1" points="482.3,4 465.1,20.2 476,4 				"/>
				<polygon id="XMLIDDC_650_" class="stdc1" points="441.8,4 424.6,20.2 435.5,4 				"/>
				<polygon id="XMLIDDC_649_" class="stdc1" points="441.8,4 424.6,20.2 435.5,4 				"/>
				<polygon id="XMLIDDC_648_" class="stdc1" points="482.3,4 465.1,20.2 476,4 				"/>
				<polygon id="XMLIDDC_647_" class="stdc1" points="441.8,4 424.6,20.2 435.5,4 				"/>
				<polygon id="XMLIDDC_646_" class="stdc1" points="401.8,4 384.5,20.2 395.4,4 				"/>
				<polygon id="XMLIDDC_645_" class="stdc1" points="361.3,4 344,20.2 354.9,4 				"/>
				<polygon id="XMLIDDC_644_" class="stdc1" points="482.3,4 465.1,20.2 476,4 				"/>
				<polygon id="XMLIDDC_643_" class="stdc1" points="441.8,4 424.6,20.2 435.5,4 				"/>
				<polygon id="XMLIDDC_642_" class="stdc1" points="401.8,4 384.5,20.2 395.4,4 				"/>
				<polygon id="XMLIDDC_641_" class="stdc1" points="361.3,4 344,20.2 354.9,4 				"/>
			</g>
		</g>
	</g>
  <g>
    <path id="XMLIDDC_637_" d="M190,15.1c-0.9-2.7-7.3-4-7.3-4s-6.2-8-9.3-8.4c-14.3-1.6-5,0.6-20.3,3.9c-16.6,3.6-26.9,6.3-26.9,6.3
      s-1.5,0.4-1.7,2.1L190,15.1L190,15.1L190,15.1z"/>
      <text id="Text_0_0" x="678.000000" text-anchor="start" y="5.000000" vertical-align="top" transform="rotate(37.60 683.00 32.00)" font-family="SimSun" font-size="9.000000pt" fill="rgb(0,0,0)" stroke="none" stextLength="0" font-weight="400" xml:space="preserve"> </text>
    <path id="XMLIDDC_636_" d="M103.2,15.1c-0.9-2.7-7.3-4-7.3-4l-9.3-8.4c0,0-4.9-1.8-7.6,0c-3.8,2.5-3,0.3-12.5-2.5
      c-3.5-1.1-7.4,2.5-7.4,2.5s-1.6-0.6-9.7,3.5c-7.4,3.8-10.1,6.7-10.1,6.7s-1.5,0.4-1.7,2.1L103.2,15.1L103.2,15.1z"/>
    <path id="XMLIDDC_635_" d="M283.9,17.2c-0.9-4.3-7.3-6.3-7.3-6.3l-6.2-5.2c0,0-1.5-0.6-5.2-0.2c-5.5,0.7-2.1,4.3-11.6-0.4
      c-3.5-1.7-9.6-1.6-9.6-1.6s-5.3-1.4-9.2,2.1c-3.4,3.1-14.8,8.1-14.8,8.1s-1.5,0.7-1.7,3.4L283.9,17.2L283.9,17.2z"/>
    <path id="XMLIDDC_634_" d="M446.7,15.1c-0.9-2.7-7.3-4-7.3-4s-6.2-8-9.3-8.4c-14.3-1.6-5,0.6-20.3,3.9c-16.6,3.6-26.9,6.3-26.9,6.3
      s-1.5,0.4-1.7,2.1L446.7,15.1L446.7,15.1L446.7,15.1z"/>
    <path id="XMLIDDC_633_" d="M359.9,15.1c-0.9-2.7-7.3-4-7.3-4l-9.3-8.4c0,0-4.9-1.8-7.6,0c-3.8,2.5-3,0.3-12.5-2.5
      c-3.5-1.1-7.4,2.5-7.4,2.5s-1.6-0.6-9.7,3.5c-7.4,3.8-10.1,6.7-10.1,6.7s-1.5,0.4-1.7,2.1L359.9,15.1L359.9,15.1z"/>
    <path id="XMLIDDC_632_" d="M630.5,15.1c-0.9-2.7-7.3-4-7.3-4s-6.2-8-9.3-8.4c-14.3-1.6-5,0.6-20.3,3.9c-16.6,3.6-26.9,6.3-26.9,6.3
      s-1.5,0.4-1.7,2.1L630.5,15.1L630.5,15.1L630.5,15.1z"/>
    <path id="XMLIDDC_631_" d="M543.7,15.1c-0.9-2.7-7.3-4-7.3-4l-9.3-8.4c0,0-4.9-1.8-7.6,0c-3.8,2.5-3,0.3-12.5-2.5
      c-3.5-1.1-7.4,2.5-7.4,2.5s-1.6-0.6-9.7,3.5c-7.4,3.8-10.1,6.7-10.1,6.7s-1.5,0.4-1.7,2.1L543.7,15.1L543.7,15.1z"/>
    <path id="XMLIDDC_630_" d="M724.4,17.2c-0.9-4.3-7.3-6.3-7.3-6.3l-6.2-5.2c0,0-1.5-0.6-5.2-0.2c-5.5,0.7-2.1,4.3-11.6-0.4
      c-3.5-1.7-9.6-1.6-9.6-1.6s-5.3-1.4-9.2,2.1c-3.4,3.1-14.8,8.1-14.8,8.1s-1.5,0.7-1.7,3.4L724.4,17.2L724.4,17.2L724.4,17.2z"/>
    <path id="XMLIDDC_629_" d="M887.2,15.1c-0.9-2.7-7.3-4-7.3-4s-6.2-8-9.3-8.4c-14.3-1.6-5,0.6-20.3,3.9c-16.6,3.6-26.9,6.3-26.9,6.3
      s-1.5,0.4-1.7,2.1L887.2,15.1L887.2,15.1z"/>
    <path id="XMLIDDC_628_" d="M800.4,15.1c-0.9-2.7-7.3-4-7.3-4l-9.3-8.4c0,0-4.9-1.8-7.6,0c-3.8,2.5-3,0.3-12.5-2.5
      c-3.5-1.1-7.4,2.5-7.4,2.5s-1.6-0.6-9.7,3.5c-7.4,3.8-10.1,6.7-10.1,6.7s-1.5,0.4-1.7,2.1L800.4,15.1L800.4,15.1z"/>
    <text id="Text_2" x="337.500000" text-anchor="start" y="54" font-family="SimSun" font-size="9.000000pt" fill="rgb(0,0,0)" stroke="none" stextLength="0" font-weight="400" xml:space="preserve"/>
    <animateMotion id="Rotate_1" begin="indefinite" end="indefinite"  attributeName="transform" attributeType="XML" type="translate" path="M 12 0 L 90 0 " dur="1.000000s" additive="replace" fill="freeze" accumulate="none" restart="whenNotActive" repeatCount="indefinite"/>
  </g>
		<linearGradient id="XMLIDDC_1070_" gradientUnits="userSpaceOnUse" x1="3.0057" y1="239.1081" x2="931.5157" y2="239.1081" gradientTransform="matrix(1 0 0 1 0 -200)">
		<stop  offset="0" style="stop-color:#0D4A90"/>
		<stop  offset="0.4182" style="stop-color:#2B7ACA"/>
		<stop  offset="1" style="stop-color:#0D4A90"/>
	</linearGradient>
	<path id="XMLIDDC_627_" class="stdc2" d="M931.5,39.1c0,6.5-5.3,11.8-11.8,11.8h-905C8.3,50.9,3,45.6,3,39.1l0,0
		c0-6.5,5.3-11.8,11.8-11.8h905C926.2,27.3,931.5,32.6,931.5,39.1L931.5,39.1z"/>
	<path id="XMLIDDC_626_" class="stdc3" d="M915.7,35.3H18.9c-6.6,0-12,6-12,1.9v0.2c0-4.1,5.4-7.4,12-7.4h896.8c6.6,0,12,3.3,12,7.4
		v-0.2C927.7,41.3,922.3,35.3,915.7,35.3z"/>
	<g id="XMLIDDC_619_">
		<g id="XMLIDDC_624_">
			<circle id="XMLIDDC_625_" cx="17.7" cy="39.1" r="8.8"/>
		</g>
		<g id="XMLIDDC_622_">
			<circle id="XMLIDDC_623_" class="stdc4" cx="15.2" cy="39.1" r="8.8"/>
		</g>
		<circle id="XMLIDDC_621_" class="stdc5" cx="15.2" cy="39.1" r="3.8"/>
		<circle id="XMLIDDC_620_" class="stdc6" cx="15.2" cy="39.1" r="2.5"/>
	</g>
	<g id="XMLIDDC_612_">
		<g id="XMLIDDC_617_">
			<circle id="XMLIDDC_618_" cx="168.1" cy="39.1" r="8.8"/>
		</g>
		<g id="XMLIDDC_615_">
			<circle id="XMLIDDC_616_" class="stdc4" cx="165.6" cy="39.1" r="8.8"/>
		</g>
		<circle id="XMLIDDC_614_" class="stdc5" cx="165.6" cy="39.1" r="3.8"/>
		<circle id="XMLIDDC_613_" class="stdc6" cx="165.6" cy="39.1" r="2.5"/>
	</g>
	<g id="XMLIDDC_605_">
		<g id="XMLIDDC_610_">
			<circle id="XMLIDDC_611_" cx="318.5" cy="39.1" r="8.8"/>
		</g>
		<g id="XMLIDDC_608_">
			<circle id="XMLIDDC_609_" class="stdc4" cx="316" cy="39.1" r="8.8"/>
		</g>
		<circle id="XMLIDDC_607_" class="stdc5" cx="316" cy="39.1" r="3.8"/>
		<circle id="XMLIDDC_606_" class="stdc6" cx="316" cy="39.1" r="2.5"/>
	</g>
	<g id="XMLIDDC_598_">
		<g id="XMLIDDC_603_">
			<circle id="XMLIDDC_604_" cx="468.9" cy="39.1" r="8.8"/>
		</g>
		<g id="XMLIDDC_601_">
			<circle id="XMLIDDC_602_" class="stdc4" cx="466.4" cy="39.1" r="8.8"/>
		</g>
		<circle id="XMLIDDC_600_" class="stdc5" cx="466.4" cy="39.1" r="3.8"/>
		<circle id="XMLIDDC_599_" class="stdc6" cx="466.4" cy="39.1" r="2.5"/>
	</g>
	<g id="XMLIDDC_591_">
		<g id="XMLIDDC_596_">
			<circle id="XMLIDDC_597_" cx="619.3" cy="39.1" r="8.8"/>
		</g>
		<g id="XMLIDDC_594_">
			<circle id="XMLIDDC_595_" class="stdc4" cx="616.8" cy="39.1" r="8.8"/>
		</g>
		<circle id="XMLIDDC_593_" class="stdc5" cx="616.8" cy="39.1" r="3.8"/>
		<circle id="XMLIDDC_592_" class="stdc6" cx="616.8" cy="39.1" r="2.5"/>
	</g>
	<g id="XMLIDDC_584_">
		<g id="XMLIDDC_589_">
			<circle id="XMLIDDC_590_" cx="769.7" cy="39.1" r="8.8"/>
		</g>
		<g id="XMLIDDC_587_">
			<circle id="XMLIDDC_588_" class="stdc4" cx="767.2" cy="39.1" r="8.8"/>
		</g>
		<circle id="XMLIDDC_586_" class="stdc5" cx="767.2" cy="39.1" r="3.8"/>
		<circle id="XMLIDDC_585_" class="stdc6" cx="767.2" cy="39.1" r="2.5"/>
	</g>
	<g id="XMLIDDC_553_">
		<g id="XMLIDDC_558_">
			<circle id="XMLIDDC_559_" cx="920.1" cy="39.1" r="8.8"/>
		</g>
		<g id="XMLIDDC_556_">
			<circle id="XMLIDDC_557_" class="stdc4" cx="917.6" cy="39.1" r="8.8"/>
		</g>
		<circle id="XMLIDDC_555_" class="stdc5" cx="917.6" cy="39.1" r="3.8"/>
		<circle id="XMLIDDC_554_" class="stdc6" cx="917.6" cy="39.1" r="2.5"/>
	</g>
</g>
</svg>
