<?xml version="1.0" encoding="utf-8"?>
<svg viewBox="0 0 689 238" width="689" height="238" hape-rendering="geometricPrecision" xmlns:a="http://www.adobe.com/svg10-extensions" xmlns="http://www.w3.org/2000/svg" xmlns:xlink="http://www.w3.org/1999/xlink">
 
<style type="text/css">
	.stcm0{fill:#231815;}
	.stcm1{fill:#DCDDDD;}
	.stcm2{fill:#F8B62D;}
	.stcm3{fill:#6A3906;}
	.stcm4{fill:#C9A063;}
	.stcm5{fill:#02538A;}
	.stcm6{fill:#0D456C;}
	.stcm7{fill:#F39800;}
	.stcm8{fill:none;stroke:#604C3F;stroke-miterlimit:10;}
	.stcm9{fill:#604C3F;}
	.rg {
		transform-origin:50% 50%;
	}
</style>
<g id="XMLID_26_">
	<rect id="XMLID_96_" x="6.6" y="201.2" class="stcm0" width="655.1" height="5.5"/>
	<rect id="XMLID_95_" x="0.3" y="206.8" class="stcm1" width="26.9" height="10.3"/>
	<rect id="XMLID_94_" x="27.2" y="206.8" class="stcm2" width="16.4" height="10.3"/>
	<rect id="XMLID_93_" x="43.8" y="206.8" class="stcm1" width="26.9" height="10.3"/>
	<rect id="XMLID_92_" x="70.7" y="206.8" class="stcm2" width="16.4" height="10.3"/>
	<rect id="XMLID_91_" x="87.2" y="206.8" class="stcm1" width="26.9" height="10.3"/>
	<rect id="XMLID_90_" x="114.1" y="206.8" class="stcm2" width="16.4" height="10.3"/>
	<rect id="XMLID_89_" x="130.7" y="206.8" class="stcm1" width="26.9" height="10.3"/>
	<rect id="XMLID_88_" x="157.6" y="206.8" class="stcm2" width="16.4" height="10.3"/>
	<rect id="XMLID_87_" x="174.1" y="206.8" class="stcm1" width="26.9" height="10.3"/>
	<rect id="XMLID_86_" x="201" y="206.8" class="stcm2" width="16.4" height="10.3"/>
	<rect id="XMLID_85_" x="217.6" y="206.8" class="stcm1" width="26.9" height="10.3"/>
	<rect id="XMLID_84_" x="244.5" y="206.8" class="stcm2" width="16.4" height="10.3"/>
	<rect id="XMLID_83_" x="261" y="206.8" class="stcm1" width="26.9" height="10.3"/>
	<rect id="XMLID_82_" x="287.9" y="206.8" class="stcm2" width="16.4" height="10.3"/>
	<rect id="XMLID_81_" x="304.5" y="206.8" class="stcm1" width="26.9" height="10.3"/>
	<rect id="XMLID_80_" x="331.4" y="206.8" class="stcm2" width="16.4" height="10.3"/>
	<rect id="XMLID_79_" x="347.9" y="206.8" class="stcm1" width="26.9" height="10.3"/>
	<rect id="XMLID_78_" x="374.8" y="206.8" class="stcm2" width="16.4" height="10.3"/>
	<rect id="XMLID_77_" x="391.4" y="206.8" class="stcm1" width="26.9" height="10.3"/>
	<rect id="XMLID_76_" x="418.3" y="206.8" class="stcm2" width="16.4" height="10.3"/>
	<rect id="XMLID_75_" x="434.8" y="206.8" class="stcm1" width="26.9" height="10.3"/>
	<rect id="XMLID_74_" x="461.7" y="206.8" class="stcm2" width="16.4" height="10.3"/>
	<rect id="XMLID_73_" x="478.3" y="206.8" class="stcm1" width="26.9" height="10.3"/>
	<rect id="XMLID_72_" x="505.2" y="206.8" class="stcm2" width="16.4" height="10.3"/>
	<rect id="XMLID_71_" x="521.7" y="206.8" class="stcm1" width="26.9" height="10.3"/>
	<rect id="XMLID_70_" x="548.6" y="206.8" class="stcm2" width="16.4" height="10.3"/>
	<rect id="XMLID_69_" x="565.2" y="206.8" class="stcm1" width="26.9" height="10.3"/>
	<rect id="XMLID_68_" x="592.1" y="206.8" class="stcm2" width="16.4" height="10.3"/>
	<rect id="XMLID_67_" x="608.6" y="206.8" class="stcm1" width="26.9" height="10.3"/>
	<rect id="XMLID_66_" x="635.5" y="206.8" class="stcm2" width="16.4" height="10.3"/>
	<rect id="XMLID_65_" x="652.1" y="206.8" class="stcm1" width="26.9" height="10.3"/>
	<g id="XMLID_62_">
		<polygon id="XMLID_64_" class="stcm3" points="62.6,221.1 46,221.1 32.8,237.5 49.4,237.5 		"/>
		<polygon id="XMLID_63_" class="stcm4" points="46.7,238.4 30.1,238.4 17,222 33.6,222 		"/>
	</g>
	<g id="XMLID_59_">
		<polygon id="XMLID_61_" class="stcm3" points="119.6,221.1 102.9,221.1 89.8,237.5 106.4,237.5 		"/>
		<polygon id="XMLID_60_" class="stcm4" points="103.7,238.4 87.1,238.4 73.9,222 90.6,222 		"/>
	</g>
	<g id="XMLID_56_">
		<polygon id="XMLID_58_" class="stcm3" points="176.5,221.1 159.9,221.1 146.8,237.5 163.4,237.5 		"/>
		<polygon id="XMLID_57_" class="stcm4" points="160.7,238.4 144.1,238.4 130.9,222 147.5,222 		"/>
	</g>
	<g id="XMLID_53_">
		<polygon id="XMLID_55_" class="stcm3" points="233.5,221.1 216.9,221.1 203.7,237.5 220.3,237.5 		"/>
		<polygon id="XMLID_54_" class="stcm4" points="217.6,238.4 201,238.4 187.9,222 204.5,222 		"/>
	</g>
	<g id="XMLID_50_">
		<polygon id="XMLID_52_" class="stcm3" points="290.4,221.1 273.8,221.1 260.7,237.5 277.3,237.5 		"/>
		<polygon id="XMLID_51_" class="stcm4" points="274.6,238.4 258,238.4 244.8,222 261.5,222 		"/>
	</g>
	<g id="XMLID_47_">
		<polygon id="XMLID_49_" class="stcm3" points="347.4,221.1 330.8,221.1 317.7,237.5 334.3,237.5 		"/>
		<polygon id="XMLID_48_" class="stcm4" points="331.6,238.4 314.9,238.4 301.8,222 318.4,222 		"/>
	</g>
	<g id="XMLID_44_">
		<polygon id="XMLID_46_" class="stcm3" points="404.4,221.1 387.8,221.1 374.6,237.5 391.2,237.5 		"/>
		<polygon id="XMLID_45_" class="stcm4" points="388.5,238.4 371.9,238.4 358.8,222 375.4,222 		"/>
	</g>
	<g id="XMLID_41_">
		<polygon id="XMLID_43_" class="stcm3" points="461.3,221.1 444.7,221.1 431.6,237.5 448.2,237.5 		"/>
		<polygon id="XMLID_42_" class="stcm4" points="445.5,238.4 428.9,238.4 415.7,222 432.4,222 		"/>
	</g>
	<g id="XMLID_38_">
		<polygon id="XMLID_40_" class="stcm3" points="518.3,221.1 501.7,221.1 488.6,237.5 505.2,237.5 		"/>
		<polygon id="XMLID_39_" class="stcm4" points="502.5,238.4 485.8,238.4 472.7,222 489.3,222 		"/>
	</g>
	<g id="XMLID_35_">
		<polygon id="XMLID_37_" class="stcm3" points="575.3,221.1 558.7,221.1 545.5,237.5 562.1,237.5 		"/>
		<polygon id="XMLID_36_" class="stcm4" points="559.4,238.4 542.8,238.4 529.7,222 546.3,222 		"/>
	</g>
	<g id="XMLID_32_">
		<polygon id="XMLID_34_" class="stcm3" points="632.2,221.1 615.6,221.1 602.5,237.5 619.1,237.5 		"/>
		<polygon id="XMLID_33_" class="stcm4" points="616.4,238.4 599.8,238.4 586.6,222 603.3,222 		"/>
	</g>
	<g id="XMLID_29_">
		<polygon id="XMLID_31_" class="stcm3" points="689.2,221.1 672.6,221.1 659.5,237.5 676.1,237.5 		"/>
		<polygon id="XMLID_30_" class="stcm4" points="673.4,238.4 656.7,238.4 643.6,222 660.2,222 		"/>
	</g>
	<rect id="XMLID_28_" x="6.6" y="235.6" class="stcm0" width="655.1" height="3.2"/>
	<rect id="XMLID_27_" x="6.6" y="217.1" class="stcm0" width="655.1" height="5.5"/>
</g>
<g id="XMLID_2_">
	<g id="XMLID_14_">
		<path id="XMLID_25_" class="stcm5" d="M372.4,159.7c0,5.7-4.6,10.2-10.2,10.2H127.1c-5.7,0-10.2-4.6-10.2-10.2v-37.3
			c0-5.7,4.6-10.2,10.2-10.2h235.1c5.7,0,10.2,4.6,10.2,10.2L372.4,159.7L372.4,159.7z"/>
		<circle id="XMLID_24_" class="stcm6" cx="438.9" cy="162.1" r="22"/>
		<path id="XMLID_23_" class="stcm6" d="M451.2,151.7c0,5.7-4.6,10.2-10.2,10.2H87.6c-5.7,0-10.2-4.6-10.2-10.2v-0.9
			c0-5.7,4.6-10.2,10.2-10.2h353.3c5.7,0,10.2,4.6,10.2,10.2v0.9H451.2z"/>
		<path id="XMLID_22_" class="stcm6" d="M446.3,83.2c4,4,6.4,8.1,5.3,9.2l-67.7,67.7c-1.1,1.1-5.2-1.3-9.2-5.3l-0.6-0.6
			c-4-4-6.4-8.1-5.3-9.2l67.7-67.7c1.1-1.1,5.2,1.3,9.2,5.3L446.3,83.2z"/>
		<polygon id="XMLID_21_" class="stcm0" points="191.6,184.1 143.8,184.1 120.4,158.6 208.2,158.6 		"/>
		<rect id="XMLID_20_" x="162.4" y="182.6" class="stcm5" width="21.1" height="7.1"/>
		<rect id="XMLID_19_" x="155.6" y="189.7" class="stcm0" width="34" height="10.9"/>
		<polygon id="XMLID_18_" class="stcm0" points="364.1,184.1 316.3,184.1 292.9,158.6 380.7,158.6 		"/>
		<rect id="XMLID_17_" x="334.9" y="182.6" class="stcm5" width="21.1" height="7.1"/>
		<rect id="XMLID_16_" x="328.1" y="189.7" class="stcm0" width="34" height="10.9"/>
		<rect id="XMLID_15_" x="115.6" y="144" class="stcm6" width="317.7" height="26"/>
	</g>
	<g class="XMLID rg">
		<path id="XMLID_13_" class="stcm7" d="M110,131.2l-17.2-23.5l12-3.3c-0.2-0.3-0.3-0.7-0.5-1L77.6,91.6l8.8-8.8
			c-0.3-0.2-0.6-0.4-0.9-0.6l-29.1,3.2l3.2-12c-0.4,0-0.8,0-1.2-0.1L34.7,90.6l-3.3-12c-0.3,0.2-0.7,0.3-1,0.5l-11.8,26.7L9.8,97
			c-0.2,0.3-0.4,0.6-0.6,0.9l3.2,29.1l-12-3.2c0,0.4,0,0.8-0.1,1.2l17.2,23.5l-12,3.3c0.2,0.3,0.3,0.7,0.5,1l26.7,11.8l-8.8,8.8
			c0.3,0.2,0.6,0.4,0.9,0.6l29.1-3.2l-3.2,12c0.4,0,0.8,0,1.2,0.1l23.5-17.3l3.3,12c0.3-0.2,0.7-0.3,1-0.5l11.8-26.7l8.8,8.8
			c0.2-0.3,0.4-0.6,0.6-0.9l-3.2-29.1l12,3.2C109.9,132,110,131.6,110,131.2z"/>
		<circle id="XMLID_12_" class="stcm8" cx="55.1" cy="128.1" r="27.4"/>
		<circle id="XMLID_11_" class="stcm3" cx="55.1" cy="128.1" r="15.8"/>
	</g>
	<g class="XMLID rg">
		<path id="XMLID_9_" class="stcm7" d="M497.2,57.8L480,34.3l12-3.3c-0.2-0.3-0.3-0.7-0.5-1l-26.9-11.7l8.8-8.8
			c-0.3-0.2-0.6-0.4-0.9-0.6l-29.1,3.2l3.2-12c-0.4,0-0.8,0-1.2-0.1l-23.6,17.2l-3.3-12c-0.3,0.2-0.7,0.3-1,0.5l-11.8,26.7l-8.8-8.8
			c-0.2,0.3-0.4,0.6-0.6,0.9l3.2,29.1l-12-3.2c0,0.4,0,0.8-0.1,1.2l17.2,23.5l-12,3.3c0.2,0.3,0.3,0.7,0.5,1l26.7,11.8L411,100
			c0.3,0.2,0.6,0.4,0.9,0.6l29.1-3.2l-3.2,12c0.4,0,0.8,0,1.2,0.1l23.5-17.3l3.3,12c0.3-0.2,0.7-0.3,1-0.5L478.6,77l8.8,8.8
			c0.2-0.3,0.4-0.6,0.6-0.9l-2.9-29.1l12,3.2C497.1,58.6,497.1,58.2,497.2,57.8z"/>
		<g id="XMLID_5_">
			<path id="XMLID_6_" class="stcm9" d="M442.3,83.4c-15.8,0-28.6-12.8-28.6-28.6s12.8-28.7,28.6-28.7s28.6,12.8,28.6,28.6
				C471,70.6,458.1,83.4,442.3,83.4z M442.3,28.7c-14.4,0-26.1,11.7-26.1,26.1s11.7,26.1,26.1,26.1s26.1-11.7,26.1-26.1
				S456.7,28.7,442.3,28.7z"/>
		</g>
		<circle id="XMLID_4_" class="stcm3" cx="442.3" cy="54.8" r="15.8"/>
	</g>
</g>
</svg>
